<svg width="299" height="106" viewBox="0 0 299 106" fill="none" xmlns="http://www.w3.org/2000/svg">
<path d="M55.654 13.624H60.964V16H53.17V3.4H60.874V5.776H55.654V8.458H60.424V10.798H55.654V13.624ZM66.6976 16.252C65.3416 16.252 64.2076 15.796 63.2956 14.884C62.3956 13.972 61.9456 12.844 61.9456 11.5C61.9456 10.156 62.3956 9.028 63.2956 8.116C64.2076 7.204 65.3416 6.748 66.6976 6.748C67.5736 6.748 68.3716 6.958 69.0916 7.378C69.8116 7.798 70.3576 8.362 70.7296 9.07L68.7316 10.24C68.5516 9.868 68.2756 9.574 67.9036 9.358C67.5436 9.142 67.1356 9.034 66.6796 9.034C65.9836 9.034 65.4076 9.268 64.9516 9.736C64.4956 10.192 64.2676 10.78 64.2676 11.5C64.2676 12.208 64.4956 12.796 64.9516 13.264C65.4076 13.72 65.9836 13.948 66.6796 13.948C67.1476 13.948 67.5616 13.846 67.9216 13.642C68.2936 13.426 68.5696 13.132 68.7496 12.76L70.7656 13.912C70.3696 14.62 69.8116 15.19 69.0916 15.622C68.3716 16.042 67.5736 16.252 66.6976 16.252ZM74.1181 9.556C74.1181 9.796 74.2741 9.994 74.5861 10.15C74.9101 10.294 75.3001 10.426 75.7561 10.546C76.2121 10.654 76.6681 10.798 77.1241 10.978C77.5801 11.146 77.9641 11.434 78.2761 11.842C78.6001 12.25 78.7621 12.76 78.7621 13.372C78.7621 14.296 78.4141 15.01 77.7181 15.514C77.0341 16.006 76.1761 16.252 75.1441 16.252C73.2961 16.252 72.0361 15.538 71.3641 14.11L73.3801 12.976C73.6441 13.756 74.2321 14.146 75.1441 14.146C75.9721 14.146 76.3861 13.888 76.3861 13.372C76.3861 13.132 76.2241 12.94 75.9001 12.796C75.5881 12.64 75.2041 12.502 74.7481 12.382C74.2921 12.262 73.8361 12.112 73.3801 11.932C72.9241 11.752 72.5341 11.47 72.2101 11.086C71.8981 10.69 71.7421 10.198 71.7421 9.61C71.7421 8.722 72.0661 8.026 72.7141 7.522C73.3741 7.006 74.1901 6.748 75.1621 6.748C75.8941 6.748 76.5601 6.916 77.1601 7.252C77.7601 7.576 78.2341 8.044 78.5821 8.656L76.6021 9.736C76.3141 9.124 75.8341 8.818 75.1621 8.818C74.8621 8.818 74.6101 8.884 74.4061 9.016C74.2141 9.148 74.1181 9.328 74.1181 9.556ZM85.1397 9.232H83.1057V12.976C83.1057 13.288 83.1837 13.516 83.3397 13.66C83.4957 13.804 83.7237 13.888 84.0237 13.912C84.3237 13.924 84.6957 13.918 85.1397 13.894V16C83.5437 16.18 82.4157 16.03 81.7557 15.55C81.1077 15.07 80.7837 14.212 80.7837 12.976V9.232H79.2177V7H80.7837V5.182L83.1057 4.48V7H85.1397V9.232ZM93.3356 7H95.6576V16H93.3356V14.938C92.6396 15.814 91.6616 16.252 90.4016 16.252C89.2016 16.252 88.1696 15.796 87.3056 14.884C86.4536 13.96 86.0276 12.832 86.0276 11.5C86.0276 10.168 86.4536 9.046 87.3056 8.134C88.1696 7.21 89.2016 6.748 90.4016 6.748C91.6616 6.748 92.6396 7.186 93.3356 8.062V7ZM89.0516 13.336C89.5196 13.804 90.1136 14.038 90.8336 14.038C91.5536 14.038 92.1476 13.804 92.6156 13.336C93.0956 12.856 93.3356 12.244 93.3356 11.5C93.3356 10.756 93.0956 10.15 92.6156 9.682C92.1476 9.202 91.5536 8.962 90.8336 8.962C90.1136 8.962 89.5196 9.202 89.0516 9.682C88.5836 10.15 88.3496 10.756 88.3496 11.5C88.3496 12.244 88.5836 12.856 89.0516 13.336ZM102.911 9.232H100.877V12.976C100.877 13.288 100.955 13.516 101.111 13.66C101.267 13.804 101.495 13.888 101.795 13.912C102.095 13.924 102.467 13.918 102.911 13.894V16C101.315 16.18 100.187 16.03 99.5272 15.55C98.8792 15.07 98.5552 14.212 98.5552 12.976V9.232H96.9892V7H98.5552V5.182L100.877 4.48V7H102.911V9.232ZM105.7 5.92C105.316 5.92 104.98 5.782 104.692 5.506C104.416 5.218 104.278 4.882 104.278 4.498C104.278 4.114 104.416 3.778 104.692 3.49C104.98 3.202 105.316 3.058 105.7 3.058C106.096 3.058 106.432 3.202 106.708 3.49C106.996 3.778 107.14 4.114 107.14 4.498C107.14 4.882 106.996 5.218 106.708 5.506C106.432 5.782 106.096 5.92 105.7 5.92ZM104.548 16V7H106.87V16H104.548ZM113.28 16.252C111.924 16.252 110.79 15.796 109.878 14.884C108.978 13.972 108.528 12.844 108.528 11.5C108.528 10.156 108.978 9.028 109.878 8.116C110.79 7.204 111.924 6.748 113.28 6.748C114.156 6.748 114.954 6.958 115.674 7.378C116.394 7.798 116.94 8.362 117.312 9.07L115.314 10.24C115.134 9.868 114.858 9.574 114.486 9.358C114.126 9.142 113.718 9.034 113.262 9.034C112.566 9.034 111.99 9.268 111.534 9.736C111.078 10.192 110.85 10.78 110.85 11.5C110.85 12.208 111.078 12.796 111.534 13.264C111.99 13.72 112.566 13.948 113.262 13.948C113.73 13.948 114.144 13.846 114.504 13.642C114.876 13.426 115.152 13.132 115.332 12.76L117.348 13.912C116.952 14.62 116.394 15.19 115.674 15.622C114.954 16.042 114.156 16.252 113.28 16.252ZM125.108 12.454C125.42 13.582 126.266 14.146 127.646 14.146C128.534 14.146 129.206 13.846 129.662 13.246L131.534 14.326C130.646 15.61 129.338 16.252 127.61 16.252C126.122 16.252 124.928 15.802 124.028 14.902C123.128 14.002 122.678 12.868 122.678 11.5C122.678 10.144 123.122 9.016 124.01 8.116C124.898 7.204 126.038 6.748 127.43 6.748C128.75 6.748 129.836 7.204 130.688 8.116C131.552 9.028 131.984 10.156 131.984 11.5C131.984 11.8 131.954 12.118 131.894 12.454H125.108ZM125.072 10.654H129.662C129.53 10.042 129.254 9.586 128.834 9.286C128.426 8.986 127.958 8.836 127.43 8.836C126.806 8.836 126.29 8.998 125.882 9.322C125.474 9.634 125.204 10.078 125.072 10.654ZM133.605 16V2.86H135.927V16H133.605ZM140.014 12.454C140.326 13.582 141.172 14.146 142.552 14.146C143.44 14.146 144.112 13.846 144.568 13.246L146.44 14.326C145.552 15.61 144.244 16.252 142.516 16.252C141.028 16.252 139.834 15.802 138.934 14.902C138.034 14.002 137.584 12.868 137.584 11.5C137.584 10.144 138.028 9.016 138.916 8.116C139.804 7.204 140.944 6.748 142.336 6.748C143.656 6.748 144.742 7.204 145.594 8.116C146.458 9.028 146.89 10.156 146.89 11.5C146.89 11.8 146.86 12.118 146.8 12.454H140.014ZM139.978 10.654H144.568C144.436 10.042 144.16 9.586 143.74 9.286C143.332 8.986 142.864 8.836 142.336 8.836C141.712 8.836 141.196 8.998 140.788 9.322C140.38 9.634 140.11 10.078 139.978 10.654ZM155.335 7H157.603V15.568C157.603 16.96 157.141 18.022 156.217 18.754C155.305 19.486 154.201 19.852 152.905 19.852C151.933 19.852 151.075 19.666 150.331 19.294C149.599 18.922 149.035 18.376 148.639 17.656L150.619 16.522C151.075 17.362 151.861 17.782 152.977 17.782C153.709 17.782 154.285 17.59 154.705 17.206C155.125 16.822 155.335 16.276 155.335 15.568V14.596C154.651 15.508 153.691 15.964 152.455 15.964C151.183 15.964 150.115 15.52 149.251 14.632C148.399 13.732 147.973 12.64 147.973 11.356C147.973 10.084 148.405 8.998 149.269 8.098C150.133 7.198 151.195 6.748 152.455 6.748C153.691 6.748 154.651 7.204 155.335 8.116V7ZM150.997 13.138C151.477 13.594 152.083 13.822 152.815 13.822C153.547 13.822 154.147 13.594 154.615 13.138C155.095 12.67 155.335 12.076 155.335 11.356C155.335 10.648 155.095 10.066 154.615 9.61C154.147 9.142 153.547 8.908 152.815 8.908C152.083 8.908 151.477 9.142 150.997 9.61C150.529 10.066 150.295 10.648 150.295 11.356C150.295 12.076 150.529 12.67 150.997 13.138ZM166.548 7H168.87V16H166.548V14.938C165.852 15.814 164.874 16.252 163.614 16.252C162.414 16.252 161.382 15.796 160.518 14.884C159.666 13.96 159.24 12.832 159.24 11.5C159.24 10.168 159.666 9.046 160.518 8.134C161.382 7.21 162.414 6.748 163.614 6.748C164.874 6.748 165.852 7.186 166.548 8.062V7ZM162.264 13.336C162.732 13.804 163.326 14.038 164.046 14.038C164.766 14.038 165.36 13.804 165.828 13.336C166.308 12.856 166.548 12.244 166.548 11.5C166.548 10.756 166.308 10.15 165.828 9.682C165.36 9.202 164.766 8.962 164.046 8.962C163.326 8.962 162.732 9.202 162.264 9.682C161.796 10.15 161.562 10.756 161.562 11.5C161.562 12.244 161.796 12.856 162.264 13.336ZM175.98 6.748C176.964 6.748 177.774 7.078 178.41 7.738C179.058 8.398 179.382 9.31 179.382 10.474V16H177.06V10.762C177.06 10.162 176.898 9.706 176.574 9.394C176.25 9.07 175.818 8.908 175.278 8.908C174.678 8.908 174.198 9.094 173.838 9.466C173.478 9.838 173.298 10.396 173.298 11.14V16H170.976V7H173.298V8.008C173.862 7.168 174.756 6.748 175.98 6.748ZM185.649 16.252C184.293 16.252 183.159 15.796 182.247 14.884C181.347 13.972 180.897 12.844 180.897 11.5C180.897 10.156 181.347 9.028 182.247 8.116C183.159 7.204 184.293 6.748 185.649 6.748C186.525 6.748 187.323 6.958 188.043 7.378C188.763 7.798 189.309 8.362 189.681 9.07L187.683 10.24C187.503 9.868 187.227 9.574 186.855 9.358C186.495 9.142 186.087 9.034 185.631 9.034C184.935 9.034 184.359 9.268 183.903 9.736C183.447 10.192 183.219 10.78 183.219 11.5C183.219 12.208 183.447 12.796 183.903 13.264C184.359 13.72 184.935 13.948 185.631 13.948C186.099 13.948 186.513 13.846 186.873 13.642C187.245 13.426 187.521 13.132 187.701 12.76L189.717 13.912C189.321 14.62 188.763 15.19 188.043 15.622C187.323 16.042 186.525 16.252 185.649 16.252ZM192.766 12.454C193.078 13.582 193.924 14.146 195.304 14.146C196.192 14.146 196.864 13.846 197.32 13.246L199.192 14.326C198.304 15.61 196.996 16.252 195.268 16.252C193.78 16.252 192.586 15.802 191.686 14.902C190.786 14.002 190.336 12.868 190.336 11.5C190.336 10.144 190.78 9.016 191.668 8.116C192.556 7.204 193.696 6.748 195.088 6.748C196.408 6.748 197.494 7.204 198.346 8.116C199.21 9.028 199.642 10.156 199.642 11.5C199.642 11.8 199.612 12.118 199.552 12.454H192.766ZM192.73 10.654H197.32C197.188 10.042 196.912 9.586 196.492 9.286C196.084 8.986 195.616 8.836 195.088 8.836C194.464 8.836 193.948 8.998 193.54 9.322C193.132 9.634 192.862 10.078 192.73 10.654Z" fill="#99EFD0"/>
<path d="M59.364 47L58.678 45.026H54.506L53.82 47H52.07L55.626 37.2H57.558L61.1 47H59.364ZM55.038 43.514H58.146L56.592 39.09L55.038 43.514ZM63.5678 41.176C63.9505 40.308 64.6692 39.874 65.7238 39.874V41.512C65.1452 41.4747 64.6412 41.6147 64.2118 41.932C63.7825 42.24 63.5678 42.7533 63.5678 43.472V47H62.0558V40H63.5678V41.176ZM70.9247 41.456H69.1887V44.816C69.1887 45.1053 69.2541 45.3153 69.3847 45.446C69.5154 45.5673 69.7067 45.6373 69.9587 45.656C70.2201 45.6653 70.5421 45.6607 70.9247 45.642V47C69.7674 47.14 68.9367 47.042 68.4327 46.706C67.9287 46.3607 67.6767 45.7307 67.6767 44.816V41.456H66.3887V40H67.6767V38.488L69.1887 38.04V40H70.9247V41.456ZM73.7241 38.67C73.5374 38.8567 73.3134 38.95 73.0521 38.95C72.7907 38.95 72.5621 38.8567 72.3661 38.67C72.1794 38.474 72.0861 38.2453 72.0861 37.984C72.0861 37.7227 72.1794 37.4987 72.3661 37.312C72.5527 37.116 72.7814 37.018 73.0521 37.018C73.3227 37.018 73.5514 37.116 73.7381 37.312C73.9247 37.4987 74.0181 37.7227 74.0181 37.984C74.0181 38.2453 73.9201 38.474 73.7241 38.67ZM72.2961 47V40H73.8081V47H72.2961ZM78.8676 47.182C77.813 47.182 76.931 46.8273 76.2216 46.118C75.5216 45.4087 75.1716 44.536 75.1716 43.5C75.1716 42.4547 75.5216 41.582 76.2216 40.882C76.931 40.1727 77.813 39.818 78.8676 39.818C79.549 39.818 80.1696 39.9813 80.7296 40.308C81.2896 40.6347 81.7096 41.0733 81.9896 41.624L80.6876 42.38C80.529 42.044 80.2863 41.7827 79.9596 41.596C79.6423 41.4 79.2736 41.302 78.8536 41.302C78.2376 41.302 77.7196 41.512 77.2996 41.932C76.889 42.352 76.6836 42.8747 76.6836 43.5C76.6836 44.1253 76.889 44.648 77.2996 45.068C77.7196 45.488 78.2376 45.698 78.8536 45.698C79.2643 45.698 79.633 45.6 79.9596 45.404C80.2956 45.208 80.5476 44.9467 80.7156 44.62L82.0176 45.362C81.719 45.922 81.2896 46.3653 80.7296 46.692C80.1696 47.0187 79.549 47.182 78.8676 47.182ZM83.1105 47V36.78H84.6225V47H83.1105ZM87.5681 44.144C87.6801 44.676 87.9368 45.0867 88.3381 45.376C88.7394 45.656 89.2294 45.796 89.8081 45.796C90.6108 45.796 91.2128 45.5067 91.6141 44.928L92.8601 45.656C92.1694 46.6733 91.1474 47.182 89.7941 47.182C88.6554 47.182 87.7361 46.8367 87.0361 46.146C86.3361 45.446 85.9861 44.564 85.9861 43.5C85.9861 42.4547 86.3314 41.582 87.0221 40.882C87.7128 40.1727 88.5994 39.818 89.6821 39.818C90.7088 39.818 91.5488 40.1773 92.2021 40.896C92.8648 41.6147 93.1961 42.4873 93.1961 43.514C93.1961 43.6727 93.1774 43.8827 93.1401 44.144H87.5681ZM87.5541 42.912H91.6701C91.5674 42.3427 91.3294 41.9133 90.9561 41.624C90.5921 41.3347 90.1628 41.19 89.6681 41.19C89.1081 41.19 88.6414 41.344 88.2681 41.652C87.8948 41.96 87.6568 42.38 87.5541 42.912ZM101.709 39.818C102.511 39.818 103.16 40.0747 103.655 40.588C104.149 41.1013 104.397 41.806 104.397 42.702V47H102.885V42.856C102.885 42.3333 102.745 41.932 102.465 41.652C102.185 41.372 101.802 41.232 101.317 41.232C100.785 41.232 100.355 41.4 100.029 41.736C99.7019 42.0627 99.5385 42.5667 99.5385 43.248V47H98.0265V40H99.5385V40.896C99.9959 40.1773 100.719 39.818 101.709 39.818ZM109.329 47.182C108.302 47.182 107.429 46.8273 106.711 46.118C105.992 45.4087 105.633 44.536 105.633 43.5C105.633 42.464 105.992 41.5913 106.711 40.882C107.429 40.1727 108.302 39.818 109.329 39.818C110.365 39.818 111.237 40.1727 111.947 40.882C112.665 41.5913 113.025 42.464 113.025 43.5C113.025 44.536 112.665 45.4087 111.947 46.118C111.237 46.8273 110.365 47.182 109.329 47.182ZM107.775 45.082C108.195 45.502 108.713 45.712 109.329 45.712C109.945 45.712 110.463 45.502 110.883 45.082C111.303 44.662 111.513 44.1347 111.513 43.5C111.513 42.8653 111.303 42.338 110.883 41.918C110.463 41.498 109.945 41.288 109.329 41.288C108.713 41.288 108.195 41.498 107.775 41.918C107.355 42.338 107.145 42.8653 107.145 43.5C107.145 44.1347 107.355 44.662 107.775 45.082ZM115.904 41.176C116.286 40.308 117.005 39.874 118.06 39.874V41.512C117.481 41.4747 116.977 41.6147 116.548 41.932C116.118 42.24 115.904 42.7533 115.904 43.472V47H114.392V40H115.904V41.176ZM126.639 39.818C127.6 39.818 128.422 40.1773 129.103 40.896C129.784 41.6053 130.125 42.4733 130.125 43.5C130.125 44.536 129.784 45.4087 129.103 46.118C128.422 46.8273 127.6 47.182 126.639 47.182C125.575 47.182 124.758 46.79 124.189 46.006V49.8H122.677V40H124.189V41.008C124.758 40.2147 125.575 39.818 126.639 39.818ZM124.819 45.11C125.239 45.53 125.766 45.74 126.401 45.74C127.036 45.74 127.563 45.53 127.983 45.11C128.403 44.6807 128.613 44.144 128.613 43.5C128.613 42.856 128.403 42.324 127.983 41.904C127.563 41.4747 127.036 41.26 126.401 41.26C125.766 41.26 125.239 41.4747 124.819 41.904C124.399 42.324 124.189 42.856 124.189 43.5C124.189 44.144 124.399 44.6807 124.819 45.11ZM133.007 41.176C133.39 40.308 134.109 39.874 135.163 39.874V41.512C134.585 41.4747 134.081 41.6147 133.651 41.932C133.222 42.24 133.007 42.7533 133.007 43.472V47H131.495V40H133.007V41.176ZM137.142 44.144C137.254 44.676 137.511 45.0867 137.912 45.376C138.314 45.656 138.804 45.796 139.382 45.796C140.185 45.796 140.787 45.5067 141.188 44.928L142.434 45.656C141.744 46.6733 140.722 47.182 139.368 47.182C138.23 47.182 137.31 46.8367 136.61 46.146C135.91 45.446 135.56 44.564 135.56 43.5C135.56 42.4547 135.906 41.582 136.596 40.882C137.287 40.1727 138.174 39.818 139.256 39.818C140.283 39.818 141.123 40.1773 141.776 40.896C142.439 41.6147 142.77 42.4873 142.77 43.514C142.77 43.6727 142.752 43.8827 142.714 44.144H137.142ZM137.128 42.912H141.244C141.142 42.3427 140.904 41.9133 140.53 41.624C140.166 41.3347 139.737 41.19 139.242 41.19C138.682 41.19 138.216 41.344 137.842 41.652C137.469 41.96 137.231 42.38 137.128 42.912ZM148.063 39.818C149.024 39.818 149.845 40.1773 150.527 40.896C151.208 41.6053 151.549 42.4733 151.549 43.5C151.549 44.536 151.208 45.4087 150.527 46.118C149.845 46.8273 149.024 47.182 148.063 47.182C146.999 47.182 146.182 46.79 145.613 46.006V49.8H144.101V40H145.613V41.008C146.182 40.2147 146.999 39.818 148.063 39.818ZM146.243 45.11C146.663 45.53 147.19 45.74 147.825 45.74C148.459 45.74 148.987 45.53 149.407 45.11C149.827 44.6807 150.037 44.144 150.037 43.5C150.037 42.856 149.827 42.324 149.407 41.904C148.987 41.4747 148.459 41.26 147.825 41.26C147.19 41.26 146.663 41.4747 146.243 41.904C145.823 42.324 145.613 42.856 145.613 43.5C145.613 44.144 145.823 44.6807 146.243 45.11ZM158.463 40H159.975V47H158.463V45.992C157.894 46.7853 157.077 47.182 156.013 47.182C155.052 47.182 154.23 46.8273 153.549 46.118C152.868 45.3993 152.527 44.5267 152.527 43.5C152.527 42.464 152.868 41.5913 153.549 40.882C154.23 40.1727 155.052 39.818 156.013 39.818C157.077 39.818 157.894 40.21 158.463 40.994V40ZM154.669 45.11C155.089 45.53 155.616 45.74 156.251 45.74C156.886 45.74 157.413 45.53 157.833 45.11C158.253 44.6807 158.463 44.144 158.463 43.5C158.463 42.856 158.253 42.324 157.833 41.904C157.413 41.4747 156.886 41.26 156.251 41.26C155.616 41.26 155.089 41.4747 154.669 41.904C154.249 42.324 154.039 42.856 154.039 43.5C154.039 44.144 154.249 44.6807 154.669 45.11ZM163.249 41.176C163.632 40.308 164.351 39.874 165.405 39.874V41.512C164.827 41.4747 164.323 41.6147 163.893 41.932C163.464 42.24 163.249 42.7533 163.249 43.472V47H161.737V40H163.249V41.176ZM167.385 44.144C167.497 44.676 167.753 45.0867 168.155 45.376C168.556 45.656 169.046 45.796 169.625 45.796C170.427 45.796 171.029 45.5067 171.431 44.928L172.677 45.656C171.986 46.6733 170.964 47.182 169.611 47.182C168.472 47.182 167.553 46.8367 166.853 46.146C166.153 45.446 165.803 44.564 165.803 43.5C165.803 42.4547 166.148 41.582 166.839 40.882C167.529 40.1727 168.416 39.818 169.499 39.818C170.525 39.818 171.365 40.1773 172.019 40.896C172.681 41.6147 173.013 42.4873 173.013 43.514C173.013 43.6727 172.994 43.8827 172.957 44.144H167.385ZM167.37 42.912H171.487C171.384 42.3427 171.146 41.9133 170.773 41.624C170.409 41.3347 169.979 41.19 169.485 41.19C168.925 41.19 168.458 41.344 168.085 41.652C167.711 41.96 167.473 42.38 167.37 42.912ZM181.147 47.182C180.092 47.182 179.21 46.8273 178.501 46.118C177.801 45.4087 177.451 44.536 177.451 43.5C177.451 42.4547 177.801 41.582 178.501 40.882C179.21 40.1727 180.092 39.818 181.147 39.818C181.828 39.818 182.449 39.9813 183.009 40.308C183.569 40.6347 183.989 41.0733 184.269 41.624L182.967 42.38C182.808 42.044 182.566 41.7827 182.239 41.596C181.922 41.4 181.553 41.302 181.133 41.302C180.517 41.302 179.999 41.512 179.579 41.932C179.168 42.352 178.963 42.8747 178.963 43.5C178.963 44.1253 179.168 44.648 179.579 45.068C179.999 45.488 180.517 45.698 181.133 45.698C181.544 45.698 181.912 45.6 182.239 45.404C182.575 45.208 182.827 44.9467 182.995 44.62L184.297 45.362C183.998 45.922 183.569 46.3653 183.009 46.692C182.449 47.0187 181.828 47.182 181.147 47.182ZM189.072 39.818C189.874 39.818 190.523 40.0747 191.018 40.588C191.512 41.1013 191.76 41.806 191.76 42.702V47H190.248V42.856C190.248 42.3333 190.108 41.932 189.828 41.652C189.548 41.372 189.165 41.232 188.68 41.232C188.148 41.232 187.718 41.4 187.392 41.736C187.065 42.0627 186.902 42.5667 186.902 43.248V47H185.39V37.2H186.902V40.896C187.359 40.1773 188.082 39.818 189.072 39.818ZM194.816 38.67C194.629 38.8567 194.405 38.95 194.144 38.95C193.883 38.95 193.654 38.8567 193.458 38.67C193.271 38.474 193.178 38.2453 193.178 37.984C193.178 37.7227 193.271 37.4987 193.458 37.312C193.645 37.116 193.873 37.018 194.144 37.018C194.415 37.018 194.643 37.116 194.83 37.312C195.017 37.4987 195.11 37.7227 195.11 37.984C195.11 38.2453 195.012 38.474 194.816 38.67ZM193.388 47V40H194.9V47H193.388ZM199.959 47.182C198.905 47.182 198.023 46.8273 197.313 46.118C196.613 45.4087 196.263 44.536 196.263 43.5C196.263 42.4547 196.613 41.582 197.313 40.882C198.023 40.1727 198.905 39.818 199.959 39.818C200.641 39.818 201.261 39.9813 201.821 40.308C202.381 40.6347 202.801 41.0733 203.081 41.624L201.779 42.38C201.621 42.044 201.378 41.7827 201.051 41.596C200.734 41.4 200.365 41.302 199.945 41.302C199.329 41.302 198.811 41.512 198.391 41.932C197.981 42.352 197.775 42.8747 197.775 43.5C197.775 44.1253 197.981 44.648 198.391 45.068C198.811 45.488 199.329 45.698 199.945 45.698C200.356 45.698 200.725 45.6 201.051 45.404C201.387 45.208 201.639 44.9467 201.807 44.62L203.109 45.362C202.811 45.922 202.381 46.3653 201.821 46.692C201.261 47.0187 200.641 47.182 199.959 47.182ZM210.39 47H208.584L205.714 43.766V47H204.202V37.2H205.714V43.094L208.43 40H210.278L207.198 43.43L210.39 47ZM212.037 44.144C212.149 44.676 212.406 45.0867 212.807 45.376C213.208 45.656 213.698 45.796 214.277 45.796C215.08 45.796 215.682 45.5067 216.083 44.928L217.329 45.656C216.638 46.6733 215.616 47.182 214.263 47.182C213.124 47.182 212.205 46.8367 211.505 46.146C210.805 45.446 210.455 44.564 210.455 43.5C210.455 42.4547 210.8 41.582 211.491 40.882C212.182 40.1727 213.068 39.818 214.151 39.818C215.178 39.818 216.018 40.1773 216.671 40.896C217.334 41.6147 217.665 42.4873 217.665 43.514C217.665 43.6727 217.646 43.8827 217.609 44.144H212.037ZM212.023 42.912H216.139C216.036 42.3427 215.798 41.9133 215.425 41.624C215.061 41.3347 214.632 41.19 214.137 41.19C213.577 41.19 213.11 41.344 212.737 41.652C212.364 41.96 212.126 42.38 212.023 42.912ZM222.677 39.818C223.48 39.818 224.129 40.0747 224.623 40.588C225.118 41.1013 225.365 41.806 225.365 42.702V47H223.853V42.856C223.853 42.3333 223.713 41.932 223.433 41.652C223.153 41.372 222.771 41.232 222.285 41.232C221.753 41.232 221.324 41.4 220.997 41.736C220.671 42.0627 220.507 42.5667 220.507 43.248V47H218.995V40H220.507V40.896C220.965 40.1773 221.688 39.818 222.677 39.818ZM235.211 40H236.821L234.133 47.224C233.461 49.0347 232.323 49.8933 230.717 49.8V48.386C231.193 48.414 231.576 48.3113 231.865 48.078C232.155 47.854 232.393 47.4993 232.579 47.014L232.649 46.874L229.681 40H231.333L233.419 45.082L235.211 40ZM240.797 47.182C239.771 47.182 238.898 46.8273 238.179 46.118C237.461 45.4087 237.101 44.536 237.101 43.5C237.101 42.464 237.461 41.5913 238.179 40.882C238.898 40.1727 239.771 39.818 240.797 39.818C241.833 39.818 242.706 40.1727 243.415 40.882C244.134 41.5913 244.493 42.464 244.493 43.5C244.493 44.536 244.134 45.4087 243.415 46.118C242.706 46.8273 241.833 47.182 240.797 47.182ZM239.243 45.082C239.663 45.502 240.181 45.712 240.797 45.712C241.413 45.712 241.931 45.502 242.351 45.082C242.771 44.662 242.981 44.1347 242.981 43.5C242.981 42.8653 242.771 42.338 242.351 41.918C241.931 41.498 241.413 41.288 240.797 41.288C240.181 41.288 239.663 41.498 239.243 41.918C238.823 42.338 238.613 42.8653 238.613 43.5C238.613 44.1347 238.823 44.662 239.243 45.082ZM250.579 40H252.091V47H250.579V46.104C250.121 46.8227 249.398 47.182 248.409 47.182C247.606 47.182 246.957 46.9253 246.463 46.412C245.968 45.8987 245.721 45.194 245.721 44.298V40H247.233V44.144C247.233 44.6667 247.373 45.068 247.653 45.348C247.933 45.628 248.315 45.768 248.801 45.768C249.333 45.768 249.762 45.6047 250.089 45.278C250.415 44.942 250.579 44.4333 250.579 43.752V40ZM261.041 39.818C261.843 39.818 262.492 40.0747 262.987 40.588C263.481 41.1013 263.729 41.806 263.729 42.702V47H262.217V42.856C262.217 42.3333 262.077 41.932 261.797 41.652C261.517 41.372 261.134 41.232 260.649 41.232C260.117 41.232 259.687 41.4 259.361 41.736C259.034 42.0627 258.871 42.5667 258.871 43.248V47H257.359V37.2H258.871V40.896C259.328 40.1773 260.051 39.818 261.041 39.818ZM266.785 38.67C266.598 38.8567 266.374 38.95 266.113 38.95C265.851 38.95 265.623 38.8567 265.427 38.67C265.24 38.474 265.147 38.2453 265.147 37.984C265.147 37.7227 265.24 37.4987 265.427 37.312C265.613 37.116 265.842 37.018 266.113 37.018C266.383 37.018 266.612 37.116 266.799 37.312C266.985 37.4987 267.079 37.7227 267.079 37.984C267.079 38.2453 266.981 38.474 266.785 38.67ZM265.357 47V40H266.869V47H265.357ZM276.268 39.818C277.062 39.818 277.701 40.0747 278.186 40.588C278.672 41.1013 278.914 41.792 278.914 42.66V47H277.402V42.758C277.402 42.2727 277.281 41.8993 277.038 41.638C276.796 41.3673 276.464 41.232 276.044 41.232C275.578 41.232 275.204 41.386 274.924 41.694C274.654 42.002 274.518 42.464 274.518 43.08V47H273.006V42.758C273.006 42.2727 272.89 41.8993 272.656 41.638C272.432 41.3673 272.11 41.232 271.69 41.232C271.233 41.232 270.86 41.3907 270.57 41.708C270.281 42.016 270.136 42.4733 270.136 43.08V47H268.624V40H270.136V40.84C270.584 40.1587 271.252 39.818 272.138 39.818C273.034 39.818 273.697 40.1867 274.126 40.924C274.593 40.1867 275.307 39.818 276.268 39.818ZM56.564 61.818C57.3667 61.818 58.0153 62.0747 58.51 62.588C59.0047 63.1013 59.252 63.806 59.252 64.702V69H57.74V64.856C57.74 64.3333 57.6 63.932 57.32 63.652C57.04 63.372 56.6573 63.232 56.172 63.232C55.64 63.232 55.2107 63.4 54.884 63.736C54.5573 64.0627 54.394 64.5667 54.394 65.248V69H52.882V62H54.394V62.896C54.8513 62.1773 55.5747 61.818 56.564 61.818ZM64.184 69.182C63.1574 69.182 62.2847 68.8273 61.566 68.118C60.8474 67.4087 60.488 66.536 60.488 65.5C60.488 64.464 60.8474 63.5913 61.566 62.882C62.2847 62.1727 63.1574 61.818 64.184 61.818C65.22 61.818 66.0927 62.1727 66.802 62.882C67.5207 63.5913 67.88 64.464 67.88 65.5C67.88 66.536 67.5207 67.4087 66.802 68.118C66.0927 68.8273 65.22 69.182 64.184 69.182ZM62.63 67.082C63.05 67.502 63.568 67.712 64.184 67.712C64.8 67.712 65.318 67.502 65.738 67.082C66.158 66.662 66.368 66.1347 66.368 65.5C66.368 64.8653 66.158 64.338 65.738 63.918C65.318 63.498 64.8 63.288 64.184 63.288C63.568 63.288 63.05 63.498 62.63 63.918C62.21 64.338 62 64.8653 62 65.5C62 66.1347 62.21 66.662 62.63 67.082ZM77.0378 62H78.6338L76.4358 69H74.9518L73.4958 64.282L72.0258 69H70.5418L68.3438 62H69.9398L71.2978 66.83L72.7678 62H74.2098L75.6658 66.83L77.0378 62ZM80.1414 68.86C79.9361 69.0653 79.6888 69.168 79.3994 69.168C79.1101 69.168 78.8628 69.0653 78.6574 68.86C78.4521 68.6547 78.3494 68.4073 78.3494 68.118C78.3494 67.8287 78.4474 67.5813 78.6434 67.376C78.8488 67.1707 79.1008 67.068 79.3994 67.068C79.6888 67.068 79.9361 67.1707 80.1414 67.376C80.3468 67.5813 80.4494 67.8287 80.4494 68.118C80.4494 68.4073 80.3468 68.6547 80.1414 68.86ZM88.9178 69.182C87.9751 69.182 87.1724 68.9673 86.5098 68.538C85.8564 68.1087 85.3991 67.5207 85.1378 66.774L86.5238 65.962C86.9158 67.0633 87.7278 67.614 88.9598 67.614C89.5664 67.614 90.0191 67.4973 90.3178 67.264C90.6258 67.0213 90.7798 66.7087 90.7798 66.326C90.7798 65.9247 90.6164 65.6213 90.2898 65.416C89.9631 65.2013 89.3844 64.968 88.5538 64.716C88.0871 64.576 87.7091 64.4453 87.4198 64.324C87.1304 64.2027 86.8224 64.0347 86.4958 63.82C86.1784 63.596 85.9404 63.3207 85.7818 62.994C85.6231 62.6673 85.5438 62.2847 85.5438 61.846C85.5438 60.978 85.8518 60.292 86.4678 59.788C87.0838 59.2747 87.8258 59.018 88.6938 59.018C89.4778 59.018 90.1638 59.2093 90.7518 59.592C91.3398 59.9747 91.7924 60.502 92.1098 61.174L90.7518 61.958C90.3411 61.0433 89.6551 60.586 88.6938 60.586C88.2271 60.586 87.8538 60.698 87.5738 60.922C87.2938 61.1367 87.1538 61.4307 87.1538 61.804C87.1538 62.168 87.2938 62.4573 87.5738 62.672C87.8631 62.8773 88.3811 63.0967 89.1278 63.33C89.5011 63.4513 89.7718 63.5447 89.9398 63.61C90.1171 63.666 90.3598 63.7593 90.6678 63.89C90.9851 64.0207 91.2231 64.1513 91.3818 64.282C91.5404 64.4127 91.7084 64.576 91.8858 64.772C92.0724 64.968 92.2031 65.192 92.2778 65.444C92.3524 65.696 92.3898 65.9807 92.3898 66.298C92.3898 67.1847 92.0678 67.8893 91.4238 68.412C90.7891 68.9253 89.9538 69.182 88.9178 69.182ZM97.3745 61.818C98.1772 61.818 98.8259 62.0747 99.3205 62.588C99.8152 63.1013 100.063 63.806 100.063 64.702V69H98.5505V64.856C98.5505 64.3333 98.4105 63.932 98.1305 63.652C97.8505 63.372 97.4679 63.232 96.9825 63.232C96.4505 63.232 96.0212 63.4 95.6945 63.736C95.3679 64.0627 95.2045 64.5667 95.2045 65.248V69H93.6925V59.2H95.2045V62.896C95.6619 62.1773 96.3852 61.818 97.3745 61.818ZM106.272 62H107.882L105.194 69.224C104.522 71.0347 103.383 71.8933 101.778 71.8V70.386C102.254 70.414 102.637 70.3113 102.926 70.078C103.215 69.854 103.453 69.4993 103.64 69.014L103.71 68.874L100.742 62H102.394L104.48 67.082L106.272 62ZM119.971 61.818C120.765 61.818 121.404 62.0747 121.889 62.588C122.375 63.1013 122.617 63.792 122.617 64.66V69H121.105V64.758C121.105 64.2727 120.984 63.8993 120.741 63.638C120.499 63.3673 120.167 63.232 119.747 63.232C119.281 63.232 118.907 63.386 118.627 63.694C118.357 64.002 118.221 64.464 118.221 65.08V69H116.709V64.758C116.709 64.2727 116.593 63.8993 116.359 63.638C116.135 63.3673 115.813 63.232 115.393 63.232C114.936 63.232 114.563 63.3907 114.273 63.708C113.984 64.016 113.839 64.4733 113.839 65.08V69H112.327V62H113.839V62.84C114.287 62.1587 114.955 61.818 115.841 61.818C116.737 61.818 117.4 62.1867 117.829 62.924C118.296 62.1867 119.01 61.818 119.971 61.818ZM125.426 66.144C125.538 66.676 125.794 67.0867 126.196 67.376C126.597 67.656 127.087 67.796 127.666 67.796C128.468 67.796 129.07 67.5067 129.472 66.928L130.718 67.656C130.027 68.6733 129.005 69.182 127.652 69.182C126.513 69.182 125.594 68.8367 124.894 68.146C124.194 67.446 123.844 66.564 123.844 65.5C123.844 64.4547 124.189 63.582 124.88 62.882C125.57 62.1727 126.457 61.818 127.54 61.818C128.566 61.818 129.406 62.1773 130.06 62.896C130.722 63.6147 131.054 64.4873 131.054 65.514C131.054 65.6727 131.035 65.8827 130.998 66.144H125.426ZM125.412 64.912H129.528C129.425 64.3427 129.187 63.9133 128.814 63.624C128.45 63.3347 128.02 63.19 127.526 63.19C126.966 63.19 126.499 63.344 126.126 63.652C125.752 63.96 125.514 64.38 125.412 64.912ZM133.896 63.176C134.279 62.308 134.997 61.874 136.052 61.874V63.512C135.473 63.4747 134.969 63.6147 134.54 63.932C134.111 64.24 133.896 64.7533 133.896 65.472V69H132.384V62H133.896V63.176ZM138.597 60.67C138.41 60.8567 138.186 60.95 137.925 60.95C137.664 60.95 137.435 60.8567 137.239 60.67C137.052 60.474 136.959 60.2453 136.959 59.984C136.959 59.7227 137.052 59.4987 137.239 59.312C137.426 59.116 137.654 59.018 137.925 59.018C138.196 59.018 138.424 59.116 138.611 59.312C138.798 59.4987 138.891 59.7227 138.891 59.984C138.891 60.2453 138.793 60.474 138.597 60.67ZM137.169 69V62H138.681V69H137.169ZM144.343 63.456H142.607V66.816C142.607 67.1053 142.672 67.3153 142.803 67.446C142.933 67.5673 143.125 67.6373 143.377 67.656C143.638 67.6653 143.96 67.6607 144.343 67.642V69C143.185 69.14 142.355 69.042 141.851 68.706C141.347 68.3607 141.095 67.7307 141.095 66.816V63.456H139.807V62H141.095V60.488L142.607 60.04V62H144.343V63.456ZM146.812 63.932C146.812 64.1653 146.938 64.352 147.19 64.492C147.452 64.6227 147.764 64.7393 148.128 64.842C148.502 64.9353 148.875 65.0473 149.248 65.178C149.622 65.3087 149.934 65.5327 150.186 65.85C150.448 66.158 150.578 66.55 150.578 67.026C150.578 67.698 150.317 68.2253 149.794 68.608C149.281 68.9907 148.632 69.182 147.848 69.182C147.158 69.182 146.565 69.0373 146.07 68.748C145.576 68.4587 145.216 68.0573 144.992 67.544L146.294 66.788C146.537 67.46 147.055 67.796 147.848 67.796C148.642 67.796 149.038 67.5347 149.038 67.012C149.038 66.788 148.908 66.606 148.646 66.466C148.394 66.326 148.082 66.2093 147.708 66.116C147.344 66.0133 146.976 65.8967 146.602 65.766C146.229 65.6353 145.912 65.4207 145.65 65.122C145.398 64.814 145.272 64.4267 145.272 63.96C145.272 63.316 145.515 62.798 146 62.406C146.495 62.014 147.106 61.818 147.834 61.818C148.413 61.818 148.926 61.9487 149.374 62.21C149.832 62.462 150.182 62.8167 150.424 63.274L149.15 63.988C148.908 63.456 148.469 63.19 147.834 63.19C147.545 63.19 147.302 63.2553 147.106 63.386C146.91 63.5073 146.812 63.6893 146.812 63.932ZM156.765 63.932C156.765 64.1653 156.891 64.352 157.143 64.492C157.405 64.6227 157.717 64.7393 158.081 64.842C158.455 64.9353 158.828 65.0473 159.201 65.178C159.575 65.3087 159.887 65.5327 160.139 65.85C160.401 66.158 160.531 66.55 160.531 67.026C160.531 67.698 160.27 68.2253 159.747 68.608C159.234 68.9907 158.585 69.182 157.801 69.182C157.111 69.182 156.518 69.0373 156.023 68.748C155.529 68.4587 155.169 68.0573 154.945 67.544L156.247 66.788C156.49 67.46 157.008 67.796 157.801 67.796C158.595 67.796 158.991 67.5347 158.991 67.012C158.991 66.788 158.861 66.606 158.599 66.466C158.347 66.326 158.035 66.2093 157.661 66.116C157.297 66.0133 156.929 65.8967 156.555 65.766C156.182 65.6353 155.865 65.4207 155.603 65.122C155.351 64.814 155.225 64.4267 155.225 63.96C155.225 63.316 155.468 62.798 155.953 62.406C156.448 62.014 157.059 61.818 157.787 61.818C158.366 61.818 158.879 61.9487 159.327 62.21C159.785 62.462 160.135 62.8167 160.377 63.274L159.103 63.988C158.861 63.456 158.422 63.19 157.787 63.19C157.498 63.19 157.255 63.2553 157.059 63.386C156.863 63.5073 156.765 63.6893 156.765 63.932ZM167.227 62H168.739V69H167.227V67.992C166.657 68.7853 165.841 69.182 164.777 69.182C163.815 69.182 162.994 68.8273 162.313 68.118C161.631 67.3993 161.291 66.5267 161.291 65.5C161.291 64.464 161.631 63.5913 162.313 62.882C162.994 62.1727 163.815 61.818 164.777 61.818C165.841 61.818 166.657 62.21 167.227 62.994V62ZM163.433 67.11C163.853 67.53 164.38 67.74 165.015 67.74C165.649 67.74 166.177 67.53 166.597 67.11C167.017 66.6807 167.227 66.144 167.227 65.5C167.227 64.856 167.017 64.324 166.597 63.904C166.177 63.4747 165.649 63.26 165.015 63.26C164.38 63.26 163.853 63.4747 163.433 63.904C163.013 64.324 162.803 64.856 162.803 65.5C162.803 66.144 163.013 66.6807 163.433 67.11ZM175.219 62H176.829L174.141 69.224C173.469 71.0347 172.33 71.8933 170.725 71.8V70.386C171.201 70.414 171.584 70.3113 171.873 70.078C172.162 69.854 172.4 69.4993 172.587 69.014L172.657 68.874L169.689 62H171.341L173.427 67.082L175.219 62ZM186.819 62H188.331V69H186.819V67.992C186.249 68.7853 185.433 69.182 184.369 69.182C183.407 69.182 182.586 68.8273 181.905 68.118C181.223 67.3993 180.883 66.5267 180.883 65.5C180.883 64.464 181.223 63.5913 181.905 62.882C182.586 62.1727 183.407 61.818 184.369 61.818C185.433 61.818 186.249 62.21 186.819 62.994V62ZM183.025 67.11C183.445 67.53 183.972 67.74 184.607 67.74C185.241 67.74 185.769 67.53 186.189 67.11C186.609 66.6807 186.819 66.144 186.819 65.5C186.819 64.856 186.609 64.324 186.189 63.904C185.769 63.4747 185.241 63.26 184.607 63.26C183.972 63.26 183.445 63.4747 183.025 63.904C182.605 64.324 182.395 64.856 182.395 65.5C182.395 66.144 182.605 66.6807 183.025 67.11ZM195.637 59.2H197.149V69H195.637V67.992C195.068 68.7853 194.251 69.182 193.187 69.182C192.226 69.182 191.404 68.8273 190.723 68.118C190.042 67.3993 189.701 66.5267 189.701 65.5C189.701 64.464 190.042 63.5913 190.723 62.882C191.404 62.1727 192.226 61.818 193.187 61.818C194.251 61.818 195.068 62.21 195.637 62.994V59.2ZM191.843 67.11C192.263 67.53 192.79 67.74 193.425 67.74C194.06 67.74 194.587 67.53 195.007 67.11C195.427 66.6807 195.637 66.144 195.637 65.5C195.637 64.856 195.427 64.324 195.007 63.904C194.587 63.4747 194.06 63.26 193.425 63.26C192.79 63.26 192.263 63.4747 191.843 63.904C191.423 64.324 191.213 64.856 191.213 65.5C191.213 66.144 191.423 66.6807 191.843 67.11ZM203.657 62H205.309L202.579 69H200.829L198.099 62H199.751L201.711 67.32L203.657 62ZM207.695 60.67C207.508 60.8567 207.284 60.95 207.023 60.95C206.761 60.95 206.533 60.8567 206.337 60.67C206.15 60.474 206.057 60.2453 206.057 59.984C206.057 59.7227 206.15 59.4987 206.337 59.312C206.523 59.116 206.752 59.018 207.023 59.018C207.293 59.018 207.522 59.116 207.709 59.312C207.895 59.4987 207.989 59.7227 207.989 59.984C207.989 60.2453 207.891 60.474 207.695 60.67ZM206.267 69V62H207.779V69H206.267ZM212.838 69.182C211.784 69.182 210.902 68.8273 210.192 68.118C209.492 67.4087 209.142 66.536 209.142 65.5C209.142 64.4547 209.492 63.582 210.192 62.882C210.902 62.1727 211.784 61.818 212.838 61.818C213.52 61.818 214.14 61.9813 214.7 62.308C215.26 62.6347 215.68 63.0733 215.96 63.624L214.658 64.38C214.5 64.044 214.257 63.7827 213.93 63.596C213.613 63.4 213.244 63.302 212.824 63.302C212.208 63.302 211.69 63.512 211.27 63.932C210.86 64.352 210.654 64.8747 210.654 65.5C210.654 66.1253 210.86 66.648 211.27 67.068C211.69 67.488 212.208 67.698 212.824 67.698C213.235 67.698 213.604 67.6 213.93 67.404C214.266 67.208 214.518 66.9467 214.686 66.62L215.988 67.362C215.69 67.922 215.26 68.3653 214.7 68.692C214.14 69.0187 213.52 69.182 212.838 69.182ZM218.162 66.144C218.274 66.676 218.531 67.0867 218.932 67.376C219.333 67.656 219.823 67.796 220.402 67.796C221.205 67.796 221.807 67.5067 222.208 66.928L223.454 67.656C222.763 68.6733 221.741 69.182 220.388 69.182C219.249 69.182 218.33 68.8367 217.63 68.146C216.93 67.446 216.58 66.564 216.58 65.5C216.58 64.4547 216.925 63.582 217.616 62.882C218.307 62.1727 219.193 61.818 220.276 61.818C221.303 61.818 222.143 62.1773 222.796 62.896C223.459 63.6147 223.79 64.4873 223.79 65.514C223.79 65.6727 223.771 65.8827 223.734 66.144H218.162ZM218.148 64.912H222.264C222.161 64.3427 221.923 63.9133 221.55 63.624C221.186 63.3347 220.757 63.19 220.262 63.19C219.702 63.19 219.235 63.344 218.862 63.652C218.489 63.96 218.251 64.38 218.148 64.912ZM232.526 63.456H230.79V66.816C230.79 67.1053 230.856 67.3153 230.986 67.446C231.117 67.5673 231.308 67.6373 231.56 67.656C231.822 67.6653 232.144 67.6607 232.526 67.642V69C231.369 69.14 230.538 69.042 230.034 68.706C229.53 68.3607 229.278 67.7307 229.278 66.816V63.456H227.99V62H229.278V60.488L230.79 60.04V62H232.526V63.456ZM234.801 66.144C234.913 66.676 235.169 67.0867 235.571 67.376C235.972 67.656 236.462 67.796 237.041 67.796C237.843 67.796 238.445 67.5067 238.847 66.928L240.093 67.656C239.402 68.6733 238.38 69.182 237.027 69.182C235.888 69.182 234.969 68.8367 234.269 68.146C233.569 67.446 233.219 66.564 233.219 65.5C233.219 64.4547 233.564 63.582 234.255 62.882C234.945 62.1727 235.832 61.818 236.915 61.818C237.941 61.818 238.781 62.1773 239.435 62.896C240.097 63.6147 240.429 64.4873 240.429 65.514C240.429 65.6727 240.41 65.8827 240.373 66.144H234.801ZM234.787 64.912H238.903C238.8 64.3427 238.562 63.9133 238.189 63.624C237.825 63.3347 237.395 63.19 236.901 63.19C236.341 63.19 235.874 63.344 235.501 63.652C235.127 63.96 234.889 64.38 234.787 64.912ZM245.441 61.818C246.244 61.818 246.892 62.0747 247.387 62.588C247.882 63.1013 248.129 63.806 248.129 64.702V69H246.617V64.856C246.617 64.3333 246.477 63.932 246.197 63.652C245.917 63.372 245.534 63.232 245.049 63.232C244.517 63.232 244.088 63.4 243.761 63.736C243.434 64.0627 243.271 64.5667 243.271 65.248V69H241.759V62H243.271V62.896C243.728 62.1773 244.452 61.818 245.441 61.818ZM257.219 61.818C258.18 61.818 259.002 62.1727 259.683 62.882C260.364 63.5913 260.705 64.464 260.705 65.5C260.705 66.5267 260.364 67.3993 259.683 68.118C259.002 68.8273 258.18 69.182 257.219 69.182C256.155 69.182 255.338 68.7853 254.769 67.992V69H253.257V59.2H254.769V62.994C255.338 62.21 256.155 61.818 257.219 61.818ZM255.399 67.11C255.819 67.53 256.346 67.74 256.981 67.74C257.616 67.74 258.143 67.53 258.563 67.11C258.983 66.6807 259.193 66.144 259.193 65.5C259.193 64.856 258.983 64.324 258.563 63.904C258.143 63.4747 257.616 63.26 256.981 63.26C256.346 63.26 255.819 63.4747 255.399 63.904C254.979 64.324 254.769 64.856 254.769 65.5C254.769 66.144 254.979 66.6807 255.399 67.11ZM263.265 66.144C263.377 66.676 263.634 67.0867 264.035 67.376C264.437 67.656 264.927 67.796 265.505 67.796C266.308 67.796 266.91 67.5067 267.311 66.928L268.557 67.656C267.867 68.6733 266.845 69.182 265.491 69.182C264.353 69.182 263.433 68.8367 262.733 68.146C262.033 67.446 261.683 66.564 261.683 65.5C261.683 64.4547 262.029 63.582 262.719 62.882C263.41 62.1727 264.297 61.818 265.379 61.818C266.406 61.818 267.246 62.1773 267.899 62.896C268.562 63.6147 268.893 64.4873 268.893 65.514C268.893 65.6727 268.875 65.8827 268.837 66.144H263.265ZM263.251 64.912H267.367C267.265 64.3427 267.027 63.9133 266.653 63.624C266.289 63.3347 265.86 63.19 265.365 63.19C264.805 63.19 264.339 63.344 263.965 63.652C263.592 63.96 263.354 64.38 263.251 64.912ZM273.673 60.474C272.572 60.3713 272.021 60.8333 272.021 61.86V62H273.673V63.456H272.021V69H270.509V63.456H269.445V62H270.509V61.86C270.509 60.8987 270.775 60.1707 271.307 59.676C271.848 59.172 272.637 58.9527 273.673 59.018V60.474ZM277.534 69.182C276.507 69.182 275.634 68.8273 274.916 68.118C274.197 67.4087 273.838 66.536 273.838 65.5C273.838 64.464 274.197 63.5913 274.916 62.882C275.634 62.1727 276.507 61.818 277.534 61.818C278.57 61.818 279.442 62.1727 280.152 62.882C280.87 63.5913 281.23 64.464 281.23 65.5C281.23 66.536 280.87 67.4087 280.152 68.118C279.442 68.8273 278.57 69.182 277.534 69.182ZM275.98 67.082C276.4 67.502 276.918 67.712 277.534 67.712C278.15 67.712 278.668 67.502 279.088 67.082C279.508 66.662 279.718 66.1347 279.718 65.5C279.718 64.8653 279.508 64.338 279.088 63.918C278.668 63.498 278.15 63.288 277.534 63.288C276.918 63.288 276.4 63.498 275.98 63.918C275.56 64.338 275.35 64.8653 275.35 65.5C275.35 66.1347 275.56 66.662 275.98 67.082ZM284.109 63.176C284.492 62.308 285.21 61.874 286.265 61.874V63.512C285.686 63.4747 285.182 63.6147 284.753 63.932C284.324 64.24 284.109 64.7533 284.109 65.472V69H282.597V62H284.109V63.176ZM288.244 66.144C288.356 66.676 288.613 67.0867 289.014 67.376C289.415 67.656 289.905 67.796 290.484 67.796C291.287 67.796 291.889 67.5067 292.29 66.928L293.536 67.656C292.845 68.6733 291.823 69.182 290.47 69.182C289.331 69.182 288.412 68.8367 287.712 68.146C287.012 67.446 286.662 66.564 286.662 65.5C286.662 64.4547 287.007 63.582 287.698 62.882C288.389 62.1727 289.275 61.818 290.358 61.818C291.385 61.818 292.225 62.1773 292.878 62.896C293.541 63.6147 293.872 64.4873 293.872 65.514C293.872 65.6727 293.853 65.8827 293.816 66.144H288.244ZM288.23 64.912H292.346C292.243 64.3427 292.005 63.9133 291.632 63.624C291.268 63.3347 290.839 63.19 290.344 63.19C289.784 63.19 289.317 63.344 288.944 63.652C288.571 63.96 288.333 64.38 288.23 64.912ZM52.882 91V80.78H54.394V91H52.882ZM59.4536 91.182C58.4269 91.182 57.5542 90.8273 56.8356 90.118C56.1169 89.4087 55.7576 88.536 55.7576 87.5C55.7576 86.464 56.1169 85.5913 56.8356 84.882C57.5542 84.1727 58.4269 83.818 59.4536 83.818C60.4896 83.818 61.3622 84.1727 62.0716 84.882C62.7902 85.5913 63.1496 86.464 63.1496 87.5C63.1496 88.536 62.7902 89.4087 62.0716 90.118C61.3622 90.8273 60.4896 91.182 59.4536 91.182ZM57.8996 89.082C58.3196 89.502 58.8376 89.712 59.4536 89.712C60.0696 89.712 60.5876 89.502 61.0076 89.082C61.4276 88.662 61.6376 88.1347 61.6376 87.5C61.6376 86.8653 61.4276 86.338 61.0076 85.918C60.5876 85.498 60.0696 85.288 59.4536 85.288C58.8376 85.288 58.3196 85.498 57.8996 85.918C57.4796 86.338 57.2696 86.8653 57.2696 87.5C57.2696 88.1347 57.4796 88.662 57.8996 89.082ZM68.9893 84H70.6413L67.9113 91H66.1613L63.4313 84H65.0833L67.0433 89.32L68.9893 84ZM72.5154 88.144C72.6274 88.676 72.884 89.0867 73.2854 89.376C73.6867 89.656 74.1767 89.796 74.7554 89.796C75.558 89.796 76.16 89.5067 76.5614 88.928L77.8074 89.656C77.1167 90.6733 76.0947 91.182 74.7414 91.182C73.6027 91.182 72.6834 90.8367 71.9834 90.146C71.2834 89.446 70.9334 88.564 70.9334 87.5C70.9334 86.4547 71.2787 85.582 71.9694 84.882C72.66 84.1727 73.5467 83.818 74.6294 83.818C75.656 83.818 76.496 84.1773 77.1494 84.896C77.812 85.6147 78.1434 86.4873 78.1434 87.514C78.1434 87.6727 78.1247 87.8827 78.0874 88.144H72.5154ZM72.5014 86.912H76.6174C76.5147 86.3427 76.2767 85.9133 75.9034 85.624C75.5394 85.3347 75.11 85.19 74.6154 85.19C74.0554 85.19 73.5887 85.344 73.2154 85.652C72.842 85.96 72.604 86.38 72.5014 86.912ZM80.9858 85.176C81.3685 84.308 82.0871 83.874 83.1418 83.874V85.512C82.5631 85.4747 82.0591 85.6147 81.6298 85.932C81.2005 86.24 80.9858 86.7533 80.9858 87.472V91H79.4738V84H80.9858V85.176ZM85.3709 85.932C85.3709 86.1653 85.4969 86.352 85.7489 86.492C86.0102 86.6227 86.3229 86.7393 86.6869 86.842C87.0602 86.9353 87.4335 87.0473 87.8069 87.178C88.1802 87.3087 88.4929 87.5327 88.7449 87.85C89.0062 88.158 89.1369 88.55 89.1369 89.026C89.1369 89.698 88.8755 90.2253 88.3529 90.608C87.8395 90.9907 87.1909 91.182 86.4069 91.182C85.7162 91.182 85.1235 91.0373 84.6289 90.748C84.1342 90.4587 83.7749 90.0573 83.5509 89.544L84.8529 88.788C85.0955 89.46 85.6135 89.796 86.4069 89.796C87.2002 89.796 87.5969 89.5347 87.5969 89.012C87.5969 88.788 87.4662 88.606 87.2049 88.466C86.9529 88.326 86.6402 88.2093 86.2669 88.116C85.9029 88.0133 85.5342 87.8967 85.1609 87.766C84.7875 87.6353 84.4702 87.4207 84.2089 87.122C83.9569 86.814 83.8309 86.4267 83.8309 85.96C83.8309 85.316 84.0735 84.798 84.5589 84.406C85.0535 84.014 85.6649 83.818 86.3929 83.818C86.9715 83.818 87.4849 83.9487 87.9329 84.21C88.3902 84.462 88.7402 84.8167 88.9829 85.274L87.7089 85.988C87.4662 85.456 87.0275 85.19 86.3929 85.19C86.1035 85.19 85.8609 85.2553 85.6649 85.386C85.4689 85.5073 85.3709 85.6893 85.3709 85.932ZM95.394 82.67C95.2073 82.8567 94.9833 82.95 94.722 82.95C94.4607 82.95 94.232 82.8567 94.036 82.67C93.8493 82.474 93.756 82.2453 93.756 81.984C93.756 81.7227 93.8493 81.4987 94.036 81.312C94.2227 81.116 94.4513 81.018 94.722 81.018C94.9927 81.018 95.2213 81.116 95.408 81.312C95.5947 81.4987 95.688 81.7227 95.688 81.984C95.688 82.2453 95.59 82.474 95.394 82.67ZM93.966 91V84H95.478V91H93.966ZM100.916 83.818C101.718 83.818 102.367 84.0747 102.862 84.588C103.356 85.1013 103.604 85.806 103.604 86.702V91H102.092V86.856C102.092 86.3333 101.952 85.932 101.672 85.652C101.392 85.372 101.009 85.232 100.524 85.232C99.9916 85.232 99.5622 85.4 99.2356 85.736C98.9089 86.0627 98.7456 86.5667 98.7456 87.248V91H97.2336V84H98.7456V84.896C99.2029 84.1773 99.9262 83.818 100.916 83.818ZM108.914 83.818C109.716 83.818 110.365 84.0747 110.86 84.588C111.354 85.1013 111.602 85.806 111.602 86.702V91H110.09V86.856C110.09 86.3333 109.95 85.932 109.67 85.652C109.39 85.372 109.007 85.232 108.522 85.232C107.99 85.232 107.56 85.4 107.234 85.736C106.907 86.0627 106.744 86.5667 106.744 87.248V91H105.232V84H106.744V84.896C107.201 84.1773 107.924 83.818 108.914 83.818ZM118.774 84H120.286V91H118.774V89.992C118.204 90.7853 117.388 91.182 116.324 91.182C115.362 91.182 114.541 90.8273 113.86 90.118C113.178 89.3993 112.838 88.5267 112.838 87.5C112.838 86.464 113.178 85.5913 113.86 84.882C114.541 84.1727 115.362 83.818 116.324 83.818C117.388 83.818 118.204 84.21 118.774 84.994V84ZM114.98 89.11C115.4 89.53 115.927 89.74 116.562 89.74C117.196 89.74 117.724 89.53 118.144 89.11C118.564 88.6807 118.774 88.144 118.774 87.5C118.774 86.856 118.564 86.324 118.144 85.904C117.724 85.4747 117.196 85.26 116.562 85.26C115.927 85.26 115.4 85.4747 114.98 85.904C114.56 86.324 114.35 86.856 114.35 87.5C114.35 88.144 114.56 88.6807 114.98 89.11ZM125.954 85.456H124.218V88.816C124.218 89.1053 124.283 89.3153 124.414 89.446C124.545 89.5673 124.736 89.6373 124.988 89.656C125.249 89.6653 125.571 89.6607 125.954 89.642V91C124.797 91.14 123.966 91.042 123.462 90.706C122.958 90.3607 122.706 89.7307 122.706 88.816V85.456H121.418V84H122.706V82.488L124.218 82.04V84H125.954V85.456ZM128.228 88.144C128.34 88.676 128.597 89.0867 128.998 89.376C129.4 89.656 129.89 89.796 130.468 89.796C131.271 89.796 131.873 89.5067 132.274 88.928L133.52 89.656C132.83 90.6733 131.808 91.182 130.454 91.182C129.316 91.182 128.396 90.8367 127.696 90.146C126.996 89.446 126.646 88.564 126.646 87.5C126.646 86.4547 126.992 85.582 127.682 84.882C128.373 84.1727 129.26 83.818 130.342 83.818C131.369 83.818 132.209 84.1773 132.862 84.896C133.525 85.6147 133.856 86.4873 133.856 87.514C133.856 87.6727 133.838 87.8827 133.8 88.144H128.228ZM128.214 86.912H132.33C132.228 86.3427 131.99 85.9133 131.616 85.624C131.252 85.3347 130.823 85.19 130.328 85.19C129.768 85.19 129.302 85.344 128.928 85.652C128.555 85.96 128.317 86.38 128.214 86.912ZM144.231 84H145.743V91H144.231V89.992C143.661 90.7853 142.845 91.182 141.781 91.182C140.819 91.182 139.998 90.8273 139.317 90.118C138.635 89.3993 138.295 88.5267 138.295 87.5C138.295 86.464 138.635 85.5913 139.317 84.882C139.998 84.1727 140.819 83.818 141.781 83.818C142.845 83.818 143.661 84.21 144.231 84.994V84ZM140.437 89.11C140.857 89.53 141.384 89.74 142.019 89.74C142.653 89.74 143.181 89.53 143.601 89.11C144.021 88.6807 144.231 88.144 144.231 87.5C144.231 86.856 144.021 86.324 143.601 85.904C143.181 85.4747 142.653 85.26 142.019 85.26C141.384 85.26 140.857 85.4747 140.437 85.904C140.017 86.324 139.807 86.856 139.807 87.5C139.807 88.144 140.017 88.6807 140.437 89.11ZM153.049 81.2H154.561V91H153.049V89.992C152.48 90.7853 151.663 91.182 150.599 91.182C149.638 91.182 148.816 90.8273 148.135 90.118C147.454 89.3993 147.113 88.5267 147.113 87.5C147.113 86.464 147.454 85.5913 148.135 84.882C148.816 84.1727 149.638 83.818 150.599 83.818C151.663 83.818 152.48 84.21 153.049 84.994V81.2ZM149.255 89.11C149.675 89.53 150.202 89.74 150.837 89.74C151.472 89.74 151.999 89.53 152.419 89.11C152.839 88.6807 153.049 88.144 153.049 87.5C153.049 86.856 152.839 86.324 152.419 85.904C151.999 85.4747 151.472 85.26 150.837 85.26C150.202 85.26 149.675 85.4747 149.255 85.904C148.835 86.324 148.625 86.856 148.625 87.5C148.625 88.144 148.835 88.6807 149.255 89.11ZM161.867 81.2H163.379V91H161.867V89.992C161.298 90.7853 160.481 91.182 159.417 91.182C158.456 91.182 157.635 90.8273 156.953 90.118C156.272 89.3993 155.931 88.5267 155.931 87.5C155.931 86.464 156.272 85.5913 156.953 84.882C157.635 84.1727 158.456 83.818 159.417 83.818C160.481 83.818 161.298 84.21 161.867 84.994V81.2ZM158.073 89.11C158.493 89.53 159.021 89.74 159.655 89.74C160.29 89.74 160.817 89.53 161.237 89.11C161.657 88.6807 161.867 88.144 161.867 87.5C161.867 86.856 161.657 86.324 161.237 85.904C160.817 85.4747 160.29 85.26 159.655 85.26C159.021 85.26 158.493 85.4747 158.073 85.904C157.653 86.324 157.443 86.856 157.443 87.5C157.443 88.144 157.653 88.6807 158.073 89.11ZM166.794 90.86C166.588 91.0653 166.341 91.168 166.052 91.168C165.762 91.168 165.515 91.0653 165.31 90.86C165.104 90.6547 165.002 90.4073 165.002 90.118C165.002 89.8287 165.1 89.5813 165.296 89.376C165.501 89.1707 165.753 89.068 166.052 89.068C166.341 89.068 166.588 89.1707 166.794 89.376C166.999 89.5813 167.102 89.8287 167.102 90.118C167.102 90.4073 166.999 90.6547 166.794 90.86Z" fill="#8476AA"/>
<path opacity="0.3" fill-rule="evenodd" clip-rule="evenodd" d="M3.27427 18.3143C3.14289 18.6428 3.38477 19 3.73851 19H8.49999C8.77613 19 8.99999 18.7762 8.99999 18.5V6.59631C8.99999 6.04578 8.24021 5.89947 8.03575 6.41062L3.27427 18.3143Z" fill="#99EFD0"/>
<path fill-rule="evenodd" clip-rule="evenodd" d="M20.7257 18.3143C20.8571 18.6427 20.6152 19 20.2615 19H15.5C15.2239 19 15 18.7761 15 18.5V6.59629C15 6.04576 15.7598 5.89944 15.9642 6.4106L20.7257 18.3143Z" fill="#99EFD0"/>
<rect opacity="0.3" x="11" y="2" width="2" height="20" rx="1" fill="#99EFD0"/>
</svg>
