<svg width="299" height="106" viewBox="0 0 299 106" fill="none" xmlns="http://www.w3.org/2000/svg">
<path d="M57.868 3.4C59.08 3.4 60.1 3.808 60.928 4.624C61.756 5.44 62.17 6.442 62.17 7.63C62.17 8.818 61.756 9.82 60.928 10.636C60.1 11.452 59.08 11.86 57.868 11.86H55.654V16H53.17V3.4H57.868ZM57.868 9.538C58.396 9.538 58.834 9.358 59.182 8.998C59.53 8.626 59.704 8.17 59.704 7.63C59.704 7.078 59.53 6.622 59.182 6.262C58.834 5.902 58.396 5.722 57.868 5.722H55.654V9.538H57.868ZM70.7495 14.884C69.8255 15.796 68.6975 16.252 67.3655 16.252C66.0335 16.252 64.9055 15.796 63.9815 14.884C63.0695 13.96 62.6135 12.832 62.6135 11.5C62.6135 10.168 63.0695 9.046 63.9815 8.134C64.9055 7.21 66.0335 6.748 67.3655 6.748C68.6975 6.748 69.8255 7.21 70.7495 8.134C71.6735 9.046 72.1355 10.168 72.1355 11.5C72.1355 12.832 71.6735 13.96 70.7495 14.884ZM65.6195 13.282C66.0875 13.75 66.6695 13.984 67.3655 13.984C68.0615 13.984 68.6435 13.75 69.1115 13.282C69.5795 12.814 69.8135 12.22 69.8135 11.5C69.8135 10.78 69.5795 10.186 69.1115 9.718C68.6435 9.25 68.0615 9.016 67.3655 9.016C66.6695 9.016 66.0875 9.25 65.6195 9.718C65.1635 10.186 64.9355 10.78 64.9355 11.5C64.9355 12.22 65.1635 12.814 65.6195 13.282ZM75.7177 9.556C75.7177 9.796 75.8737 9.994 76.1857 10.15C76.5097 10.294 76.8997 10.426 77.3557 10.546C77.8117 10.654 78.2677 10.798 78.7237 10.978C79.1797 11.146 79.5637 11.434 79.8757 11.842C80.1997 12.25 80.3617 12.76 80.3617 13.372C80.3617 14.296 80.0137 15.01 79.3177 15.514C78.6337 16.006 77.7757 16.252 76.7437 16.252C74.8957 16.252 73.6357 15.538 72.9637 14.11L74.9797 12.976C75.2437 13.756 75.8317 14.146 76.7437 14.146C77.5717 14.146 77.9857 13.888 77.9857 13.372C77.9857 13.132 77.8237 12.94 77.4997 12.796C77.1877 12.64 76.8037 12.502 76.3477 12.382C75.8917 12.262 75.4357 12.112 74.9797 11.932C74.5237 11.752 74.1337 11.47 73.8097 11.086C73.4977 10.69 73.3417 10.198 73.3417 9.61C73.3417 8.722 73.6657 8.026 74.3137 7.522C74.9737 7.006 75.7897 6.748 76.7617 6.748C77.4937 6.748 78.1597 6.916 78.7597 7.252C79.3597 7.576 79.8337 8.044 80.1817 8.656L78.2017 9.736C77.9137 9.124 77.4337 8.818 76.7617 8.818C76.4617 8.818 76.2097 8.884 76.0057 9.016C75.8137 9.148 75.7177 9.328 75.7177 9.556ZM83.5224 9.556C83.5224 9.796 83.6784 9.994 83.9904 10.15C84.3144 10.294 84.7044 10.426 85.1604 10.546C85.6164 10.654 86.0724 10.798 86.5284 10.978C86.9844 11.146 87.3684 11.434 87.6804 11.842C88.0044 12.25 88.1664 12.76 88.1664 13.372C88.1664 14.296 87.8184 15.01 87.1224 15.514C86.4384 16.006 85.5804 16.252 84.5484 16.252C82.7004 16.252 81.4404 15.538 80.7684 14.11L82.7844 12.976C83.0484 13.756 83.6364 14.146 84.5484 14.146C85.3764 14.146 85.7904 13.888 85.7904 13.372C85.7904 13.132 85.6284 12.94 85.3044 12.796C84.9924 12.64 84.6084 12.502 84.1524 12.382C83.6964 12.262 83.2404 12.112 82.7844 11.932C82.3284 11.752 81.9384 11.47 81.6144 11.086C81.3024 10.69 81.1464 10.198 81.1464 9.61C81.1464 8.722 81.4704 8.026 82.1184 7.522C82.7784 7.006 83.5944 6.748 84.5664 6.748C85.2984 6.748 85.9644 6.916 86.5644 7.252C87.1644 7.576 87.6384 8.044 87.9864 8.656L86.0064 9.736C85.7184 9.124 85.2384 8.818 84.5664 8.818C84.2664 8.818 84.0144 8.884 83.8104 9.016C83.6184 9.148 83.5224 9.328 83.5224 9.556ZM90.8117 5.92C90.4277 5.92 90.0917 5.782 89.8037 5.506C89.5277 5.218 89.3897 4.882 89.3897 4.498C89.3897 4.114 89.5277 3.778 89.8037 3.49C90.0917 3.202 90.4277 3.058 90.8117 3.058C91.2077 3.058 91.5437 3.202 91.8197 3.49C92.1077 3.778 92.2517 4.114 92.2517 4.498C92.2517 4.882 92.1077 5.218 91.8197 5.506C91.5437 5.782 91.2077 5.92 90.8117 5.92ZM89.6597 16V7H91.9817V16H89.6597ZM99.3449 6.748C100.557 6.748 101.589 7.21 102.441 8.134C103.305 9.046 103.737 10.168 103.737 11.5C103.737 12.832 103.305 13.96 102.441 14.884C101.589 15.796 100.557 16.252 99.3449 16.252C98.0849 16.252 97.1129 15.814 96.4289 14.938V16H94.1069V3.4H96.4289V8.062C97.1129 7.186 98.0849 6.748 99.3449 6.748ZM97.1309 13.336C97.5989 13.804 98.1929 14.038 98.9129 14.038C99.6329 14.038 100.227 13.804 100.695 13.336C101.175 12.856 101.415 12.244 101.415 11.5C101.415 10.756 101.175 10.15 100.695 9.682C100.227 9.202 99.6329 8.962 98.9129 8.962C98.1929 8.962 97.5989 9.202 97.1309 9.682C96.6629 10.15 96.4289 10.756 96.4289 11.5C96.4289 12.244 96.6629 12.856 97.1309 13.336ZM105.375 16V2.86H107.697V16H105.375ZM111.784 12.454C112.096 13.582 112.942 14.146 114.322 14.146C115.21 14.146 115.882 13.846 116.338 13.246L118.21 14.326C117.322 15.61 116.014 16.252 114.286 16.252C112.798 16.252 111.604 15.802 110.704 14.902C109.804 14.002 109.354 12.868 109.354 11.5C109.354 10.144 109.798 9.016 110.686 8.116C111.574 7.204 112.714 6.748 114.106 6.748C115.426 6.748 116.512 7.204 117.364 8.116C118.228 9.028 118.66 10.156 118.66 11.5C118.66 11.8 118.63 12.118 118.57 12.454H111.784ZM111.748 10.654H116.338C116.206 10.042 115.93 9.586 115.51 9.286C115.102 8.986 114.634 8.836 114.106 8.836C113.482 8.836 112.966 8.998 112.558 9.322C112.15 9.634 111.88 10.078 111.748 10.654ZM130.019 6.748C131.231 6.748 132.263 7.21 133.115 8.134C133.979 9.046 134.411 10.168 134.411 11.5C134.411 12.832 133.979 13.96 133.115 14.884C132.263 15.796 131.231 16.252 130.019 16.252C128.759 16.252 127.787 15.814 127.103 14.938V19.6H124.781V7H127.103V8.062C127.787 7.186 128.759 6.748 130.019 6.748ZM127.805 13.336C128.273 13.804 128.867 14.038 129.587 14.038C130.307 14.038 130.901 13.804 131.369 13.336C131.849 12.856 132.089 12.244 132.089 11.5C132.089 10.756 131.849 10.15 131.369 9.682C130.901 9.202 130.307 8.962 129.587 8.962C128.867 8.962 128.273 9.202 127.805 9.682C127.337 10.15 127.103 10.756 127.103 11.5C127.103 12.244 127.337 12.856 127.805 13.336ZM138.37 8.548C138.586 7.972 138.94 7.54 139.432 7.252C139.936 6.964 140.494 6.82 141.106 6.82V9.412C140.398 9.328 139.762 9.472 139.198 9.844C138.646 10.216 138.37 10.834 138.37 11.698V16H136.048V7H138.37V8.548ZM149.798 14.884C148.874 15.796 147.746 16.252 146.414 16.252C145.082 16.252 143.954 15.796 143.03 14.884C142.118 13.96 141.662 12.832 141.662 11.5C141.662 10.168 142.118 9.046 143.03 8.134C143.954 7.21 145.082 6.748 146.414 6.748C147.746 6.748 148.874 7.21 149.798 8.134C150.722 9.046 151.184 10.168 151.184 11.5C151.184 12.832 150.722 13.96 149.798 14.884ZM144.668 13.282C145.136 13.75 145.718 13.984 146.414 13.984C147.11 13.984 147.692 13.75 148.16 13.282C148.628 12.814 148.862 12.22 148.862 11.5C148.862 10.78 148.628 10.186 148.16 9.718C147.692 9.25 147.11 9.016 146.414 9.016C145.718 9.016 145.136 9.25 144.668 9.718C144.212 10.186 143.984 10.78 143.984 11.5C143.984 12.22 144.212 12.814 144.668 13.282ZM157.102 16.252C155.746 16.252 154.612 15.796 153.7 14.884C152.8 13.972 152.35 12.844 152.35 11.5C152.35 10.156 152.8 9.028 153.7 8.116C154.612 7.204 155.746 6.748 157.102 6.748C157.978 6.748 158.776 6.958 159.496 7.378C160.216 7.798 160.762 8.362 161.134 9.07L159.136 10.24C158.956 9.868 158.68 9.574 158.308 9.358C157.948 9.142 157.54 9.034 157.084 9.034C156.388 9.034 155.812 9.268 155.356 9.736C154.9 10.192 154.672 10.78 154.672 11.5C154.672 12.208 154.9 12.796 155.356 13.264C155.812 13.72 156.388 13.948 157.084 13.948C157.552 13.948 157.966 13.846 158.326 13.642C158.698 13.426 158.974 13.132 159.154 12.76L161.17 13.912C160.774 14.62 160.216 15.19 159.496 15.622C158.776 16.042 157.978 16.252 157.102 16.252ZM168.408 7H170.73V16H168.408V14.992C167.844 15.832 166.95 16.252 165.726 16.252C164.742 16.252 163.926 15.922 163.278 15.262C162.642 14.602 162.324 13.69 162.324 12.526V7H164.646V12.238C164.646 12.838 164.808 13.3 165.132 13.624C165.456 13.936 165.888 14.092 166.428 14.092C167.028 14.092 167.508 13.906 167.868 13.534C168.228 13.162 168.408 12.604 168.408 11.86V7ZM175.179 8.548C175.395 7.972 175.749 7.54 176.241 7.252C176.745 6.964 177.303 6.82 177.915 6.82V9.412C177.207 9.328 176.571 9.472 176.007 9.844C175.455 10.216 175.179 10.834 175.179 11.698V16H172.857V7H175.179V8.548ZM180.901 12.454C181.213 13.582 182.059 14.146 183.439 14.146C184.327 14.146 184.999 13.846 185.455 13.246L187.327 14.326C186.439 15.61 185.131 16.252 183.403 16.252C181.915 16.252 180.721 15.802 179.821 14.902C178.921 14.002 178.471 12.868 178.471 11.5C178.471 10.144 178.915 9.016 179.803 8.116C180.691 7.204 181.831 6.748 183.223 6.748C184.543 6.748 185.629 7.204 186.481 8.116C187.345 9.028 187.777 10.156 187.777 11.5C187.777 11.8 187.747 12.118 187.687 12.454H180.901ZM180.865 10.654H185.455C185.323 10.042 185.047 9.586 184.627 9.286C184.219 8.986 183.751 8.836 183.223 8.836C182.599 8.836 182.083 8.998 181.675 9.322C181.267 9.634 180.997 10.078 180.865 10.654ZM196.15 3.4H198.472V16H196.15V14.938C195.466 15.814 194.494 16.252 193.234 16.252C192.022 16.252 190.984 15.796 190.12 14.884C189.268 13.96 188.842 12.832 188.842 11.5C188.842 10.168 189.268 9.046 190.12 8.134C190.984 7.21 192.022 6.748 193.234 6.748C194.494 6.748 195.466 7.186 196.15 8.062V3.4ZM191.866 13.336C192.346 13.804 192.946 14.038 193.666 14.038C194.386 14.038 194.98 13.804 195.448 13.336C195.916 12.856 196.15 12.244 196.15 11.5C196.15 10.756 195.916 10.15 195.448 9.682C194.98 9.202 194.386 8.962 193.666 8.962C192.946 8.962 192.346 9.202 191.866 9.682C191.398 10.15 191.164 10.756 191.164 11.5C191.164 12.244 191.398 12.856 191.866 13.336ZM210.243 9.232H208.209V12.976C208.209 13.288 208.287 13.516 208.443 13.66C208.599 13.804 208.827 13.888 209.127 13.912C209.427 13.924 209.799 13.918 210.243 13.894V16C208.647 16.18 207.519 16.03 206.859 15.55C206.211 15.07 205.887 14.212 205.887 12.976V9.232H204.321V7H205.887V5.182L208.209 4.48V7H210.243V9.232ZM214.343 8.548C214.559 7.972 214.913 7.54 215.405 7.252C215.909 6.964 216.467 6.82 217.079 6.82V9.412C216.371 9.328 215.735 9.472 215.171 9.844C214.619 10.216 214.343 10.834 214.343 11.698V16H212.021V7H214.343V8.548ZM219.589 5.92C219.205 5.92 218.869 5.782 218.581 5.506C218.305 5.218 218.167 4.882 218.167 4.498C218.167 4.114 218.305 3.778 218.581 3.49C218.869 3.202 219.205 3.058 219.589 3.058C219.985 3.058 220.321 3.202 220.597 3.49C220.885 3.778 221.029 4.114 221.029 4.498C221.029 4.882 220.885 5.218 220.597 5.506C220.321 5.782 219.985 5.92 219.589 5.92ZM218.437 16V7H220.759V16H218.437ZM227.726 5.38C226.454 5.284 225.818 5.794 225.818 6.91V7H227.726V9.232H225.818V16H223.496V9.232H222.2V7H223.496V6.91C223.496 5.638 223.85 4.672 224.558 4.012C225.266 3.352 226.322 3.064 227.726 3.148V5.38ZM228.791 16V2.86H231.113V16H228.791ZM234.39 5.92C234.006 5.92 233.67 5.782 233.382 5.506C233.106 5.218 232.968 4.882 232.968 4.498C232.968 4.114 233.106 3.778 233.382 3.49C233.67 3.202 234.006 3.058 234.39 3.058C234.786 3.058 235.122 3.202 235.398 3.49C235.686 3.778 235.83 4.114 235.83 4.498C235.83 4.882 235.686 5.218 235.398 5.506C235.122 5.782 234.786 5.92 234.39 5.92ZM233.238 16V7H235.56V16H233.238ZM242.689 6.748C243.673 6.748 244.483 7.078 245.119 7.738C245.767 8.398 246.091 9.31 246.091 10.474V16H243.769V10.762C243.769 10.162 243.607 9.706 243.283 9.394C242.959 9.07 242.527 8.908 241.987 8.908C241.387 8.908 240.907 9.094 240.547 9.466C240.187 9.838 240.007 10.396 240.007 11.14V16H237.685V7H240.007V8.008C240.571 7.168 241.465 6.748 242.689 6.748ZM254.968 7H257.236V15.568C257.236 16.96 256.774 18.022 255.85 18.754C254.938 19.486 253.834 19.852 252.538 19.852C251.566 19.852 250.708 19.666 249.964 19.294C249.232 18.922 248.668 18.376 248.272 17.656L250.252 16.522C250.708 17.362 251.494 17.782 252.61 17.782C253.342 17.782 253.918 17.59 254.338 17.206C254.758 16.822 254.968 16.276 254.968 15.568V14.596C254.284 15.508 253.324 15.964 252.088 15.964C250.816 15.964 249.748 15.52 248.884 14.632C248.032 13.732 247.606 12.64 247.606 11.356C247.606 10.084 248.038 8.998 248.902 8.098C249.766 7.198 250.828 6.748 252.088 6.748C253.324 6.748 254.284 7.204 254.968 8.116V7ZM250.63 13.138C251.11 13.594 251.716 13.822 252.448 13.822C253.18 13.822 253.78 13.594 254.248 13.138C254.728 12.67 254.968 12.076 254.968 11.356C254.968 10.648 254.728 10.066 254.248 9.61C253.78 9.142 253.18 8.908 252.448 8.908C251.716 8.908 251.11 9.142 250.63 9.61C250.162 10.066 249.928 10.648 249.928 11.356C249.928 12.076 250.162 12.67 250.63 13.138Z" fill="#99EFD0"/>
<path d="M55.052 47L52.28 37.2H53.974L56.032 44.858L58.258 37.2H59.742L61.954 44.858L64.012 37.2H65.706L62.934 47H61.072L59 39.846L56.914 47H55.052ZM67.2243 44.144C67.3363 44.676 67.593 45.0867 67.9943 45.376C68.3957 45.656 68.8857 45.796 69.4643 45.796C70.267 45.796 70.869 45.5067 71.2703 44.928L72.5163 45.656C71.8257 46.6733 70.8037 47.182 69.4503 47.182C68.3117 47.182 67.3923 46.8367 66.6923 46.146C65.9923 45.446 65.6423 44.564 65.6423 43.5C65.6423 42.4547 65.9877 41.582 66.6783 40.882C67.369 40.1727 68.2557 39.818 69.3383 39.818C70.365 39.818 71.205 40.1773 71.8583 40.896C72.521 41.6147 72.8523 42.4873 72.8523 43.514C72.8523 43.6727 72.8337 43.8827 72.7963 44.144H67.2243ZM67.2103 42.912H71.3263C71.2237 42.3427 70.9857 41.9133 70.6123 41.624C70.2483 41.3347 69.819 41.19 69.3243 41.19C68.7643 41.19 68.2977 41.344 67.9243 41.652C67.551 41.96 67.313 42.38 67.2103 42.912ZM85.3268 39.818C86.1201 39.818 86.7594 40.0747 87.2448 40.588C87.7301 41.1013 87.9728 41.792 87.9728 42.66V47H86.4608V42.758C86.4608 42.2727 86.3394 41.8993 86.0968 41.638C85.8541 41.3673 85.5228 41.232 85.1028 41.232C84.6361 41.232 84.2628 41.386 83.9828 41.694C83.7121 42.002 83.5768 42.464 83.5768 43.08V47H82.0648V42.758C82.0648 42.2727 81.9481 41.8993 81.7148 41.638C81.4908 41.3673 81.1688 41.232 80.7488 41.232C80.2914 41.232 79.9181 41.3907 79.6288 41.708C79.3394 42.016 79.1948 42.4733 79.1948 43.08V47H77.6828V40H79.1948V40.84C79.6428 40.1587 80.3101 39.818 81.1968 39.818C82.0928 39.818 82.7554 40.1867 83.1848 40.924C83.6514 40.1867 84.3654 39.818 85.3268 39.818ZM90.781 44.144C90.893 44.676 91.1497 45.0867 91.551 45.376C91.9523 45.656 92.4423 45.796 93.021 45.796C93.8237 45.796 94.4257 45.5067 94.827 44.928L96.073 45.656C95.3823 46.6733 94.3603 47.182 93.007 47.182C91.8683 47.182 90.949 46.8367 90.249 46.146C89.549 45.446 89.199 44.564 89.199 43.5C89.199 42.4547 89.5443 41.582 90.235 40.882C90.9257 40.1727 91.8123 39.818 92.895 39.818C93.9217 39.818 94.7617 40.1773 95.415 40.896C96.0777 41.6147 96.409 42.4873 96.409 43.514C96.409 43.6727 96.3903 43.8827 96.353 44.144H90.781ZM90.767 42.912H94.883C94.7803 42.3427 94.5423 41.9133 94.169 41.624C93.805 41.3347 93.3757 41.19 92.881 41.19C92.321 41.19 91.8543 41.344 91.481 41.652C91.1077 41.96 90.8697 42.38 90.767 42.912ZM102.751 41.176C103.134 40.308 103.853 39.874 104.907 39.874V41.512C104.329 41.4747 103.825 41.6147 103.395 41.932C102.966 42.24 102.751 42.7533 102.751 43.472V47H101.239V40H102.751V41.176ZM106.886 44.144C106.998 44.676 107.255 45.0867 107.656 45.376C108.058 45.656 108.548 45.796 109.126 45.796C109.929 45.796 110.531 45.5067 110.932 44.928L112.178 45.656C111.488 46.6733 110.466 47.182 109.112 47.182C107.974 47.182 107.054 46.8367 106.354 46.146C105.654 45.446 105.304 44.564 105.304 43.5C105.304 42.4547 105.65 41.582 106.34 40.882C107.031 40.1727 107.918 39.818 109 39.818C110.027 39.818 110.867 40.1773 111.52 40.896C112.183 41.6147 112.514 42.4873 112.514 43.514C112.514 43.6727 112.496 43.8827 112.458 44.144H106.886ZM106.872 42.912H110.988C110.886 42.3427 110.648 41.9133 110.274 41.624C109.91 41.3347 109.481 41.19 108.986 41.19C108.426 41.19 107.96 41.344 107.586 41.652C107.213 41.96 106.975 42.38 106.872 42.912ZM117.527 39.818C118.33 39.818 118.978 40.0747 119.473 40.588C119.968 41.1013 120.215 41.806 120.215 42.702V47H118.703V42.856C118.703 42.3333 118.563 41.932 118.283 41.652C118.003 41.372 117.62 41.232 117.135 41.232C116.603 41.232 116.174 41.4 115.847 41.736C115.52 42.0627 115.357 42.5667 115.357 43.248V47H113.845V40H115.357V40.896C115.814 40.1773 116.538 39.818 117.527 39.818ZM125.749 41.456H124.013V44.816C124.013 45.1053 124.078 45.3153 124.209 45.446C124.34 45.5673 124.531 45.6373 124.783 45.656C125.044 45.6653 125.366 45.6607 125.749 45.642V47C124.592 47.14 123.761 47.042 123.257 46.706C122.753 46.3607 122.501 45.7307 122.501 44.816V41.456H121.213V40H122.501V38.488L124.013 38.04V40H125.749V41.456ZM134.651 39.818C135.612 39.818 136.433 40.1727 137.115 40.882C137.796 41.5913 138.137 42.464 138.137 43.5C138.137 44.5267 137.796 45.3993 137.115 46.118C136.433 46.8273 135.612 47.182 134.651 47.182C133.587 47.182 132.77 46.7853 132.201 45.992V47H130.689V37.2H132.201V40.994C132.77 40.21 133.587 39.818 134.651 39.818ZM132.831 45.11C133.251 45.53 133.778 45.74 134.413 45.74C135.047 45.74 135.575 45.53 135.995 45.11C136.415 44.6807 136.625 44.144 136.625 43.5C136.625 42.856 136.415 42.324 135.995 41.904C135.575 41.4747 135.047 41.26 134.413 41.26C133.778 41.26 133.251 41.4747 132.831 41.904C132.411 42.324 132.201 42.856 132.201 43.5C132.201 44.144 132.411 44.6807 132.831 45.11ZM140.697 44.144C140.809 44.676 141.066 45.0867 141.467 45.376C141.868 45.656 142.358 45.796 142.937 45.796C143.74 45.796 144.342 45.5067 144.743 44.928L145.989 45.656C145.298 46.6733 144.276 47.182 142.923 47.182C141.784 47.182 140.865 46.8367 140.165 46.146C139.465 45.446 139.115 44.564 139.115 43.5C139.115 42.4547 139.46 41.582 140.151 40.882C140.842 40.1727 141.728 39.818 142.811 39.818C143.838 39.818 144.678 40.1773 145.331 40.896C145.994 41.6147 146.325 42.4873 146.325 43.514C146.325 43.6727 146.306 43.8827 146.269 44.144H140.697ZM140.683 42.912H144.799C144.696 42.3427 144.458 41.9133 144.085 41.624C143.721 41.3347 143.292 41.19 142.797 41.19C142.237 41.19 141.77 41.344 141.397 41.652C141.024 41.96 140.786 42.38 140.683 42.912ZM148.804 44.144C148.916 44.676 149.173 45.0867 149.574 45.376C149.976 45.656 150.466 45.796 151.044 45.796C151.847 45.796 152.449 45.5067 152.85 44.928L154.096 45.656C153.406 46.6733 152.384 47.182 151.03 47.182C149.892 47.182 148.972 46.8367 148.272 46.146C147.572 45.446 147.222 44.564 147.222 43.5C147.222 42.4547 147.568 41.582 148.258 40.882C148.949 40.1727 149.836 39.818 150.918 39.818C151.945 39.818 152.785 40.1773 153.438 40.896C154.101 41.6147 154.432 42.4873 154.432 43.514C154.432 43.6727 154.414 43.8827 154.376 44.144H148.804ZM148.79 42.912H152.906C152.804 42.3427 152.566 41.9133 152.192 41.624C151.828 41.3347 151.399 41.19 150.904 41.19C150.344 41.19 149.878 41.344 149.504 41.652C149.131 41.96 148.893 42.38 148.79 42.912ZM159.445 39.818C160.248 39.818 160.896 40.0747 161.391 40.588C161.886 41.1013 162.133 41.806 162.133 42.702V47H160.621V42.856C160.621 42.3333 160.481 41.932 160.201 41.652C159.921 41.372 159.538 41.232 159.053 41.232C158.521 41.232 158.092 41.4 157.765 41.736C157.438 42.0627 157.275 42.5667 157.275 43.248V47H155.763V40H157.275V40.896C157.732 40.1773 158.456 39.818 159.445 39.818ZM171.223 39.818C172.184 39.818 173.006 40.1773 173.687 40.896C174.368 41.6053 174.709 42.4733 174.709 43.5C174.709 44.536 174.368 45.4087 173.687 46.118C173.006 46.8273 172.184 47.182 171.223 47.182C170.159 47.182 169.342 46.79 168.773 46.006V49.8H167.261V40H168.773V41.008C169.342 40.2147 170.159 39.818 171.223 39.818ZM169.403 45.11C169.823 45.53 170.35 45.74 170.985 45.74C171.62 45.74 172.147 45.53 172.567 45.11C172.987 44.6807 173.197 44.144 173.197 43.5C173.197 42.856 172.987 42.324 172.567 41.904C172.147 41.4747 171.62 41.26 170.985 41.26C170.35 41.26 169.823 41.4747 169.403 41.904C168.983 42.324 168.773 42.856 168.773 43.5C168.773 44.144 168.983 44.6807 169.403 45.11ZM181.623 40H183.135V47H181.623V45.992C181.054 46.7853 180.237 47.182 179.173 47.182C178.212 47.182 177.391 46.8273 176.709 46.118C176.028 45.3993 175.687 44.5267 175.687 43.5C175.687 42.464 176.028 41.5913 176.709 40.882C177.391 40.1727 178.212 39.818 179.173 39.818C180.237 39.818 181.054 40.21 181.623 40.994V40ZM177.829 45.11C178.249 45.53 178.777 45.74 179.411 45.74C180.046 45.74 180.573 45.53 180.993 45.11C181.413 44.6807 181.623 44.144 181.623 43.5C181.623 42.856 181.413 42.324 180.993 41.904C180.573 41.4747 180.046 41.26 179.411 41.26C178.777 41.26 178.249 41.4747 177.829 41.904C177.409 42.324 177.199 42.856 177.199 43.5C177.199 44.144 177.409 44.6807 177.829 45.11ZM186.41 41.176C186.792 40.308 187.511 39.874 188.566 39.874V41.512C187.987 41.4747 187.483 41.6147 187.054 41.932C186.624 42.24 186.41 42.7533 186.41 43.472V47H184.898V40H186.41V41.176ZM193.767 41.456H192.031V44.816C192.031 45.1053 192.096 45.3153 192.227 45.446C192.357 45.5673 192.549 45.6373 192.801 45.656C193.062 45.6653 193.384 45.6607 193.767 45.642V47C192.609 47.14 191.779 47.042 191.275 46.706C190.771 46.3607 190.519 45.7307 190.519 44.816V41.456H189.231V40H190.519V38.488L192.031 38.04V40H193.767V41.456ZM206.77 40H208.366L206.168 47H204.684L203.228 42.282L201.758 47H200.274L198.076 40H199.672L201.03 44.83L202.5 40H203.942L205.398 44.83L206.77 40ZM213.162 39.818C213.964 39.818 214.613 40.0747 215.108 40.588C215.602 41.1013 215.85 41.806 215.85 42.702V47H214.338V42.856C214.338 42.3333 214.198 41.932 213.918 41.652C213.638 41.372 213.255 41.232 212.77 41.232C212.238 41.232 211.808 41.4 211.482 41.736C211.155 42.0627 210.992 42.5667 210.992 43.248V47H209.48V37.2H210.992V40.896C211.449 40.1773 212.172 39.818 213.162 39.818ZM223.022 40H224.534V47H223.022V45.992C222.452 46.7853 221.636 47.182 220.572 47.182C219.61 47.182 218.789 46.8273 218.108 46.118C217.426 45.3993 217.086 44.5267 217.086 43.5C217.086 42.464 217.426 41.5913 218.108 40.882C218.789 40.1727 219.61 39.818 220.572 39.818C221.636 39.818 222.452 40.21 223.022 40.994V40ZM219.228 45.11C219.648 45.53 220.175 45.74 220.81 45.74C221.444 45.74 221.972 45.53 222.392 45.11C222.812 44.6807 223.022 44.144 223.022 43.5C223.022 42.856 222.812 42.324 222.392 41.904C221.972 41.4747 221.444 41.26 220.81 41.26C220.175 41.26 219.648 41.4747 219.228 41.904C218.808 42.324 218.598 42.856 218.598 43.5C218.598 44.144 218.808 44.6807 219.228 45.11ZM230.202 41.456H228.466V44.816C228.466 45.1053 228.531 45.3153 228.662 45.446C228.793 45.5673 228.984 45.6373 229.236 45.656C229.497 45.6653 229.819 45.6607 230.202 45.642V47C229.045 47.14 228.214 47.042 227.71 46.706C227.206 46.3607 226.954 45.7307 226.954 44.816V41.456H225.666V40H226.954V38.488L228.466 38.04V40H230.202V41.456ZM233.294 46.86C233.088 47.0653 232.841 47.168 232.552 47.168C232.262 47.168 232.015 47.0653 231.81 46.86C231.604 46.6547 231.502 46.4073 231.502 46.118C231.502 45.8287 231.6 45.5813 231.796 45.376C232.001 45.1707 232.253 45.068 232.552 45.068C232.841 45.068 233.088 45.1707 233.294 45.376C233.499 45.5813 233.602 45.8287 233.602 46.118C233.602 46.4073 233.499 46.6547 233.294 46.86ZM245.192 47L244.506 45.026H240.334L239.648 47H237.898L241.454 37.2H243.386L246.928 47H245.192ZM240.866 43.514H243.974L242.42 39.09L240.866 43.514ZM251.566 39.818C252.369 39.818 253.017 40.0747 253.512 40.588C254.007 41.1013 254.254 41.806 254.254 42.702V47H252.742V42.856C252.742 42.3333 252.602 41.932 252.322 41.652C252.042 41.372 251.659 41.232 251.174 41.232C250.642 41.232 250.213 41.4 249.886 41.736C249.559 42.0627 249.396 42.5667 249.396 43.248V47H247.884V40H249.396V40.896C249.853 40.1773 250.577 39.818 251.566 39.818ZM56.186 69.182C55.1313 69.182 54.2493 68.8273 53.54 68.118C52.84 67.4087 52.49 66.536 52.49 65.5C52.49 64.4547 52.84 63.582 53.54 62.882C54.2493 62.1727 55.1313 61.818 56.186 61.818C56.8673 61.818 57.488 61.9813 58.048 62.308C58.608 62.6347 59.028 63.0733 59.308 63.624L58.006 64.38C57.8473 64.044 57.6047 63.7827 57.278 63.596C56.9607 63.4 56.592 63.302 56.172 63.302C55.556 63.302 55.038 63.512 54.618 63.932C54.2073 64.352 54.002 64.8747 54.002 65.5C54.002 66.1253 54.2073 66.648 54.618 67.068C55.038 67.488 55.556 67.698 56.172 67.698C56.5827 67.698 56.9513 67.6 57.278 67.404C57.614 67.208 57.866 66.9467 58.034 66.62L59.336 67.362C59.0373 67.922 58.608 68.3653 58.048 68.692C57.488 69.0187 56.8673 69.182 56.186 69.182ZM63.6235 69.182C62.5968 69.182 61.7242 68.8273 61.0055 68.118C60.2868 67.4087 59.9275 66.536 59.9275 65.5C59.9275 64.464 60.2868 63.5913 61.0055 62.882C61.7242 62.1727 62.5968 61.818 63.6235 61.818C64.6595 61.818 65.5322 62.1727 66.2415 62.882C66.9602 63.5913 67.3195 64.464 67.3195 65.5C67.3195 66.536 66.9602 67.4087 66.2415 68.118C65.5322 68.8273 64.6595 69.182 63.6235 69.182ZM62.0695 67.082C62.4895 67.502 63.0075 67.712 63.6235 67.712C64.2395 67.712 64.7575 67.502 65.1775 67.082C65.5975 66.662 65.8075 66.1347 65.8075 65.5C65.8075 64.8653 65.5975 64.338 65.1775 63.918C64.7575 63.498 64.2395 63.288 63.6235 63.288C63.0075 63.288 62.4895 63.498 62.0695 63.918C61.6495 64.338 61.4395 64.8653 61.4395 65.5C61.4395 66.1347 61.6495 66.662 62.0695 67.082ZM72.3687 61.818C73.1714 61.818 73.82 62.0747 74.3147 62.588C74.8094 63.1013 75.0567 63.806 75.0567 64.702V69H73.5447V64.856C73.5447 64.3333 73.4047 63.932 73.1247 63.652C72.8447 63.372 72.462 63.232 71.9767 63.232C71.4447 63.232 71.0154 63.4 70.6887 63.736C70.362 64.0627 70.1987 64.5667 70.1987 65.248V69H68.6867V62H70.1987V62.896C70.656 62.1773 71.3794 61.818 72.3687 61.818ZM79.9887 69.182C78.9341 69.182 78.0521 68.8273 77.3427 68.118C76.6427 67.4087 76.2927 66.536 76.2927 65.5C76.2927 64.4547 76.6427 63.582 77.3427 62.882C78.0521 62.1727 78.9341 61.818 79.9887 61.818C80.6701 61.818 81.2907 61.9813 81.8507 62.308C82.4107 62.6347 82.8307 63.0733 83.1107 63.624L81.8087 64.38C81.6501 64.044 81.4074 63.7827 81.0807 63.596C80.7634 63.4 80.3947 63.302 79.9747 63.302C79.3587 63.302 78.8407 63.512 78.4207 63.932C78.0101 64.352 77.8047 64.8747 77.8047 65.5C77.8047 66.1253 78.0101 66.648 78.4207 67.068C78.8407 67.488 79.3587 67.698 79.9747 67.698C80.3854 67.698 80.7541 67.6 81.0807 67.404C81.4167 67.208 81.6687 66.9467 81.8367 66.62L83.1387 67.362C82.8401 67.922 82.4107 68.3653 81.8507 68.692C81.2907 69.0187 80.6701 69.182 79.9887 69.182ZM84.2316 69V58.78H85.7436V69H84.2316ZM92.2172 62H93.7292V69H92.2172V68.104C91.7599 68.8227 91.0365 69.182 90.0472 69.182C89.2445 69.182 88.5959 68.9253 88.1012 68.412C87.6065 67.8987 87.3592 67.194 87.3592 66.298V62H88.8712V66.144C88.8712 66.6667 89.0112 67.068 89.2912 67.348C89.5712 67.628 89.9539 67.768 90.4392 67.768C90.9712 67.768 91.4005 67.6047 91.7272 67.278C92.0539 66.942 92.2172 66.4333 92.2172 65.752V62ZM101.041 59.2H102.553V69H101.041V67.992C100.472 68.7853 99.6552 69.182 98.5912 69.182C97.6299 69.182 96.8086 68.8273 96.1272 68.118C95.4459 67.3993 95.1052 66.5267 95.1052 65.5C95.1052 64.464 95.4459 63.5913 96.1272 62.882C96.8086 62.1727 97.6299 61.818 98.5912 61.818C99.6552 61.818 100.472 62.21 101.041 62.994V59.2ZM97.2472 67.11C97.6672 67.53 98.1946 67.74 98.8292 67.74C99.4639 67.74 99.9912 67.53 100.411 67.11C100.831 66.6807 101.041 66.144 101.041 65.5C101.041 64.856 100.831 64.324 100.411 63.904C99.9912 63.4747 99.4639 63.26 98.8292 63.26C98.1946 63.26 97.6672 63.4747 97.2472 63.904C96.8272 64.324 96.6172 64.856 96.6172 65.5C96.6172 66.144 96.8272 66.6807 97.2472 67.11ZM105.506 66.144C105.618 66.676 105.874 67.0867 106.276 67.376C106.677 67.656 107.167 67.796 107.746 67.796C108.548 67.796 109.15 67.5067 109.552 66.928L110.798 67.656C110.107 68.6733 109.085 69.182 107.732 69.182C106.593 69.182 105.674 68.8367 104.974 68.146C104.274 67.446 103.924 66.564 103.924 65.5C103.924 64.4547 104.269 63.582 104.96 62.882C105.65 62.1727 106.537 61.818 107.62 61.818C108.646 61.818 109.486 62.1773 110.14 62.896C110.802 63.6147 111.134 64.4873 111.134 65.514C111.134 65.6727 111.115 65.8827 111.078 66.144H105.506ZM105.492 64.912H109.608C109.505 64.3427 109.267 63.9133 108.894 63.624C108.53 63.3347 108.1 63.19 107.606 63.19C107.046 63.19 106.579 63.344 106.206 63.652C105.832 63.96 105.594 64.38 105.492 64.912ZM117.967 59.2H119.479V69H117.967V67.992C117.398 68.7853 116.581 69.182 115.517 69.182C114.556 69.182 113.734 68.8273 113.053 68.118C112.372 67.3993 112.031 66.5267 112.031 65.5C112.031 64.464 112.372 63.5913 113.053 62.882C113.734 62.1727 114.556 61.818 115.517 61.818C116.581 61.818 117.398 62.21 117.967 62.994V59.2ZM114.173 67.11C114.593 67.53 115.12 67.74 115.755 67.74C116.39 67.74 116.917 67.53 117.337 67.11C117.757 66.6807 117.967 66.144 117.967 65.5C117.967 64.856 117.757 64.324 117.337 63.904C116.917 63.4747 116.39 63.26 115.755 63.26C115.12 63.26 114.593 63.4747 114.173 63.904C113.753 64.324 113.543 64.856 113.543 65.5C113.543 66.144 113.753 66.6807 114.173 67.11ZM126.099 63.932C126.099 64.1653 126.225 64.352 126.477 64.492C126.739 64.6227 127.051 64.7393 127.415 64.842C127.789 64.9353 128.162 65.0473 128.535 65.178C128.909 65.3087 129.221 65.5327 129.473 65.85C129.735 66.158 129.865 66.55 129.865 67.026C129.865 67.698 129.604 68.2253 129.081 68.608C128.568 68.9907 127.919 69.182 127.135 69.182C126.445 69.182 125.852 69.0373 125.357 68.748C124.863 68.4587 124.503 68.0573 124.279 67.544L125.581 66.788C125.824 67.46 126.342 67.796 127.135 67.796C127.929 67.796 128.325 67.5347 128.325 67.012C128.325 66.788 128.195 66.606 127.933 66.466C127.681 66.326 127.369 66.2093 126.995 66.116C126.631 66.0133 126.263 65.8967 125.889 65.766C125.516 65.6353 125.199 65.4207 124.937 65.122C124.685 64.814 124.559 64.4267 124.559 63.96C124.559 63.316 124.802 62.798 125.287 62.406C125.782 62.014 126.393 61.818 127.121 61.818C127.7 61.818 128.213 61.9487 128.661 62.21C129.119 62.462 129.469 62.8167 129.711 63.274L128.437 63.988C128.195 63.456 127.756 63.19 127.121 63.19C126.832 63.19 126.589 63.2553 126.393 63.386C126.197 63.5073 126.099 63.6893 126.099 63.932ZM135.157 61.818C136.118 61.818 136.939 62.1773 137.621 62.896C138.302 63.6053 138.643 64.4733 138.643 65.5C138.643 66.536 138.302 67.4087 137.621 68.118C136.939 68.8273 136.118 69.182 135.157 69.182C134.093 69.182 133.276 68.79 132.707 68.006V71.8H131.195V62H132.707V63.008C133.276 62.2147 134.093 61.818 135.157 61.818ZM133.337 67.11C133.757 67.53 134.284 67.74 134.919 67.74C135.553 67.74 136.081 67.53 136.501 67.11C136.921 66.6807 137.131 66.144 137.131 65.5C137.131 64.856 136.921 64.324 136.501 63.904C136.081 63.4747 135.553 63.26 134.919 63.26C134.284 63.26 133.757 63.4747 133.337 63.904C132.917 64.324 132.707 64.856 132.707 65.5C132.707 66.144 132.917 66.6807 133.337 67.11ZM143.317 69.182C142.29 69.182 141.418 68.8273 140.699 68.118C139.98 67.4087 139.621 66.536 139.621 65.5C139.621 64.464 139.98 63.5913 140.699 62.882C141.418 62.1727 142.29 61.818 143.317 61.818C144.353 61.818 145.226 62.1727 145.935 62.882C146.654 63.5913 147.013 64.464 147.013 65.5C147.013 66.536 146.654 67.4087 145.935 68.118C145.226 68.8273 144.353 69.182 143.317 69.182ZM141.763 67.082C142.183 67.502 142.701 67.712 143.317 67.712C143.933 67.712 144.451 67.502 144.871 67.082C145.291 66.662 145.501 66.1347 145.501 65.5C145.501 64.8653 145.291 64.338 144.871 63.918C144.451 63.498 143.933 63.288 143.317 63.288C142.701 63.288 142.183 63.498 141.763 63.918C141.343 64.338 141.133 64.8653 141.133 65.5C141.133 66.1347 141.343 66.662 141.763 67.082ZM149.892 63.176C150.275 62.308 150.993 61.874 152.048 61.874V63.512C151.469 63.4747 150.965 63.6147 150.536 63.932C150.107 64.24 149.892 64.7533 149.892 65.472V69H148.38V62H149.892V63.176ZM157.249 63.456H155.513V66.816C155.513 67.1053 155.578 67.3153 155.709 67.446C155.84 67.5673 156.031 67.6373 156.283 67.656C156.544 67.6653 156.866 67.6607 157.249 67.642V69C156.092 69.14 155.261 69.042 154.757 68.706C154.253 68.3607 154.001 67.7307 154.001 66.816V63.456H152.713V62H154.001V60.488L155.513 60.04V62H157.249V63.456ZM159.719 63.932C159.719 64.1653 159.845 64.352 160.097 64.492C160.358 64.6227 160.671 64.7393 161.035 64.842C161.408 64.9353 161.781 65.0473 162.155 65.178C162.528 65.3087 162.841 65.5327 163.093 65.85C163.354 66.158 163.485 66.55 163.485 67.026C163.485 67.698 163.223 68.2253 162.701 68.608C162.187 68.9907 161.539 69.182 160.755 69.182C160.064 69.182 159.471 69.0373 158.977 68.748C158.482 68.4587 158.123 68.0573 157.899 67.544L159.201 66.788C159.443 67.46 159.961 67.796 160.755 67.796C161.548 67.796 161.945 67.5347 161.945 67.012C161.945 66.788 161.814 66.606 161.553 66.466C161.301 66.326 160.988 66.2093 160.615 66.116C160.251 66.0133 159.882 65.8967 159.509 65.766C159.135 65.6353 158.818 65.4207 158.557 65.122C158.305 64.814 158.179 64.4267 158.179 63.96C158.179 63.316 158.421 62.798 158.907 62.406C159.401 62.014 160.013 61.818 160.741 61.818C161.319 61.818 161.833 61.9487 162.281 62.21C162.738 62.462 163.088 62.8167 163.331 63.274L162.057 63.988C161.814 63.456 161.375 63.19 160.741 63.19C160.451 63.19 160.209 63.2553 160.013 63.386C159.817 63.5073 159.719 63.6893 159.719 63.932ZM172.458 61.818C173.251 61.818 173.89 62.0747 174.376 62.588C174.861 63.1013 175.104 63.792 175.104 64.66V69H173.592V64.758C173.592 64.2727 173.47 63.8993 173.228 63.638C172.985 63.3673 172.654 63.232 172.234 63.232C171.767 63.232 171.394 63.386 171.114 63.694C170.843 64.002 170.708 64.464 170.708 65.08V69H169.196V64.758C169.196 64.2727 169.079 63.8993 168.846 63.638C168.622 63.3673 168.3 63.232 167.88 63.232C167.422 63.232 167.049 63.3907 166.76 63.708C166.47 64.016 166.326 64.4733 166.326 65.08V69H164.814V62H166.326V62.84C166.774 62.1587 167.441 61.818 168.328 61.818C169.224 61.818 169.886 62.1867 170.316 62.924C170.782 62.1867 171.496 61.818 172.458 61.818ZM182.266 62H183.778V69H182.266V67.992C181.697 68.7853 180.88 69.182 179.816 69.182C178.855 69.182 178.033 68.8273 177.352 68.118C176.671 67.3993 176.33 66.5267 176.33 65.5C176.33 64.464 176.671 63.5913 177.352 62.882C178.033 62.1727 178.855 61.818 179.816 61.818C180.88 61.818 181.697 62.21 182.266 62.994V62ZM178.472 67.11C178.892 67.53 179.419 67.74 180.054 67.74C180.689 67.74 181.216 67.53 181.636 67.11C182.056 66.6807 182.266 66.144 182.266 65.5C182.266 64.856 182.056 64.324 181.636 63.904C181.216 63.4747 180.689 63.26 180.054 63.26C179.419 63.26 178.892 63.4747 178.472 63.904C178.052 64.324 177.842 64.856 177.842 65.5C177.842 66.144 178.052 66.6807 178.472 67.11ZM189.222 61.818C190.025 61.818 190.674 62.0747 191.168 62.588C191.663 63.1013 191.91 63.806 191.91 64.702V69H190.398V64.856C190.398 64.3333 190.258 63.932 189.978 63.652C189.698 63.372 189.316 63.232 188.83 63.232C188.298 63.232 187.869 63.4 187.542 63.736C187.216 64.0627 187.052 64.5667 187.052 65.248V69H185.54V62H187.052V62.896C187.51 62.1773 188.233 61.818 189.222 61.818ZM200.342 69.182C199.316 69.182 198.443 68.8273 197.724 68.118C197.006 67.4087 196.646 66.536 196.646 65.5C196.646 64.464 197.006 63.5913 197.724 62.882C198.443 62.1727 199.316 61.818 200.342 61.818C201.378 61.818 202.251 62.1727 202.96 62.882C203.679 63.5913 204.038 64.464 204.038 65.5C204.038 66.536 203.679 67.4087 202.96 68.118C202.251 68.8273 201.378 69.182 200.342 69.182ZM198.788 67.082C199.208 67.502 199.726 67.712 200.342 67.712C200.958 67.712 201.476 67.502 201.896 67.082C202.316 66.662 202.526 66.1347 202.526 65.5C202.526 64.8653 202.316 64.338 201.896 63.918C201.476 63.498 200.958 63.288 200.342 63.288C199.726 63.288 199.208 63.498 198.788 63.918C198.368 64.338 198.158 64.8653 198.158 65.5C198.158 66.1347 198.368 66.662 198.788 67.082ZM208.827 60.474C207.726 60.3713 207.175 60.8333 207.175 61.86V62H208.827V63.456H207.175V69H205.663V63.456H204.599V62H205.663V61.86C205.663 60.8987 205.929 60.1707 206.461 59.676C207.003 59.172 207.791 58.9527 208.827 59.018V60.474ZM213.489 60.474C212.388 60.3713 211.837 60.8333 211.837 61.86V62H213.489V63.456H211.837V69H210.325V63.456H209.261V62H210.325V61.86C210.325 60.8987 210.591 60.1707 211.123 59.676C211.665 59.172 212.453 58.9527 213.489 59.018V60.474ZM215.236 66.144C215.348 66.676 215.605 67.0867 216.006 67.376C216.407 67.656 216.897 67.796 217.476 67.796C218.279 67.796 218.881 67.5067 219.282 66.928L220.528 67.656C219.837 68.6733 218.815 69.182 217.462 69.182C216.323 69.182 215.404 68.8367 214.704 68.146C214.004 67.446 213.654 66.564 213.654 65.5C213.654 64.4547 213.999 63.582 214.69 62.882C215.381 62.1727 216.267 61.818 217.35 61.818C218.377 61.818 219.217 62.1773 219.87 62.896C220.533 63.6147 220.864 64.4873 220.864 65.514C220.864 65.6727 220.845 65.8827 220.808 66.144H215.236ZM215.222 64.912H219.338C219.235 64.3427 218.997 63.9133 218.624 63.624C218.26 63.3347 217.831 63.19 217.336 63.19C216.776 63.19 216.309 63.344 215.936 63.652C215.563 63.96 215.325 64.38 215.222 64.912ZM225.877 61.818C226.679 61.818 227.328 62.0747 227.823 62.588C228.317 63.1013 228.565 63.806 228.565 64.702V69H227.053V64.856C227.053 64.3333 226.913 63.932 226.633 63.652C226.353 63.372 225.97 63.232 225.485 63.232C224.953 63.232 224.523 63.4 224.197 63.736C223.87 64.0627 223.707 64.5667 223.707 65.248V69H222.195V62H223.707V62.896C224.164 62.1773 224.887 61.818 225.877 61.818ZM235.737 59.2H237.249V69H235.737V67.992C235.167 68.7853 234.351 69.182 233.287 69.182C232.325 69.182 231.504 68.8273 230.823 68.118C230.141 67.3993 229.801 66.5267 229.801 65.5C229.801 64.464 230.141 63.5913 230.823 62.882C231.504 62.1727 232.325 61.818 233.287 61.818C234.351 61.818 235.167 62.21 235.737 62.994V59.2ZM231.943 67.11C232.363 67.53 232.89 67.74 233.525 67.74C234.159 67.74 234.687 67.53 235.107 67.11C235.527 66.6807 235.737 66.144 235.737 65.5C235.737 64.856 235.527 64.324 235.107 63.904C234.687 63.4747 234.159 63.26 233.525 63.26C232.89 63.26 232.363 63.4747 231.943 63.904C231.523 64.324 231.313 64.856 231.313 65.5C231.313 66.144 231.523 66.6807 231.943 67.11ZM240.439 60.67C240.252 60.8567 240.028 60.95 239.767 60.95C239.506 60.95 239.277 60.8567 239.081 60.67C238.894 60.474 238.801 60.2453 238.801 59.984C238.801 59.7227 238.894 59.4987 239.081 59.312C239.268 59.116 239.496 59.018 239.767 59.018C240.038 59.018 240.266 59.116 240.453 59.312C240.64 59.4987 240.733 59.7227 240.733 59.984C240.733 60.2453 240.635 60.474 240.439 60.67ZM239.011 69V62H240.523V69H239.011ZM245.96 61.818C246.763 61.818 247.412 62.0747 247.906 62.588C248.401 63.1013 248.648 63.806 248.648 64.702V69H247.136V64.856C247.136 64.3333 246.996 63.932 246.716 63.652C246.436 63.372 246.054 63.232 245.568 63.232C245.036 63.232 244.607 63.4 244.28 63.736C243.954 64.0627 243.79 64.5667 243.79 65.248V69H242.278V62H243.79V62.896C244.248 62.1773 244.971 61.818 245.96 61.818ZM255.849 62H257.333V68.678C257.333 69.742 256.983 70.5587 256.283 71.128C255.583 71.6973 254.733 71.982 253.735 71.982C252.12 71.982 251.014 71.4173 250.417 70.288L251.719 69.532C252.083 70.2507 252.764 70.61 253.763 70.61C254.416 70.61 254.925 70.4373 255.289 70.092C255.662 69.756 255.849 69.2847 255.849 68.678V67.824C255.279 68.636 254.467 69.042 253.413 69.042C252.423 69.042 251.588 68.692 250.907 67.992C250.225 67.2827 249.885 66.4287 249.885 65.43C249.885 64.4313 250.225 63.582 250.907 62.882C251.588 62.1727 252.423 61.818 253.413 61.818C254.467 61.818 255.279 62.224 255.849 63.036V62ZM252.027 66.998C252.456 67.418 252.988 67.628 253.623 67.628C254.257 67.628 254.785 67.418 255.205 66.998C255.634 66.578 255.849 66.0553 255.849 65.43C255.849 64.8047 255.634 64.282 255.205 63.862C254.785 63.442 254.257 63.232 253.623 63.232C252.988 63.232 252.456 63.442 252.027 63.862C251.607 64.282 251.397 64.8047 251.397 65.43C251.397 66.0553 251.607 66.578 252.027 66.998ZM263.953 63.932C263.953 64.1653 264.079 64.352 264.331 64.492C264.592 64.6227 264.905 64.7393 265.269 64.842C265.642 64.9353 266.016 65.0473 266.389 65.178C266.762 65.3087 267.075 65.5327 267.327 65.85C267.588 66.158 267.719 66.55 267.719 67.026C267.719 67.698 267.458 68.2253 266.935 68.608C266.422 68.9907 265.773 69.182 264.989 69.182C264.298 69.182 263.706 69.0373 263.211 68.748C262.716 68.4587 262.357 68.0573 262.133 67.544L263.435 66.788C263.678 67.46 264.196 67.796 264.989 67.796C265.782 67.796 266.179 67.5347 266.179 67.012C266.179 66.788 266.048 66.606 265.787 66.466C265.535 66.326 265.222 66.2093 264.849 66.116C264.485 66.0133 264.116 65.8967 263.743 65.766C263.37 65.6353 263.052 65.4207 262.791 65.122C262.539 64.814 262.413 64.4267 262.413 63.96C262.413 63.316 262.656 62.798 263.141 62.406C263.636 62.014 264.247 61.818 264.975 61.818C265.554 61.818 266.067 61.9487 266.515 62.21C266.972 62.462 267.322 62.8167 267.565 63.274L266.291 63.988C266.048 63.456 265.61 63.19 264.975 63.19C264.686 63.19 264.443 63.2553 264.247 63.386C264.051 63.5073 263.953 63.6893 263.953 63.932ZM272.174 69.182C271.148 69.182 270.275 68.8273 269.556 68.118C268.838 67.4087 268.478 66.536 268.478 65.5C268.478 64.464 268.838 63.5913 269.556 62.882C270.275 62.1727 271.148 61.818 272.174 61.818C273.21 61.818 274.083 62.1727 274.792 62.882C275.511 63.5913 275.87 64.464 275.87 65.5C275.87 66.536 275.511 67.4087 274.792 68.118C274.083 68.8273 273.21 69.182 272.174 69.182ZM270.62 67.082C271.04 67.502 271.558 67.712 272.174 67.712C272.79 67.712 273.308 67.502 273.728 67.082C274.148 66.662 274.358 66.1347 274.358 65.5C274.358 64.8653 274.148 64.338 273.728 63.918C273.308 63.498 272.79 63.288 272.174 63.288C271.558 63.288 271.04 63.498 270.62 63.918C270.2 64.338 269.99 64.8653 269.99 65.5C269.99 66.1347 270.2 66.662 270.62 67.082ZM56.844 83.818C57.8053 83.818 58.6267 84.1773 59.308 84.896C59.9893 85.6053 60.33 86.4733 60.33 87.5C60.33 88.536 59.9893 89.4087 59.308 90.118C58.6267 90.8273 57.8053 91.182 56.844 91.182C55.78 91.182 54.9633 90.79 54.394 90.006V93.8H52.882V84H54.394V85.008C54.9633 84.2147 55.78 83.818 56.844 83.818ZM55.024 89.11C55.444 89.53 55.9713 89.74 56.606 89.74C57.2407 89.74 57.768 89.53 58.188 89.11C58.608 88.6807 58.818 88.144 58.818 87.5C58.818 86.856 58.608 86.324 58.188 85.904C57.768 85.4747 57.2407 85.26 56.606 85.26C55.9713 85.26 55.444 85.4747 55.024 85.904C54.604 86.324 54.394 86.856 54.394 87.5C54.394 88.144 54.604 88.6807 55.024 89.11ZM63.2124 85.176C63.595 84.308 64.3137 83.874 65.3684 83.874V85.512C64.7897 85.4747 64.2857 85.6147 63.8564 85.932C63.427 86.24 63.2124 86.7533 63.2124 87.472V91H61.7004V84H63.2124V85.176ZM69.4614 91.182C68.4347 91.182 67.5621 90.8273 66.8434 90.118C66.1247 89.4087 65.7654 88.536 65.7654 87.5C65.7654 86.464 66.1247 85.5913 66.8434 84.882C67.5621 84.1727 68.4347 83.818 69.4614 83.818C70.4974 83.818 71.3701 84.1727 72.0794 84.882C72.7981 85.5913 73.1574 86.464 73.1574 87.5C73.1574 88.536 72.7981 89.4087 72.0794 90.118C71.3701 90.8273 70.4974 91.182 69.4614 91.182ZM67.9074 89.082C68.3274 89.502 68.8454 89.712 69.4614 89.712C70.0774 89.712 70.5954 89.502 71.0154 89.082C71.4354 88.662 71.6454 88.1347 71.6454 87.5C71.6454 86.8653 71.4354 86.338 71.0154 85.918C70.5954 85.498 70.0774 85.288 69.4614 85.288C68.8454 85.288 68.3274 85.498 67.9074 85.918C67.4874 86.338 67.2774 86.8653 67.2774 87.5C67.2774 88.1347 67.4874 88.662 67.9074 89.082ZM78.9971 84H80.6491L77.9191 91H76.1691L73.4391 84H75.0911L77.0511 89.32L78.9971 84ZM83.0346 82.67C82.8479 82.8567 82.6239 82.95 82.3626 82.95C82.1013 82.95 81.8726 82.8567 81.6766 82.67C81.4899 82.474 81.3966 82.2453 81.3966 81.984C81.3966 81.7227 81.4899 81.4987 81.6766 81.312C81.8633 81.116 82.0919 81.018 82.3626 81.018C82.6333 81.018 82.8619 81.116 83.0486 81.312C83.2353 81.4987 83.3286 81.7227 83.3286 81.984C83.3286 82.2453 83.2306 82.474 83.0346 82.67ZM81.6066 91V84H83.1186V91H81.6066ZM86.1912 85.932C86.1912 86.1653 86.3172 86.352 86.5692 86.492C86.8305 86.6227 87.1432 86.7393 87.5072 86.842C87.8805 86.9353 88.2538 87.0473 88.6272 87.178C89.0005 87.3087 89.3132 87.5327 89.5652 87.85C89.8265 88.158 89.9572 88.55 89.9572 89.026C89.9572 89.698 89.6958 90.2253 89.1732 90.608C88.6598 90.9907 88.0112 91.182 87.2272 91.182C86.5365 91.182 85.9438 91.0373 85.4492 90.748C84.9545 90.4587 84.5952 90.0573 84.3712 89.544L85.6732 88.788C85.9158 89.46 86.4338 89.796 87.2272 89.796C88.0205 89.796 88.4172 89.5347 88.4172 89.012C88.4172 88.788 88.2865 88.606 88.0252 88.466C87.7732 88.326 87.4605 88.2093 87.0872 88.116C86.7232 88.0133 86.3545 87.8967 85.9812 87.766C85.6078 87.6353 85.2905 87.4207 85.0292 87.122C84.7772 86.814 84.6512 86.4267 84.6512 85.96C84.6512 85.316 84.8938 84.798 85.3792 84.406C85.8738 84.014 86.4852 83.818 87.2132 83.818C87.7918 83.818 88.3052 83.9487 88.7532 84.21C89.2105 84.462 89.5605 84.8167 89.8032 85.274L88.5292 85.988C88.2865 85.456 87.8478 85.19 87.2132 85.19C86.9238 85.19 86.6812 85.2553 86.4852 85.386C86.2892 85.5073 86.1912 85.6893 86.1912 85.932ZM92.6323 82.67C92.4456 82.8567 92.2216 82.95 91.9603 82.95C91.6989 82.95 91.4703 82.8567 91.2743 82.67C91.0876 82.474 90.9943 82.2453 90.9943 81.984C90.9943 81.7227 91.0876 81.4987 91.2743 81.312C91.4609 81.116 91.6896 81.018 91.9603 81.018C92.2309 81.018 92.4596 81.116 92.6463 81.312C92.8329 81.4987 92.9263 81.7227 92.9263 81.984C92.9263 82.2453 92.8283 82.474 92.6323 82.67ZM91.2043 91V84H92.7163V91H91.2043ZM97.7758 91.182C96.7492 91.182 95.8765 90.8273 95.1578 90.118C94.4392 89.4087 94.0798 88.536 94.0798 87.5C94.0798 86.464 94.4392 85.5913 95.1578 84.882C95.8765 84.1727 96.7492 83.818 97.7758 83.818C98.8118 83.818 99.6845 84.1727 100.394 84.882C101.113 85.5913 101.472 86.464 101.472 87.5C101.472 88.536 101.113 89.4087 100.394 90.118C99.6845 90.8273 98.8118 91.182 97.7758 91.182ZM96.2218 89.082C96.6418 89.502 97.1598 89.712 97.7758 89.712C98.3918 89.712 98.9098 89.502 99.3298 89.082C99.7498 88.662 99.9598 88.1347 99.9598 87.5C99.9598 86.8653 99.7498 86.338 99.3298 85.918C98.9098 85.498 98.3918 85.288 97.7758 85.288C97.1598 85.288 96.6418 85.498 96.2218 85.918C95.8018 86.338 95.5918 86.8653 95.5918 87.5C95.5918 88.1347 95.8018 88.662 96.2218 89.082ZM106.521 83.818C107.324 83.818 107.972 84.0747 108.467 84.588C108.962 85.1013 109.209 85.806 109.209 86.702V91H107.697V86.856C107.697 86.3333 107.557 85.932 107.277 85.652C106.997 85.372 106.614 85.232 106.129 85.232C105.597 85.232 105.168 85.4 104.841 85.736C104.514 86.0627 104.351 86.5667 104.351 87.248V91H102.839V84H104.351V84.896C104.808 84.1773 105.532 83.818 106.521 83.818ZM121.981 83.818C122.774 83.818 123.414 84.0747 123.899 84.588C124.384 85.1013 124.627 85.792 124.627 86.66V91H123.115V86.758C123.115 86.2727 122.994 85.8993 122.751 85.638C122.508 85.3673 122.177 85.232 121.757 85.232C121.29 85.232 120.917 85.386 120.637 85.694C120.366 86.002 120.231 86.464 120.231 87.08V91H118.719V86.758C118.719 86.2727 118.602 85.8993 118.369 85.638C118.145 85.3673 117.823 85.232 117.403 85.232C116.946 85.232 116.572 85.3907 116.283 85.708C115.994 86.016 115.849 86.4733 115.849 87.08V91H114.337V84H115.849V84.84C116.297 84.1587 116.964 83.818 117.851 83.818C118.747 83.818 119.41 84.1867 119.839 84.924C120.306 84.1867 121.02 83.818 121.981 83.818ZM127.757 85.176C128.14 84.308 128.859 83.874 129.913 83.874V85.512C129.335 85.4747 128.831 85.6147 128.401 85.932C127.972 86.24 127.757 86.7533 127.757 87.472V91H126.245V84H127.757V85.176ZM135.72 88.144C135.832 88.676 136.089 89.0867 136.49 89.376C136.892 89.656 137.382 89.796 137.96 89.796C138.763 89.796 139.365 89.5067 139.766 88.928L141.012 89.656C140.322 90.6733 139.3 91.182 137.946 91.182C136.808 91.182 135.888 90.8367 135.188 90.146C134.488 89.446 134.138 88.564 134.138 87.5C134.138 86.4547 134.484 85.582 135.174 84.882C135.865 84.1727 136.752 83.818 137.834 83.818C138.861 83.818 139.701 84.1773 140.354 84.896C141.017 85.6147 141.348 86.4873 141.348 87.514C141.348 87.6727 141.33 87.8827 141.292 88.144H135.72ZM135.706 86.912H139.822C139.72 86.3427 139.482 85.9133 139.108 85.624C138.744 85.3347 138.315 85.19 137.82 85.19C137.26 85.19 136.794 85.344 136.42 85.652C136.047 85.96 135.809 86.38 135.706 86.912ZM148.182 81.2H149.694V91H148.182V89.992C147.613 90.7853 146.796 91.182 145.732 91.182C144.771 91.182 143.949 90.8273 143.268 90.118C142.587 89.3993 142.246 88.5267 142.246 87.5C142.246 86.464 142.587 85.5913 143.268 84.882C143.949 84.1727 144.771 83.818 145.732 83.818C146.796 83.818 147.613 84.21 148.182 84.994V81.2ZM144.388 89.11C144.808 89.53 145.335 89.74 145.97 89.74C146.605 89.74 147.132 89.53 147.552 89.11C147.972 88.6807 148.182 88.144 148.182 87.5C148.182 86.856 147.972 86.324 147.552 85.904C147.132 85.4747 146.605 85.26 145.97 85.26C145.335 85.26 144.808 85.4747 144.388 85.904C143.968 86.324 143.758 86.856 143.758 87.5C143.758 88.144 143.968 88.6807 144.388 89.11ZM156.174 84H157.686V91H156.174V90.104C155.717 90.8227 154.994 91.182 154.004 91.182C153.202 91.182 152.553 90.9253 152.058 90.412C151.564 89.8987 151.316 89.194 151.316 88.298V84H152.828V88.144C152.828 88.6667 152.968 89.068 153.248 89.348C153.528 89.628 153.911 89.768 154.396 89.768C154.928 89.768 155.358 89.6047 155.684 89.278C156.011 88.942 156.174 88.4333 156.174 87.752V84ZM162.758 91.182C161.704 91.182 160.822 90.8273 160.112 90.118C159.412 89.4087 159.062 88.536 159.062 87.5C159.062 86.4547 159.412 85.582 160.112 84.882C160.822 84.1727 161.704 83.818 162.758 83.818C163.44 83.818 164.06 83.9813 164.62 84.308C165.18 84.6347 165.6 85.0733 165.88 85.624L164.578 86.38C164.42 86.044 164.177 85.7827 163.85 85.596C163.533 85.4 163.164 85.302 162.744 85.302C162.128 85.302 161.61 85.512 161.19 85.932C160.78 86.352 160.574 86.8747 160.574 87.5C160.574 88.1253 160.78 88.648 161.19 89.068C161.61 89.488 162.128 89.698 162.744 89.698C163.155 89.698 163.524 89.6 163.85 89.404C164.186 89.208 164.438 88.9467 164.606 88.62L165.908 89.362C165.61 89.922 165.18 90.3653 164.62 90.692C164.06 91.0187 163.44 91.182 162.758 91.182ZM172.436 84H173.948V91H172.436V89.992C171.866 90.7853 171.05 91.182 169.986 91.182C169.024 91.182 168.203 90.8273 167.522 90.118C166.84 89.3993 166.5 88.5267 166.5 87.5C166.5 86.464 166.84 85.5913 167.522 84.882C168.203 84.1727 169.024 83.818 169.986 83.818C171.05 83.818 171.866 84.21 172.436 84.994V84ZM168.642 89.11C169.062 89.53 169.589 89.74 170.224 89.74C170.858 89.74 171.386 89.53 171.806 89.11C172.226 88.6807 172.436 88.144 172.436 87.5C172.436 86.856 172.226 86.324 171.806 85.904C171.386 85.4747 170.858 85.26 170.224 85.26C169.589 85.26 169.062 85.4747 168.642 85.904C168.222 86.324 168.012 86.856 168.012 87.5C168.012 88.144 168.222 88.6807 168.642 89.11ZM179.616 85.456H177.88V88.816C177.88 89.1053 177.945 89.3153 178.076 89.446C178.207 89.5673 178.398 89.6373 178.65 89.656C178.911 89.6653 179.233 89.6607 179.616 89.642V91C178.459 91.14 177.628 91.042 177.124 90.706C176.62 90.3607 176.368 89.7307 176.368 88.816V85.456H175.08V84H176.368V82.488L177.88 82.04V84H179.616V85.456ZM182.415 82.67C182.229 82.8567 182.005 82.95 181.743 82.95C181.482 82.95 181.253 82.8567 181.057 82.67C180.871 82.474 180.777 82.2453 180.777 81.984C180.777 81.7227 180.871 81.4987 181.057 81.312C181.244 81.116 181.473 81.018 181.743 81.018C182.014 81.018 182.243 81.116 182.429 81.312C182.616 81.4987 182.709 81.7227 182.709 81.984C182.709 82.2453 182.611 82.474 182.415 82.67ZM180.987 91V84H182.499V91H180.987ZM187.559 91.182C186.532 91.182 185.66 90.8273 184.941 90.118C184.222 89.4087 183.863 88.536 183.863 87.5C183.863 86.464 184.222 85.5913 184.941 84.882C185.66 84.1727 186.532 83.818 187.559 83.818C188.595 83.818 189.468 84.1727 190.177 84.882C190.896 85.5913 191.255 86.464 191.255 87.5C191.255 88.536 190.896 89.4087 190.177 90.118C189.468 90.8273 188.595 91.182 187.559 91.182ZM186.005 89.082C186.425 89.502 186.943 89.712 187.559 89.712C188.175 89.712 188.693 89.502 189.113 89.082C189.533 88.662 189.743 88.1347 189.743 87.5C189.743 86.8653 189.533 86.338 189.113 85.918C188.693 85.498 188.175 85.288 187.559 85.288C186.943 85.288 186.425 85.498 186.005 85.918C185.585 86.338 185.375 86.8653 185.375 87.5C185.375 88.1347 185.585 88.662 186.005 89.082ZM196.304 83.818C197.107 83.818 197.756 84.0747 198.25 84.588C198.745 85.1013 198.992 85.806 198.992 86.702V91H197.48V86.856C197.48 86.3333 197.34 85.932 197.06 85.652C196.78 85.372 196.398 85.232 195.912 85.232C195.38 85.232 194.951 85.4 194.624 85.736C194.298 86.0627 194.134 86.5667 194.134 87.248V91H192.622V84H194.134V84.896C194.592 84.1773 195.315 83.818 196.304 83.818ZM202.272 90.86C202.067 91.0653 201.82 91.168 201.53 91.168C201.241 91.168 200.994 91.0653 200.788 90.86C200.583 90.6547 200.48 90.4073 200.48 90.118C200.48 89.8287 200.578 89.5813 200.774 89.376C200.98 89.1707 201.232 89.068 201.53 89.068C201.82 89.068 202.067 89.1707 202.272 89.376C202.478 89.5813 202.58 89.8287 202.58 90.118C202.58 90.4073 202.478 90.6547 202.272 90.86Z" fill="#8476AA"/>
<path opacity="0.3" fill-rule="evenodd" clip-rule="evenodd" d="M7.25619 18.9292L5.97889 20.4681C3.47693 18.3916 2 15.3153 2 12C2 8.68921 3.47282 5.61675 5.96885 3.54016L7.24797 5.07765C5.20393 6.77819 4 9.28973 4 12C4 14.714 5.2073 17.2287 7.25619 18.9292ZM16.7438 18.9292L18.0211 20.4681C20.5231 18.3916 22 15.3153 22 12C22 8.68921 20.5272 5.61675 18.0311 3.54016L16.752 5.07765C18.7961 6.77819 20 9.28973 20 12C20 14.714 18.7927 17.2287 16.7438 18.9292ZM14.1785 15.8599L15.4509 17.4029C17.0529 16.082 18 14.1173 18 12C18 9.88957 17.0591 7.93072 15.4661 6.60961L14.1894 8.14908C15.329 9.09417 16 10.4912 16 12C16 13.5137 15.3245 14.9149 14.1785 15.8599ZM8.5491 17.4029L9.8215 15.8599C8.6755 14.9149 8 13.5137 8 12C8 10.4912 8.67104 9.09417 9.81062 8.14908L8.53389 6.60961C6.94091 7.93072 6 9.88957 6 12C6 14.1173 6.94714 16.082 8.5491 17.4029Z" fill="#99EFD0"/>
<path fill-rule="evenodd" clip-rule="evenodd" d="M12 14C13.1046 14 14 13.1046 14 12C14 10.8954 13.1046 10 12 10C10.8954 10 10 10.8954 10 12C10 13.1046 10.8954 14 12 14Z" fill="#99EFD0"/>
</svg>
