<svg width="299" height="106" viewBox="0 0 299 106" fill="none" xmlns="http://www.w3.org/2000/svg">
<path d="M60.694 5.776H55.654V8.764H60.55V11.14H55.654V16H53.17V3.4H60.694V5.776ZM70.064 14.884C69.14 15.796 68.012 16.252 66.68 16.252C65.348 16.252 64.22 15.796 63.296 14.884C62.384 13.96 61.928 12.832 61.928 11.5C61.928 10.168 62.384 9.046 63.296 8.134C64.22 7.21 65.348 6.748 66.68 6.748C68.012 6.748 69.14 7.21 70.064 8.134C70.988 9.046 71.45 10.168 71.45 11.5C71.45 12.832 70.988 13.96 70.064 14.884ZM64.934 13.282C65.402 13.75 65.984 13.984 66.68 13.984C67.376 13.984 67.958 13.75 68.426 13.282C68.894 12.814 69.128 12.22 69.128 11.5C69.128 10.78 68.894 10.186 68.426 9.718C67.958 9.25 67.376 9.016 66.68 9.016C65.984 9.016 65.402 9.25 64.934 9.718C64.478 10.186 64.25 10.78 64.25 11.5C64.25 12.22 64.478 12.814 64.934 13.282ZM73.0835 16V2.86H75.4055V16H73.0835ZM77.5308 16V2.86H79.8528V16H77.5308ZM87.846 7H90.33L87.054 16C86.586 17.296 85.962 18.232 85.182 18.808C84.414 19.396 83.454 19.66 82.302 19.6V17.44C82.926 17.452 83.418 17.32 83.778 17.044C84.15 16.768 84.444 16.324 84.66 15.712L80.97 7H83.508L85.848 13.048L87.846 7ZM106.069 7H108.535L105.673 16H103.459L101.803 10.546L100.147 16H97.933L95.071 7H97.537L99.067 12.526L100.705 7H102.901L104.539 12.544L106.069 7ZM117.103 14.884C116.179 15.796 115.051 16.252 113.719 16.252C112.387 16.252 111.259 15.796 110.335 14.884C109.423 13.96 108.967 12.832 108.967 11.5C108.967 10.168 109.423 9.046 110.335 8.134C111.259 7.21 112.387 6.748 113.719 6.748C115.051 6.748 116.179 7.21 117.103 8.134C118.027 9.046 118.489 10.168 118.489 11.5C118.489 12.832 118.027 13.96 117.103 14.884ZM111.973 13.282C112.441 13.75 113.023 13.984 113.719 13.984C114.415 13.984 114.997 13.75 115.465 13.282C115.933 12.814 116.167 12.22 116.167 11.5C116.167 10.78 115.933 10.186 115.465 9.718C114.997 9.25 114.415 9.016 113.719 9.016C113.023 9.016 112.441 9.25 111.973 9.718C111.517 10.186 111.289 10.78 111.289 11.5C111.289 12.22 111.517 12.814 111.973 13.282ZM122.445 8.548C122.661 7.972 123.015 7.54 123.507 7.252C124.011 6.964 124.569 6.82 125.181 6.82V9.412C124.473 9.328 123.837 9.472 123.273 9.844C122.721 10.216 122.445 10.834 122.445 11.698V16H120.123V7H122.445V8.548ZM133.027 3.4H135.349V16H133.027V14.938C132.343 15.814 131.371 16.252 130.111 16.252C128.899 16.252 127.861 15.796 126.997 14.884C126.145 13.96 125.719 12.832 125.719 11.5C125.719 10.168 126.145 9.046 126.997 8.134C127.861 7.21 128.899 6.748 130.111 6.748C131.371 6.748 132.343 7.186 133.027 8.062V3.4ZM128.743 13.336C129.223 13.804 129.823 14.038 130.543 14.038C131.263 14.038 131.857 13.804 132.325 13.336C132.793 12.856 133.027 12.244 133.027 11.5C133.027 10.756 132.793 10.15 132.325 9.682C131.857 9.202 131.263 8.962 130.543 8.962C129.823 8.962 129.223 9.202 128.743 9.682C128.275 10.15 128.041 10.756 128.041 11.5C128.041 12.244 128.275 12.856 128.743 13.336ZM139.544 9.556C139.544 9.796 139.7 9.994 140.012 10.15C140.336 10.294 140.726 10.426 141.182 10.546C141.638 10.654 142.094 10.798 142.55 10.978C143.006 11.146 143.39 11.434 143.702 11.842C144.026 12.25 144.188 12.76 144.188 13.372C144.188 14.296 143.84 15.01 143.144 15.514C142.46 16.006 141.602 16.252 140.57 16.252C138.722 16.252 137.462 15.538 136.79 14.11L138.806 12.976C139.07 13.756 139.658 14.146 140.57 14.146C141.398 14.146 141.812 13.888 141.812 13.372C141.812 13.132 141.65 12.94 141.326 12.796C141.014 12.64 140.63 12.502 140.174 12.382C139.718 12.262 139.262 12.112 138.806 11.932C138.35 11.752 137.96 11.47 137.636 11.086C137.324 10.69 137.168 10.198 137.168 9.61C137.168 8.722 137.492 8.026 138.14 7.522C138.8 7.006 139.616 6.748 140.588 6.748C141.32 6.748 141.986 6.916 142.586 7.252C143.186 7.576 143.66 8.044 144.008 8.656L142.028 9.736C141.74 9.124 141.26 8.818 140.588 8.818C140.288 8.818 140.036 8.884 139.832 9.016C139.64 9.148 139.544 9.328 139.544 9.556ZM160.403 7H162.869L160.007 16H157.793L156.137 10.546L154.481 16H152.267L149.405 7H151.871L153.401 12.526L155.039 7H157.235L158.873 12.544L160.403 7ZM165.273 5.92C164.889 5.92 164.553 5.782 164.265 5.506C163.989 5.218 163.851 4.882 163.851 4.498C163.851 4.114 163.989 3.778 164.265 3.49C164.553 3.202 164.889 3.058 165.273 3.058C165.669 3.058 166.005 3.202 166.281 3.49C166.569 3.778 166.713 4.114 166.713 4.498C166.713 4.882 166.569 5.218 166.281 5.506C166.005 5.782 165.669 5.92 165.273 5.92ZM164.121 16V7H166.443V16H164.121ZM175.39 3.4H177.712V16H175.39V14.938C174.706 15.814 173.734 16.252 172.474 16.252C171.262 16.252 170.224 15.796 169.36 14.884C168.508 13.96 168.082 12.832 168.082 11.5C168.082 10.168 168.508 9.046 169.36 8.134C170.224 7.21 171.262 6.748 172.474 6.748C173.734 6.748 174.706 7.186 175.39 8.062V3.4ZM171.106 13.336C171.586 13.804 172.186 14.038 172.906 14.038C173.626 14.038 174.22 13.804 174.688 13.336C175.156 12.856 175.39 12.244 175.39 11.5C175.39 10.756 175.156 10.15 174.688 9.682C174.22 9.202 173.626 8.962 172.906 8.962C172.186 8.962 171.586 9.202 171.106 9.682C170.638 10.15 170.404 10.756 170.404 11.5C170.404 12.244 170.638 12.856 171.106 13.336ZM187.503 14.884C186.579 15.796 185.451 16.252 184.119 16.252C182.787 16.252 181.659 15.796 180.735 14.884C179.823 13.96 179.367 12.832 179.367 11.5C179.367 10.168 179.823 9.046 180.735 8.134C181.659 7.21 182.787 6.748 184.119 6.748C185.451 6.748 186.579 7.21 187.503 8.134C188.427 9.046 188.889 10.168 188.889 11.5C188.889 12.832 188.427 13.96 187.503 14.884ZM182.373 13.282C182.841 13.75 183.423 13.984 184.119 13.984C184.815 13.984 185.397 13.75 185.865 13.282C186.333 12.814 186.567 12.22 186.567 11.5C186.567 10.78 186.333 10.186 185.865 9.718C185.397 9.25 184.815 9.016 184.119 9.016C183.423 9.016 182.841 9.25 182.373 9.718C181.917 10.186 181.689 10.78 181.689 11.5C181.689 12.22 181.917 12.814 182.373 13.282ZM200.305 7H202.771L199.909 16H197.695L196.039 10.546L194.383 16H192.169L189.307 7H191.773L193.303 12.526L194.941 7H197.137L198.775 12.544L200.305 7Z" fill="#99EFD0"/>
<path d="M54.59 45.46H58.93V47H52.98V37.2H58.86V38.74H54.59V41.288H58.51V42.814H54.59V45.46ZM63.9738 38.474C62.8725 38.3713 62.3218 38.8333 62.3218 39.86V40H63.9738V41.456H62.3218V47H60.8098V41.456H59.7458V40H60.8098V39.86C60.8098 38.8987 61.0758 38.1707 61.6078 37.676C62.1492 37.172 62.9378 36.9527 63.9738 37.018V38.474ZM68.6359 38.474C67.5346 38.3713 66.9839 38.8333 66.9839 39.86V40H68.6359V41.456H66.9839V47H65.4719V41.456H64.4079V40H65.4719V39.86C65.4719 38.8987 65.7379 38.1707 66.2699 37.676C66.8113 37.172 67.5999 36.9527 68.6359 37.018V38.474ZM70.3825 44.144C70.4945 44.676 70.7512 45.0867 71.1525 45.376C71.5539 45.656 72.0439 45.796 72.6225 45.796C73.4252 45.796 74.0272 45.5067 74.4285 44.928L75.6745 45.656C74.9839 46.6733 73.9619 47.182 72.6085 47.182C71.4699 47.182 70.5505 46.8367 69.8505 46.146C69.1505 45.446 68.8005 44.564 68.8005 43.5C68.8005 42.4547 69.1459 41.582 69.8365 40.882C70.5272 40.1727 71.4139 39.818 72.4965 39.818C73.5232 39.818 74.3632 40.1773 75.0165 40.896C75.6792 41.6147 76.0105 42.4873 76.0105 43.514C76.0105 43.6727 75.9919 43.8827 75.9545 44.144H70.3825ZM70.3685 42.912H74.4845C74.3819 42.3427 74.1439 41.9133 73.7705 41.624C73.4065 41.3347 72.9772 41.19 72.4825 41.19C71.9225 41.19 71.4559 41.344 71.0825 41.652C70.7092 41.96 70.4712 42.38 70.3685 42.912ZM80.604 47.182C79.5493 47.182 78.6673 46.8273 77.958 46.118C77.258 45.4087 76.908 44.536 76.908 43.5C76.908 42.4547 77.258 41.582 77.958 40.882C78.6673 40.1727 79.5493 39.818 80.604 39.818C81.2853 39.818 81.906 39.9813 82.466 40.308C83.026 40.6347 83.446 41.0733 83.726 41.624L82.424 42.38C82.2653 42.044 82.0226 41.7827 81.696 41.596C81.3786 41.4 81.01 41.302 80.59 41.302C79.974 41.302 79.456 41.512 79.036 41.932C78.6253 42.352 78.42 42.8747 78.42 43.5C78.42 44.1253 78.6253 44.648 79.036 45.068C79.456 45.488 79.974 45.698 80.59 45.698C81.0006 45.698 81.3693 45.6 81.696 45.404C82.032 45.208 82.284 44.9467 82.452 44.62L83.754 45.362C83.4553 45.922 83.026 46.3653 82.466 46.692C81.906 47.0187 81.2853 47.182 80.604 47.182ZM88.7528 41.456H87.0168V44.816C87.0168 45.1053 87.0822 45.3153 87.2128 45.446C87.3435 45.5673 87.5348 45.6373 87.7868 45.656C88.0482 45.6653 88.3702 45.6607 88.7528 45.642V47C87.5955 47.14 86.7648 47.042 86.2608 46.706C85.7568 46.3607 85.5048 45.7307 85.5048 44.816V41.456H84.2168V40H85.5048V38.488L87.0168 38.04V40H88.7528V41.456ZM95.1205 38.67C94.9339 38.8567 94.7099 38.95 94.4485 38.95C94.1872 38.95 93.9585 38.8567 93.7625 38.67C93.5759 38.474 93.4825 38.2453 93.4825 37.984C93.4825 37.7227 93.5759 37.4987 93.7625 37.312C93.9492 37.116 94.1779 37.018 94.4485 37.018C94.7192 37.018 94.9479 37.116 95.1345 37.312C95.3212 37.4987 95.4145 37.7227 95.4145 37.984C95.4145 38.2453 95.3165 38.474 95.1205 38.67ZM93.6925 47V40H95.2045V47H93.6925ZM100.628 38.474C99.5268 38.3713 98.9761 38.8333 98.9761 39.86V40H100.628V41.456H98.9761V47H97.4641V41.456H96.4001V40H97.4641V39.86C97.4641 38.8987 97.7301 38.1707 98.2621 37.676C98.8035 37.172 99.5921 36.9527 100.628 37.018V38.474ZM106.441 38.67C106.254 38.8567 106.03 38.95 105.769 38.95C105.508 38.95 105.279 38.8567 105.083 38.67C104.896 38.474 104.803 38.2453 104.803 37.984C104.803 37.7227 104.896 37.4987 105.083 37.312C105.27 37.116 105.498 37.018 105.769 37.018C106.04 37.018 106.268 37.116 106.455 37.312C106.642 37.4987 106.735 37.7227 106.735 37.984C106.735 38.2453 106.637 38.474 106.441 38.67ZM105.013 47V40H106.525V47H105.013ZM111.962 39.818C112.765 39.818 113.414 40.0747 113.908 40.588C114.403 41.1013 114.65 41.806 114.65 42.702V47H113.138V42.856C113.138 42.3333 112.998 41.932 112.718 41.652C112.438 41.372 112.056 41.232 111.57 41.232C111.038 41.232 110.609 41.4 110.282 41.736C109.956 42.0627 109.792 42.5667 109.792 43.248V47H108.28V40H109.792V40.896C110.25 40.1773 110.973 39.818 111.962 39.818ZM124.496 40H126.008V47H124.496V46.104C124.039 46.8227 123.316 47.182 122.326 47.182C121.524 47.182 120.875 46.9253 120.38 46.412C119.886 45.8987 119.638 45.194 119.638 44.298V40H121.15V44.144C121.15 44.6667 121.29 45.068 121.57 45.348C121.85 45.628 122.233 45.768 122.718 45.768C123.25 45.768 123.68 45.6047 124.006 45.278C124.333 44.942 124.496 44.4333 124.496 43.752V40ZM131.739 39.818C132.7 39.818 133.521 40.1773 134.203 40.896C134.884 41.6053 135.225 42.4733 135.225 43.5C135.225 44.536 134.884 45.4087 134.203 46.118C133.521 46.8273 132.7 47.182 131.739 47.182C130.675 47.182 129.858 46.79 129.289 46.006V49.8H127.777V40H129.289V41.008C129.858 40.2147 130.675 39.818 131.739 39.818ZM129.919 45.11C130.339 45.53 130.866 45.74 131.501 45.74C132.135 45.74 132.663 45.53 133.083 45.11C133.503 44.6807 133.713 44.144 133.713 43.5C133.713 42.856 133.503 42.324 133.083 41.904C132.663 41.4747 132.135 41.26 131.501 41.26C130.866 41.26 130.339 41.4747 129.919 41.904C129.499 42.324 129.289 42.856 129.289 43.5C129.289 44.144 129.499 44.6807 129.919 45.11ZM143.777 39.818C144.58 39.818 145.228 40.0747 145.723 40.588C146.218 41.1013 146.465 41.806 146.465 42.702V47H144.953V42.856C144.953 42.3333 144.813 41.932 144.533 41.652C144.253 41.372 143.87 41.232 143.385 41.232C142.853 41.232 142.424 41.4 142.097 41.736C141.77 42.0627 141.607 42.5667 141.607 43.248V47H140.095V40H141.607V40.896C142.064 40.1773 142.788 39.818 143.777 39.818ZM151.397 47.182C150.37 47.182 149.498 46.8273 148.779 46.118C148.06 45.4087 147.701 44.536 147.701 43.5C147.701 42.464 148.06 41.5913 148.779 40.882C149.498 40.1727 150.37 39.818 151.397 39.818C152.433 39.818 153.306 40.1727 154.015 40.882C154.734 41.5913 155.093 42.464 155.093 43.5C155.093 44.536 154.734 45.4087 154.015 46.118C153.306 46.8273 152.433 47.182 151.397 47.182ZM149.843 45.082C150.263 45.502 150.781 45.712 151.397 45.712C152.013 45.712 152.531 45.502 152.951 45.082C153.371 44.662 153.581 44.1347 153.581 43.5C153.581 42.8653 153.371 42.338 152.951 41.918C152.531 41.498 152.013 41.288 151.397 41.288C150.781 41.288 150.263 41.498 149.843 41.918C149.423 42.338 149.213 42.8653 149.213 43.5C149.213 44.1347 149.423 44.662 149.843 45.082ZM165.504 37.2H167.016V47H165.504V45.992C164.935 46.7853 164.118 47.182 163.054 47.182C162.093 47.182 161.271 46.8273 160.59 46.118C159.909 45.3993 159.568 44.5267 159.568 43.5C159.568 42.464 159.909 41.5913 160.59 40.882C161.271 40.1727 162.093 39.818 163.054 39.818C164.118 39.818 164.935 40.21 165.504 40.994V37.2ZM161.71 45.11C162.13 45.53 162.657 45.74 163.292 45.74C163.927 45.74 164.454 45.53 164.874 45.11C165.294 44.6807 165.504 44.144 165.504 43.5C165.504 42.856 165.294 42.324 164.874 41.904C164.454 41.4747 163.927 41.26 163.292 41.26C162.657 41.26 162.13 41.4747 161.71 41.904C161.29 42.324 161.08 42.856 161.08 43.5C161.08 44.144 161.29 44.6807 161.71 45.11ZM169.968 44.144C170.08 44.676 170.337 45.0867 170.738 45.376C171.14 45.656 171.63 45.796 172.208 45.796C173.011 45.796 173.613 45.5067 174.014 44.928L175.26 45.656C174.57 46.6733 173.548 47.182 172.194 47.182C171.056 47.182 170.136 46.8367 169.436 46.146C168.736 45.446 168.386 44.564 168.386 43.5C168.386 42.4547 168.732 41.582 169.422 40.882C170.113 40.1727 171 39.818 172.082 39.818C173.109 39.818 173.949 40.1773 174.602 40.896C175.265 41.6147 175.596 42.4873 175.596 43.514C175.596 43.6727 175.578 43.8827 175.54 44.144H169.968ZM169.954 42.912H174.07C173.968 42.3427 173.73 41.9133 173.356 41.624C172.992 41.3347 172.563 41.19 172.068 41.19C171.508 41.19 171.042 41.344 170.668 41.652C170.295 41.96 170.057 42.38 169.954 42.912ZM180.889 39.818C181.85 39.818 182.672 40.1773 183.353 40.896C184.034 41.6053 184.375 42.4733 184.375 43.5C184.375 44.536 184.034 45.4087 183.353 46.118C182.672 46.8273 181.85 47.182 180.889 47.182C179.825 47.182 179.008 46.79 178.439 46.006V49.8H176.927V40H178.439V41.008C179.008 40.2147 179.825 39.818 180.889 39.818ZM179.069 45.11C179.489 45.53 180.016 45.74 180.651 45.74C181.286 45.74 181.813 45.53 182.233 45.11C182.653 44.6807 182.863 44.144 182.863 43.5C182.863 42.856 182.653 42.324 182.233 41.904C181.813 41.4747 181.286 41.26 180.651 41.26C180.016 41.26 179.489 41.4747 179.069 41.904C178.649 42.324 178.439 42.856 178.439 43.5C178.439 44.144 178.649 44.6807 179.069 45.11ZM186.935 44.144C187.047 44.676 187.304 45.0867 187.705 45.376C188.107 45.656 188.597 45.796 189.175 45.796C189.978 45.796 190.58 45.5067 190.981 44.928L192.227 45.656C191.537 46.6733 190.515 47.182 189.161 47.182C188.023 47.182 187.103 46.8367 186.403 46.146C185.703 45.446 185.353 44.564 185.353 43.5C185.353 42.4547 185.699 41.582 186.389 40.882C187.08 40.1727 187.967 39.818 189.049 39.818C190.076 39.818 190.916 40.1773 191.569 40.896C192.232 41.6147 192.563 42.4873 192.563 43.514C192.563 43.6727 192.545 43.8827 192.507 44.144H186.935ZM186.921 42.912H191.037C190.935 42.3427 190.697 41.9133 190.323 41.624C189.959 41.3347 189.53 41.19 189.035 41.19C188.475 41.19 188.009 41.344 187.635 41.652C187.262 41.96 187.024 42.38 186.921 42.912ZM197.576 39.818C198.378 39.818 199.027 40.0747 199.522 40.588C200.016 41.1013 200.264 41.806 200.264 42.702V47H198.752V42.856C198.752 42.3333 198.612 41.932 198.332 41.652C198.052 41.372 197.669 41.232 197.184 41.232C196.652 41.232 196.222 41.4 195.896 41.736C195.569 42.0627 195.406 42.5667 195.406 43.248V47H193.894V40H195.406V40.896C195.863 40.1773 196.586 39.818 197.576 39.818ZM207.436 37.2H208.948V47H207.436V45.992C206.866 46.7853 206.05 47.182 204.986 47.182C204.024 47.182 203.203 46.8273 202.522 46.118C201.84 45.3993 201.5 44.5267 201.5 43.5C201.5 42.464 201.84 41.5913 202.522 40.882C203.203 40.1727 204.024 39.818 204.986 39.818C206.05 39.818 206.866 40.21 207.436 40.994V37.2ZM203.642 45.11C204.062 45.53 204.589 45.74 205.224 45.74C205.858 45.74 206.386 45.53 206.806 45.11C207.226 44.6807 207.436 44.144 207.436 43.5C207.436 42.856 207.226 42.324 206.806 41.904C206.386 41.4747 205.858 41.26 205.224 41.26C204.589 41.26 204.062 41.4747 203.642 41.904C203.222 42.324 203.012 42.856 203.012 43.5C203.012 44.144 203.222 44.6807 203.642 45.11ZM215.568 41.932C215.568 42.1653 215.694 42.352 215.946 42.492C216.207 42.6227 216.52 42.7393 216.884 42.842C217.257 42.9353 217.631 43.0473 218.004 43.178C218.377 43.3087 218.69 43.5327 218.942 43.85C219.203 44.158 219.334 44.55 219.334 45.026C219.334 45.698 219.073 46.2253 218.55 46.608C218.037 46.9907 217.388 47.182 216.604 47.182C215.913 47.182 215.321 47.0373 214.826 46.748C214.331 46.4587 213.972 46.0573 213.748 45.544L215.05 44.788C215.293 45.46 215.811 45.796 216.604 45.796C217.397 45.796 217.794 45.5347 217.794 45.012C217.794 44.788 217.663 44.606 217.402 44.466C217.15 44.326 216.837 44.2093 216.464 44.116C216.1 44.0133 215.731 43.8967 215.358 43.766C214.985 43.6353 214.667 43.4207 214.406 43.122C214.154 42.814 214.028 42.4267 214.028 41.96C214.028 41.316 214.271 40.798 214.756 40.406C215.251 40.014 215.862 39.818 216.59 39.818C217.169 39.818 217.682 39.9487 218.13 40.21C218.587 40.462 218.937 40.8167 219.18 41.274L217.906 41.988C217.663 41.456 217.225 41.19 216.59 41.19C216.301 41.19 216.058 41.2553 215.862 41.386C215.666 41.5073 215.568 41.6893 215.568 41.932ZM221.676 44.144C221.788 44.676 222.044 45.0867 222.446 45.376C222.847 45.656 223.337 45.796 223.916 45.796C224.718 45.796 225.32 45.5067 225.722 44.928L226.968 45.656C226.277 46.6733 225.255 47.182 223.902 47.182C222.763 47.182 221.844 46.8367 221.144 46.146C220.444 45.446 220.094 44.564 220.094 43.5C220.094 42.4547 220.439 41.582 221.13 40.882C221.82 40.1727 222.707 39.818 223.79 39.818C224.816 39.818 225.656 40.1773 226.31 40.896C226.972 41.6147 227.304 42.4873 227.304 43.514C227.304 43.6727 227.285 43.8827 227.248 44.144H221.676ZM221.662 42.912H225.778C225.675 42.3427 225.437 41.9133 225.064 41.624C224.7 41.3347 224.27 41.19 223.776 41.19C223.216 41.19 222.749 41.344 222.376 41.652C222.002 41.96 221.764 42.38 221.662 42.912ZM229.783 44.144C229.895 44.676 230.152 45.0867 230.553 45.376C230.954 45.656 231.444 45.796 232.023 45.796C232.826 45.796 233.428 45.5067 233.829 44.928L235.075 45.656C234.384 46.6733 233.362 47.182 232.009 47.182C230.87 47.182 229.951 46.8367 229.251 46.146C228.551 45.446 228.201 44.564 228.201 43.5C228.201 42.4547 228.546 41.582 229.237 40.882C229.928 40.1727 230.814 39.818 231.897 39.818C232.924 39.818 233.764 40.1773 234.417 40.896C235.08 41.6147 235.411 42.4873 235.411 43.514C235.411 43.6727 235.392 43.8827 235.355 44.144H229.783ZM229.769 42.912H233.885C233.782 42.3427 233.544 41.9133 233.171 41.624C232.807 41.3347 232.378 41.19 231.883 41.19C231.323 41.19 230.856 41.344 230.483 41.652C230.11 41.96 229.872 42.38 229.769 42.912ZM244.385 39.818C245.179 39.818 245.818 40.0747 246.303 40.588C246.789 41.1013 247.031 41.792 247.031 42.66V47H245.519V42.758C245.519 42.2727 245.398 41.8993 245.155 41.638C244.913 41.3673 244.581 41.232 244.161 41.232C243.695 41.232 243.321 41.386 243.041 41.694C242.771 42.002 242.635 42.464 242.635 43.08V47H241.123V42.758C241.123 42.2727 241.007 41.8993 240.773 41.638C240.549 41.3673 240.227 41.232 239.807 41.232C239.35 41.232 238.977 41.3907 238.687 41.708C238.398 42.016 238.253 42.4733 238.253 43.08V47H236.741V40H238.253V40.84C238.701 40.1587 239.369 39.818 240.255 39.818C241.151 39.818 241.814 40.1867 242.243 40.924C242.71 40.1867 243.424 39.818 244.385 39.818ZM249.84 44.144C249.952 44.676 250.208 45.0867 250.61 45.376C251.011 45.656 251.501 45.796 252.08 45.796C252.882 45.796 253.484 45.5067 253.886 44.928L255.132 45.656C254.441 46.6733 253.419 47.182 252.066 47.182C250.927 47.182 250.008 46.8367 249.308 46.146C248.608 45.446 248.258 44.564 248.258 43.5C248.258 42.4547 248.603 41.582 249.294 40.882C249.984 40.1727 250.871 39.818 251.954 39.818C252.98 39.818 253.82 40.1773 254.474 40.896C255.136 41.6147 255.468 42.4873 255.468 43.514C255.468 43.6727 255.449 43.8827 255.412 44.144H249.84ZM249.826 42.912H253.942C253.839 42.3427 253.601 41.9133 253.228 41.624C252.864 41.3347 252.434 41.19 251.94 41.19C251.38 41.19 250.913 41.344 250.54 41.652C250.166 41.96 249.928 42.38 249.826 42.912ZM262.301 37.2H263.813V47H262.301V45.992C261.732 46.7853 260.915 47.182 259.851 47.182C258.89 47.182 258.068 46.8273 257.387 46.118C256.706 45.3993 256.365 44.5267 256.365 43.5C256.365 42.464 256.706 41.5913 257.387 40.882C258.068 40.1727 258.89 39.818 259.851 39.818C260.915 39.818 261.732 40.21 262.301 40.994V37.2ZM258.507 45.11C258.927 45.53 259.454 45.74 260.089 45.74C260.724 45.74 261.251 45.53 261.671 45.11C262.091 44.6807 262.301 44.144 262.301 43.5C262.301 42.856 262.091 42.324 261.671 41.904C261.251 41.4747 260.724 41.26 260.089 41.26C259.454 41.26 258.927 41.4747 258.507 41.904C258.087 42.324 257.877 42.856 257.877 43.5C257.877 44.144 258.087 44.6807 258.507 45.11ZM267.227 46.86C267.022 47.0653 266.775 47.168 266.485 47.168C266.196 47.168 265.949 47.0653 265.743 46.86C265.538 46.6547 265.435 46.4073 265.435 46.118C265.435 45.8287 265.533 45.5813 265.729 45.376C265.935 45.1707 266.187 45.068 266.485 45.068C266.775 45.068 267.022 45.1707 267.227 45.376C267.433 45.5813 267.535 45.8287 267.535 46.118C267.535 46.4073 267.433 46.6547 267.227 46.86ZM54.59 67.46H58.93V69H52.98V59.2H58.86V60.74H54.59V63.288H58.51V64.814H54.59V67.46ZM63.4731 69.182C62.4184 69.182 61.5364 68.8273 60.8271 68.118C60.1271 67.4087 59.7771 66.536 59.7771 65.5C59.7771 64.4547 60.1271 63.582 60.8271 62.882C61.5364 62.1727 62.4184 61.818 63.4731 61.818C64.1544 61.818 64.7751 61.9813 65.3351 62.308C65.8951 62.6347 66.3151 63.0733 66.5951 63.624L65.2931 64.38C65.1344 64.044 64.8918 63.7827 64.5651 63.596C64.2478 63.4 63.8791 63.302 63.4591 63.302C62.8431 63.302 62.3251 63.512 61.9051 63.932C61.4944 64.352 61.2891 64.8747 61.2891 65.5C61.2891 66.1253 61.4944 66.648 61.9051 67.068C62.3251 67.488 62.8431 67.698 63.4591 67.698C63.8698 67.698 64.2384 67.6 64.5651 67.404C64.9011 67.208 65.1531 66.9467 65.3211 66.62L66.6231 67.362C66.3244 67.922 65.8951 68.3653 65.3351 68.692C64.7751 69.0187 64.1544 69.182 63.4731 69.182ZM69.033 63.932C69.033 64.1653 69.159 64.352 69.411 64.492C69.6723 64.6227 69.985 64.7393 70.349 64.842C70.7223 64.9353 71.0956 65.0473 71.469 65.178C71.8423 65.3087 72.155 65.5327 72.407 65.85C72.6683 66.158 72.799 66.55 72.799 67.026C72.799 67.698 72.5376 68.2253 72.015 68.608C71.5016 68.9907 70.853 69.182 70.069 69.182C69.3783 69.182 68.7856 69.0373 68.291 68.748C67.7963 68.4587 67.437 68.0573 67.213 67.544L68.515 66.788C68.7576 67.46 69.2756 67.796 70.069 67.796C70.8623 67.796 71.259 67.5347 71.259 67.012C71.259 66.788 71.1283 66.606 70.867 66.466C70.615 66.326 70.3023 66.2093 69.929 66.116C69.565 66.0133 69.1963 65.8967 68.823 65.766C68.4496 65.6353 68.1323 65.4207 67.871 65.122C67.619 64.814 67.493 64.4267 67.493 63.96C67.493 63.316 67.7356 62.798 68.221 62.406C68.7156 62.014 69.327 61.818 70.055 61.818C70.6336 61.818 71.147 61.9487 71.595 62.21C72.0523 62.462 72.4023 62.8167 72.645 63.274L71.371 63.988C71.1283 63.456 70.6896 63.19 70.055 63.19C69.7656 63.19 69.523 63.2553 69.327 63.386C69.131 63.5073 69.033 63.6893 69.033 63.932ZM77.7607 63.456H76.0247V66.816C76.0247 67.1053 76.09 67.3153 76.2207 67.446C76.3513 67.5673 76.5427 67.6373 76.7947 67.656C77.056 67.6653 77.378 67.6607 77.7607 67.642V69C76.6033 69.14 75.7727 69.042 75.2687 68.706C74.7647 68.3607 74.5127 67.7307 74.5127 66.816V63.456H73.2247V62H74.5127V60.488L76.0247 60.04V62H77.7607V63.456ZM84.3889 62H85.9009V69H84.3889V67.992C83.8196 68.7853 83.0029 69.182 81.9389 69.182C80.9776 69.182 80.1562 68.8273 79.4749 68.118C78.7936 67.3993 78.4529 66.5267 78.4529 65.5C78.4529 64.464 78.7936 63.5913 79.4749 62.882C80.1562 62.1727 80.9776 61.818 81.9389 61.818C83.0029 61.818 83.8196 62.21 84.3889 62.994V62ZM80.5949 67.11C81.0149 67.53 81.5422 67.74 82.1769 67.74C82.8116 67.74 83.3389 67.53 83.7589 67.11C84.1789 66.6807 84.3889 66.144 84.3889 65.5C84.3889 64.856 84.1789 64.324 83.7589 63.904C83.3389 63.4747 82.8116 63.26 82.1769 63.26C81.5422 63.26 81.0149 63.4747 80.5949 63.904C80.1749 64.324 79.9649 64.856 79.9649 65.5C79.9649 66.144 80.1749 66.6807 80.5949 67.11ZM91.5693 63.456H89.8333V66.816C89.8333 67.1053 89.8986 67.3153 90.0293 67.446C90.1599 67.5673 90.3513 67.6373 90.6033 67.656C90.8646 67.6653 91.1866 67.6607 91.5693 67.642V69C90.4119 69.14 89.5813 69.042 89.0773 68.706C88.5733 68.3607 88.3213 67.7307 88.3213 66.816V63.456H87.0333V62H88.3213V60.488L89.8333 60.04V62H91.5693V63.456ZM94.3686 60.67C94.1819 60.8567 93.9579 60.95 93.6966 60.95C93.4353 60.95 93.2066 60.8567 93.0106 60.67C92.8239 60.474 92.7306 60.2453 92.7306 59.984C92.7306 59.7227 92.8239 59.4987 93.0106 59.312C93.1973 59.116 93.4259 59.018 93.6966 59.018C93.9673 59.018 94.1959 59.116 94.3826 59.312C94.5693 59.4987 94.6626 59.7227 94.6626 59.984C94.6626 60.2453 94.5646 60.474 94.3686 60.67ZM92.9406 69V62H94.4526V69H92.9406ZM99.5122 69.182C98.4575 69.182 97.5755 68.8273 96.8662 68.118C96.1662 67.4087 95.8162 66.536 95.8162 65.5C95.8162 64.4547 96.1662 63.582 96.8662 62.882C97.5755 62.1727 98.4575 61.818 99.5122 61.818C100.194 61.818 100.814 61.9813 101.374 62.308C101.934 62.6347 102.354 63.0733 102.634 63.624L101.332 64.38C101.174 64.044 100.931 63.7827 100.604 63.596C100.287 63.4 99.9182 63.302 99.4982 63.302C98.8822 63.302 98.3642 63.512 97.9442 63.932C97.5335 64.352 97.3282 64.8747 97.3282 65.5C97.3282 66.1253 97.5335 66.648 97.9442 67.068C98.3642 67.488 98.8822 67.698 99.4982 67.698C99.9088 67.698 100.278 67.6 100.604 67.404C100.94 67.208 101.192 66.9467 101.36 66.62L102.662 67.362C102.364 67.922 101.934 68.3653 101.374 68.692C100.814 69.0187 100.194 69.182 99.5122 69.182ZM108.486 66.144C108.598 66.676 108.855 67.0867 109.256 67.376C109.657 67.656 110.147 67.796 110.726 67.796C111.529 67.796 112.131 67.5067 112.532 66.928L113.778 67.656C113.087 68.6733 112.065 69.182 110.712 69.182C109.573 69.182 108.654 68.8367 107.954 68.146C107.254 67.446 106.904 66.564 106.904 65.5C106.904 64.4547 107.249 63.582 107.94 62.882C108.631 62.1727 109.517 61.818 110.6 61.818C111.627 61.818 112.467 62.1773 113.12 62.896C113.783 63.6147 114.114 64.4873 114.114 65.514C114.114 65.6727 114.095 65.8827 114.058 66.144H108.486ZM108.472 64.912H112.588C112.485 64.3427 112.247 63.9133 111.874 63.624C111.51 63.3347 111.081 63.19 110.586 63.19C110.026 63.19 109.559 63.344 109.186 63.652C108.813 63.96 108.575 64.38 108.472 64.912ZM115.445 69V58.78H116.957V69H115.445ZM119.902 66.144C120.014 66.676 120.271 67.0867 120.672 67.376C121.073 67.656 121.563 67.796 122.142 67.796C122.945 67.796 123.547 67.5067 123.948 66.928L125.194 67.656C124.503 68.6733 123.481 69.182 122.128 69.182C120.989 69.182 120.07 68.8367 119.37 68.146C118.67 67.446 118.32 66.564 118.32 65.5C118.32 64.4547 118.665 63.582 119.356 62.882C120.047 62.1727 120.933 61.818 122.016 61.818C123.043 61.818 123.883 62.1773 124.536 62.896C125.199 63.6147 125.53 64.4873 125.53 65.514C125.53 65.6727 125.511 65.8827 125.474 66.144H119.902ZM119.888 64.912H124.004C123.901 64.3427 123.663 63.9133 123.29 63.624C122.926 63.3347 122.497 63.19 122.002 63.19C121.442 63.19 120.975 63.344 120.602 63.652C120.229 63.96 119.991 64.38 119.888 64.912ZM132.392 62H133.876V68.678C133.876 69.742 133.526 70.5587 132.826 71.128C132.126 71.6973 131.276 71.982 130.278 71.982C128.663 71.982 127.557 71.4173 126.96 70.288L128.262 69.532C128.626 70.2507 129.307 70.61 130.306 70.61C130.959 70.61 131.468 70.4373 131.832 70.092C132.205 69.756 132.392 69.2847 132.392 68.678V67.824C131.822 68.636 131.01 69.042 129.956 69.042C128.966 69.042 128.131 68.692 127.45 67.992C126.768 67.2827 126.428 66.4287 126.428 65.43C126.428 64.4313 126.768 63.582 127.45 62.882C128.131 62.1727 128.966 61.818 129.956 61.818C131.01 61.818 131.822 62.224 132.392 63.036V62ZM128.57 66.998C128.999 67.418 129.531 67.628 130.166 67.628C130.8 67.628 131.328 67.418 131.748 66.998C132.177 66.578 132.392 66.0553 132.392 65.43C132.392 64.8047 132.177 64.282 131.748 63.862C131.328 63.442 130.8 63.232 130.166 63.232C129.531 63.232 128.999 63.442 128.57 63.862C128.15 64.282 127.94 64.8047 127.94 65.43C127.94 66.0553 128.15 66.578 128.57 66.998ZM141.182 62H142.694V69H141.182V67.992C140.613 68.7853 139.796 69.182 138.732 69.182C137.771 69.182 136.949 68.8273 136.268 68.118C135.587 67.3993 135.246 66.5267 135.246 65.5C135.246 64.464 135.587 63.5913 136.268 62.882C136.949 62.1727 137.771 61.818 138.732 61.818C139.796 61.818 140.613 62.21 141.182 62.994V62ZM137.388 67.11C137.808 67.53 138.335 67.74 138.97 67.74C139.605 67.74 140.132 67.53 140.552 67.11C140.972 66.6807 141.182 66.144 141.182 65.5C141.182 64.856 140.972 64.324 140.552 63.904C140.132 63.4747 139.605 63.26 138.97 63.26C138.335 63.26 137.808 63.4747 137.388 63.904C136.968 64.324 136.758 64.856 136.758 65.5C136.758 66.144 136.968 66.6807 137.388 67.11ZM148.138 61.818C148.941 61.818 149.59 62.0747 150.084 62.588C150.579 63.1013 150.826 63.806 150.826 64.702V69H149.314V64.856C149.314 64.3333 149.174 63.932 148.894 63.652C148.614 63.372 148.232 63.232 147.746 63.232C147.214 63.232 146.785 63.4 146.458 63.736C146.132 64.0627 145.968 64.5667 145.968 65.248V69H144.456V62H145.968V62.896C146.426 62.1773 147.149 61.818 148.138 61.818ZM155.758 69.182C154.704 69.182 153.822 68.8273 153.112 68.118C152.412 67.4087 152.062 66.536 152.062 65.5C152.062 64.4547 152.412 63.582 153.112 62.882C153.822 62.1727 154.704 61.818 155.758 61.818C156.44 61.818 157.06 61.9813 157.62 62.308C158.18 62.6347 158.6 63.0733 158.88 63.624L157.578 64.38C157.42 64.044 157.177 63.7827 156.85 63.596C156.533 63.4 156.164 63.302 155.744 63.302C155.128 63.302 154.61 63.512 154.19 63.932C153.78 64.352 153.574 64.8747 153.574 65.5C153.574 66.1253 153.78 66.648 154.19 67.068C154.61 67.488 155.128 67.698 155.744 67.698C156.155 67.698 156.524 67.6 156.85 67.404C157.186 67.208 157.438 66.9467 157.606 66.62L158.908 67.362C158.61 67.922 158.18 68.3653 157.62 68.692C157.06 69.0187 156.44 69.182 155.758 69.182ZM161.082 66.144C161.194 66.676 161.45 67.0867 161.852 67.376C162.253 67.656 162.743 67.796 163.322 67.796C164.124 67.796 164.726 67.5067 165.128 66.928L166.374 67.656C165.683 68.6733 164.661 69.182 163.308 69.182C162.169 69.182 161.25 68.8367 160.55 68.146C159.85 67.446 159.5 66.564 159.5 65.5C159.5 64.4547 159.845 63.582 160.536 62.882C161.226 62.1727 162.113 61.818 163.196 61.818C164.222 61.818 165.062 62.1773 165.716 62.896C166.378 63.6147 166.71 64.4873 166.71 65.514C166.71 65.6727 166.691 65.8827 166.654 66.144H161.082ZM161.068 64.912H165.184C165.081 64.3427 164.843 63.9133 164.47 63.624C164.106 63.3347 163.676 63.19 163.182 63.19C162.622 63.19 162.155 63.344 161.782 63.652C161.408 63.96 161.17 64.38 161.068 64.912ZM177.112 62H178.596V68.678C178.596 69.742 178.246 70.5587 177.546 71.128C176.846 71.6973 175.997 71.982 174.998 71.982C173.384 71.982 172.278 71.4173 171.68 70.288L172.982 69.532C173.346 70.2507 174.028 70.61 175.026 70.61C175.68 70.61 176.188 70.4373 176.552 70.092C176.926 69.756 177.112 69.2847 177.112 68.678V67.824C176.543 68.636 175.731 69.042 174.676 69.042C173.687 69.042 172.852 68.692 172.17 67.992C171.489 67.2827 171.148 66.4287 171.148 65.43C171.148 64.4313 171.489 63.582 172.17 62.882C172.852 62.1727 173.687 61.818 174.676 61.818C175.731 61.818 176.543 62.224 177.112 63.036V62ZM173.29 66.998C173.72 67.418 174.252 67.628 174.886 67.628C175.521 67.628 176.048 67.418 176.468 66.998C176.898 66.578 177.112 66.0553 177.112 65.43C177.112 64.8047 176.898 64.282 176.468 63.862C176.048 63.442 175.521 63.232 174.886 63.232C174.252 63.232 173.72 63.442 173.29 63.862C172.87 64.282 172.66 64.8047 172.66 65.43C172.66 66.0553 172.87 66.578 173.29 66.998ZM185.903 62H187.415V69H185.903V67.992C185.333 68.7853 184.517 69.182 183.453 69.182C182.491 69.182 181.67 68.8273 180.989 68.118C180.307 67.3993 179.967 66.5267 179.967 65.5C179.967 64.464 180.307 63.5913 180.989 62.882C181.67 62.1727 182.491 61.818 183.453 61.818C184.517 61.818 185.333 62.21 185.903 62.994V62ZM182.109 67.11C182.529 67.53 183.056 67.74 183.691 67.74C184.325 67.74 184.853 67.53 185.273 67.11C185.693 66.6807 185.903 66.144 185.903 65.5C185.903 64.856 185.693 64.324 185.273 63.904C184.853 63.4747 184.325 63.26 183.691 63.26C183.056 63.26 182.529 63.4747 182.109 63.904C181.689 64.324 181.479 64.856 181.479 65.5C181.479 66.144 181.689 66.6807 182.109 67.11ZM193.895 62H195.505L192.817 69.224C192.145 71.0347 191.006 71.8933 189.401 71.8V70.386C189.877 70.414 190.26 70.3113 190.549 70.078C190.838 69.854 191.076 69.4993 191.263 69.014L191.333 68.874L188.365 62H190.017L192.103 67.082L193.895 62ZM203.912 61.818C204.874 61.818 205.695 62.1727 206.376 62.882C207.058 63.5913 207.398 64.464 207.398 65.5C207.398 66.5267 207.058 67.3993 206.376 68.118C205.695 68.8273 204.874 69.182 203.912 69.182C202.848 69.182 202.032 68.7853 201.462 67.992V69H199.95V59.2H201.462V62.994C202.032 62.21 202.848 61.818 203.912 61.818ZM202.092 67.11C202.512 67.53 203.04 67.74 203.674 67.74C204.309 67.74 204.836 67.53 205.256 67.11C205.676 66.6807 205.886 66.144 205.886 65.5C205.886 64.856 205.676 64.324 205.256 63.904C204.836 63.4747 204.309 63.26 203.674 63.26C203.04 63.26 202.512 63.4747 202.092 63.904C201.672 64.324 201.462 64.856 201.462 65.5C201.462 66.144 201.672 66.6807 202.092 67.11ZM213.487 62H214.999V69H213.487V68.104C213.029 68.8227 212.306 69.182 211.317 69.182C210.514 69.182 209.865 68.9253 209.371 68.412C208.876 67.8987 208.629 67.194 208.629 66.298V62H210.141V66.144C210.141 66.6667 210.281 67.068 210.561 67.348C210.841 67.628 211.223 67.768 211.709 67.768C212.241 67.768 212.67 67.6047 212.997 67.278C213.323 66.942 213.487 66.4333 213.487 65.752V62ZM220.673 63.456H218.937V66.816C218.937 67.1053 219.002 67.3153 219.133 67.446C219.263 67.5673 219.455 67.6373 219.707 67.656C219.968 67.6653 220.29 67.6607 220.673 67.642V69C219.515 69.14 218.685 69.042 218.181 68.706C217.677 68.3607 217.425 67.7307 217.425 66.816V63.456H216.137V62H217.425V60.488L218.937 60.04V62H220.673V63.456ZM231.156 59.2H232.668V69H231.156V67.992C230.587 68.7853 229.77 69.182 228.706 69.182C227.745 69.182 226.924 68.8273 226.242 68.118C225.561 67.3993 225.22 66.5267 225.22 65.5C225.22 64.464 225.561 63.5913 226.242 62.882C226.924 62.1727 227.745 61.818 228.706 61.818C229.77 61.818 230.587 62.21 231.156 62.994V59.2ZM227.362 67.11C227.782 67.53 228.31 67.74 228.944 67.74C229.579 67.74 230.106 67.53 230.526 67.11C230.946 66.6807 231.156 66.144 231.156 65.5C231.156 64.856 230.946 64.324 230.526 63.904C230.106 63.4747 229.579 63.26 228.944 63.26C228.31 63.26 227.782 63.4747 227.362 63.904C226.942 64.324 226.732 64.856 226.732 65.5C226.732 66.144 226.942 66.6807 227.362 67.11ZM235.859 60.67C235.672 60.8567 235.448 60.95 235.187 60.95C234.925 60.95 234.697 60.8567 234.501 60.67C234.314 60.474 234.221 60.2453 234.221 59.984C234.221 59.7227 234.314 59.4987 234.501 59.312C234.687 59.116 234.916 59.018 235.187 59.018C235.457 59.018 235.686 59.116 235.873 59.312C236.059 59.4987 236.153 59.7227 236.153 59.984C236.153 60.2453 236.055 60.474 235.859 60.67ZM234.431 69V62H235.943V69H234.431ZM239.015 63.932C239.015 64.1653 239.141 64.352 239.393 64.492C239.655 64.6227 239.967 64.7393 240.331 64.842C240.705 64.9353 241.078 65.0473 241.451 65.178C241.825 65.3087 242.137 65.5327 242.389 65.85C242.651 66.158 242.781 66.55 242.781 67.026C242.781 67.698 242.52 68.2253 241.997 68.608C241.484 68.9907 240.835 69.182 240.051 69.182C239.361 69.182 238.768 69.0373 238.273 68.748C237.779 68.4587 237.419 68.0573 237.195 67.544L238.497 66.788C238.74 67.46 239.258 67.796 240.051 67.796C240.845 67.796 241.241 67.5347 241.241 67.012C241.241 66.788 241.111 66.606 240.849 66.466C240.597 66.326 240.285 66.2093 239.911 66.116C239.547 66.0133 239.179 65.8967 238.805 65.766C238.432 65.6353 238.115 65.4207 237.853 65.122C237.601 64.814 237.475 64.4267 237.475 63.96C237.475 63.316 237.718 62.798 238.203 62.406C238.698 62.014 239.309 61.818 240.037 61.818C240.616 61.818 241.129 61.9487 241.577 62.21C242.035 62.462 242.385 62.8167 242.627 63.274L241.353 63.988C241.111 63.456 240.672 63.19 240.037 63.19C239.748 63.19 239.505 63.2553 239.309 63.386C239.113 63.5073 239.015 63.6893 239.015 63.932ZM248.073 61.818C249.034 61.818 249.855 62.1773 250.537 62.896C251.218 63.6053 251.559 64.4733 251.559 65.5C251.559 66.536 251.218 67.4087 250.537 68.118C249.855 68.8273 249.034 69.182 248.073 69.182C247.009 69.182 246.192 68.79 245.623 68.006V71.8H244.111V62H245.623V63.008C246.192 62.2147 247.009 61.818 248.073 61.818ZM246.253 67.11C246.673 67.53 247.2 67.74 247.835 67.74C248.469 67.74 248.997 67.53 249.417 67.11C249.837 66.6807 250.047 66.144 250.047 65.5C250.047 64.856 249.837 64.324 249.417 63.904C248.997 63.4747 248.469 63.26 247.835 63.26C247.2 63.26 246.673 63.4747 246.253 63.904C245.833 64.324 245.623 64.856 245.623 65.5C245.623 66.144 245.833 66.6807 246.253 67.11ZM256.233 69.182C255.206 69.182 254.334 68.8273 253.615 68.118C252.896 67.4087 252.537 66.536 252.537 65.5C252.537 64.464 252.896 63.5913 253.615 62.882C254.334 62.1727 255.206 61.818 256.233 61.818C257.269 61.818 258.142 62.1727 258.851 62.882C259.57 63.5913 259.929 64.464 259.929 65.5C259.929 66.536 259.57 67.4087 258.851 68.118C258.142 68.8273 257.269 69.182 256.233 69.182ZM254.679 67.082C255.099 67.502 255.617 67.712 256.233 67.712C256.849 67.712 257.367 67.502 257.787 67.082C258.207 66.662 258.417 66.1347 258.417 65.5C258.417 64.8653 258.207 64.338 257.787 63.918C257.367 63.498 256.849 63.288 256.233 63.288C255.617 63.288 255.099 63.498 254.679 63.918C254.259 64.338 254.049 64.8653 254.049 65.5C254.049 66.1347 254.259 66.662 254.679 67.082ZM262.517 63.932C262.517 64.1653 262.643 64.352 262.895 64.492C263.157 64.6227 263.469 64.7393 263.833 64.842C264.207 64.9353 264.58 65.0473 264.953 65.178C265.327 65.3087 265.639 65.5327 265.891 65.85C266.153 66.158 266.283 66.55 266.283 67.026C266.283 67.698 266.022 68.2253 265.499 68.608C264.986 68.9907 264.337 69.182 263.553 69.182C262.863 69.182 262.27 69.0373 261.775 68.748C261.281 68.4587 260.921 68.0573 260.697 67.544L261.999 66.788C262.242 67.46 262.76 67.796 263.553 67.796C264.347 67.796 264.743 67.5347 264.743 67.012C264.743 66.788 264.613 66.606 264.351 66.466C264.099 66.326 263.787 66.2093 263.413 66.116C263.049 66.0133 262.681 65.8967 262.307 65.766C261.934 65.6353 261.617 65.4207 261.355 65.122C261.103 64.814 260.977 64.4267 260.977 63.96C260.977 63.316 261.22 62.798 261.705 62.406C262.2 62.014 262.811 61.818 263.539 61.818C264.118 61.818 264.631 61.9487 265.079 62.21C265.537 62.462 265.887 62.8167 266.129 63.274L264.855 63.988C264.613 63.456 264.174 63.19 263.539 63.19C263.25 63.19 263.007 63.2553 262.811 63.386C262.615 63.5073 262.517 63.6893 262.517 63.932ZM268.625 66.144C268.737 66.676 268.993 67.0867 269.395 67.376C269.796 67.656 270.286 67.796 270.865 67.796C271.667 67.796 272.269 67.5067 272.671 66.928L273.917 67.656C273.226 68.6733 272.204 69.182 270.851 69.182C269.712 69.182 268.793 68.8367 268.093 68.146C267.393 67.446 267.043 66.564 267.043 65.5C267.043 64.4547 267.388 63.582 268.079 62.882C268.769 62.1727 269.656 61.818 270.739 61.818C271.765 61.818 272.605 62.1773 273.259 62.896C273.921 63.6147 274.253 64.4873 274.253 65.514C274.253 65.6727 274.234 65.8827 274.197 66.144H268.625ZM268.611 64.912H272.727C272.624 64.3427 272.386 63.9133 272.013 63.624C271.649 63.3347 271.219 63.19 270.725 63.19C270.165 63.19 269.698 63.344 269.325 63.652C268.951 63.96 268.713 64.38 268.611 64.912ZM281.086 59.2H282.598V69H281.086V67.992C280.517 68.7853 279.7 69.182 278.636 69.182C277.675 69.182 276.853 68.8273 276.172 68.118C275.491 67.3993 275.15 66.5267 275.15 65.5C275.15 64.464 275.491 63.5913 276.172 62.882C276.853 62.1727 277.675 61.818 278.636 61.818C279.7 61.818 280.517 62.21 281.086 62.994V59.2ZM277.292 67.11C277.712 67.53 278.239 67.74 278.874 67.74C279.509 67.74 280.036 67.53 280.456 67.11C280.876 66.6807 281.086 66.144 281.086 65.5C281.086 64.856 280.876 64.324 280.456 63.904C280.036 63.4747 279.509 63.26 278.874 63.26C278.239 63.26 277.712 63.4747 277.292 63.904C276.872 64.324 276.662 64.856 276.662 65.5C276.662 66.144 276.872 66.6807 277.292 67.11ZM286.013 68.86C285.807 69.0653 285.56 69.168 285.271 69.168C284.981 69.168 284.734 69.0653 284.529 68.86C284.323 68.6547 284.221 68.4073 284.221 68.118C284.221 67.8287 284.319 67.5813 284.515 67.376C284.72 67.1707 284.972 67.068 285.271 67.068C285.56 67.068 285.807 67.1707 286.013 67.376C286.218 67.5813 286.321 67.8287 286.321 68.118C286.321 68.4073 286.218 68.6547 286.013 68.86ZM55.052 91L52.28 81.2H53.974L56.032 88.858L58.258 81.2H59.742L61.954 88.858L64.012 81.2H65.706L62.934 91H61.072L59 83.846L56.914 91H55.052ZM67.2243 88.144C67.3363 88.676 67.593 89.0867 67.9943 89.376C68.3957 89.656 68.8857 89.796 69.4643 89.796C70.267 89.796 70.869 89.5067 71.2703 88.928L72.5163 89.656C71.8257 90.6733 70.8037 91.182 69.4503 91.182C68.3117 91.182 67.3923 90.8367 66.6923 90.146C65.9923 89.446 65.6423 88.564 65.6423 87.5C65.6423 86.4547 65.9877 85.582 66.6783 84.882C67.369 84.1727 68.2557 83.818 69.3383 83.818C70.365 83.818 71.205 84.1773 71.8583 84.896C72.521 85.6147 72.8523 86.4873 72.8523 87.514C72.8523 87.6727 72.8337 87.8827 72.7963 88.144H67.2243ZM67.2103 86.912H71.3263C71.2237 86.3427 70.9857 85.9133 70.6123 85.624C70.2483 85.3347 69.819 85.19 69.3243 85.19C68.7643 85.19 68.2977 85.344 67.9243 85.652C67.551 85.96 67.313 86.38 67.2103 86.912ZM85.3268 83.818C86.1201 83.818 86.7594 84.0747 87.2448 84.588C87.7301 85.1013 87.9728 85.792 87.9728 86.66V91H86.4608V86.758C86.4608 86.2727 86.3394 85.8993 86.0968 85.638C85.8541 85.3673 85.5228 85.232 85.1028 85.232C84.6361 85.232 84.2628 85.386 83.9828 85.694C83.7121 86.002 83.5768 86.464 83.5768 87.08V91H82.0648V86.758C82.0648 86.2727 81.9481 85.8993 81.7148 85.638C81.4908 85.3673 81.1688 85.232 80.7488 85.232C80.2914 85.232 79.9181 85.3907 79.6288 85.708C79.3394 86.016 79.1948 86.4733 79.1948 87.08V91H77.6828V84H79.1948V84.84C79.6428 84.1587 80.3101 83.818 81.1968 83.818C82.0928 83.818 82.7554 84.1867 83.1848 84.924C83.6514 84.1867 84.3654 83.818 85.3268 83.818ZM90.781 88.144C90.893 88.676 91.1497 89.0867 91.551 89.376C91.9523 89.656 92.4423 89.796 93.021 89.796C93.8237 89.796 94.4257 89.5067 94.827 88.928L96.073 89.656C95.3823 90.6733 94.3603 91.182 93.007 91.182C91.8683 91.182 90.949 90.8367 90.249 90.146C89.549 89.446 89.199 88.564 89.199 87.5C89.199 86.4547 89.5443 85.582 90.235 84.882C90.9257 84.1727 91.8123 83.818 92.895 83.818C93.9217 83.818 94.7617 84.1773 95.415 84.896C96.0777 85.6147 96.409 86.4873 96.409 87.514C96.409 87.6727 96.3903 87.8827 96.353 88.144H90.781ZM90.767 86.912H94.883C94.7803 86.3427 94.5423 85.9133 94.169 85.624C93.805 85.3347 93.3757 85.19 92.881 85.19C92.321 85.19 91.8543 85.344 91.481 85.652C91.1077 85.96 90.8697 86.38 90.767 86.912ZM102.751 85.176C103.134 84.308 103.853 83.874 104.907 83.874V85.512C104.329 85.4747 103.825 85.6147 103.395 85.932C102.966 86.24 102.751 86.7533 102.751 87.472V91H101.239V84H102.751V85.176ZM106.886 88.144C106.998 88.676 107.255 89.0867 107.656 89.376C108.058 89.656 108.548 89.796 109.126 89.796C109.929 89.796 110.531 89.5067 110.932 88.928L112.178 89.656C111.488 90.6733 110.466 91.182 109.112 91.182C107.974 91.182 107.054 90.8367 106.354 90.146C105.654 89.446 105.304 88.564 105.304 87.5C105.304 86.4547 105.65 85.582 106.34 84.882C107.031 84.1727 107.918 83.818 109 83.818C110.027 83.818 110.867 84.1773 111.52 84.896C112.183 85.6147 112.514 86.4873 112.514 87.514C112.514 87.6727 112.496 87.8827 112.458 88.144H106.886ZM106.872 86.912H110.988C110.886 86.3427 110.648 85.9133 110.274 85.624C109.91 85.3347 109.481 85.19 108.986 85.19C108.426 85.19 107.96 85.344 107.586 85.652C107.213 85.96 106.975 86.38 106.872 86.912ZM117.527 83.818C118.33 83.818 118.978 84.0747 119.473 84.588C119.968 85.1013 120.215 85.806 120.215 86.702V91H118.703V86.856C118.703 86.3333 118.563 85.932 118.283 85.652C118.003 85.372 117.62 85.232 117.135 85.232C116.603 85.232 116.174 85.4 115.847 85.736C115.52 86.0627 115.357 86.5667 115.357 87.248V91H113.845V84H115.357V84.896C115.814 84.1773 116.538 83.818 117.527 83.818ZM125.749 85.456H124.013V88.816C124.013 89.1053 124.078 89.3153 124.209 89.446C124.34 89.5673 124.531 89.6373 124.783 89.656C125.044 89.6653 125.366 89.6607 125.749 89.642V91C124.592 91.14 123.761 91.042 123.257 90.706C122.753 90.3607 122.501 89.7307 122.501 88.816V85.456H121.213V84H122.501V82.488L124.013 82.04V84H125.749V85.456ZM134.651 83.818C135.612 83.818 136.433 84.1727 137.115 84.882C137.796 85.5913 138.137 86.464 138.137 87.5C138.137 88.5267 137.796 89.3993 137.115 90.118C136.433 90.8273 135.612 91.182 134.651 91.182C133.587 91.182 132.77 90.7853 132.201 89.992V91H130.689V81.2H132.201V84.994C132.77 84.21 133.587 83.818 134.651 83.818ZM132.831 89.11C133.251 89.53 133.778 89.74 134.413 89.74C135.047 89.74 135.575 89.53 135.995 89.11C136.415 88.6807 136.625 88.144 136.625 87.5C136.625 86.856 136.415 86.324 135.995 85.904C135.575 85.4747 135.047 85.26 134.413 85.26C133.778 85.26 133.251 85.4747 132.831 85.904C132.411 86.324 132.201 86.856 132.201 87.5C132.201 88.144 132.411 88.6807 132.831 89.11ZM140.697 88.144C140.809 88.676 141.066 89.0867 141.467 89.376C141.868 89.656 142.358 89.796 142.937 89.796C143.74 89.796 144.342 89.5067 144.743 88.928L145.989 89.656C145.298 90.6733 144.276 91.182 142.923 91.182C141.784 91.182 140.865 90.8367 140.165 90.146C139.465 89.446 139.115 88.564 139.115 87.5C139.115 86.4547 139.46 85.582 140.151 84.882C140.842 84.1727 141.728 83.818 142.811 83.818C143.838 83.818 144.678 84.1773 145.331 84.896C145.994 85.6147 146.325 86.4873 146.325 87.514C146.325 87.6727 146.306 87.8827 146.269 88.144H140.697ZM140.683 86.912H144.799C144.696 86.3427 144.458 85.9133 144.085 85.624C143.721 85.3347 143.292 85.19 142.797 85.19C142.237 85.19 141.77 85.344 141.397 85.652C141.024 85.96 140.786 86.38 140.683 86.912ZM148.804 88.144C148.916 88.676 149.173 89.0867 149.574 89.376C149.976 89.656 150.466 89.796 151.044 89.796C151.847 89.796 152.449 89.5067 152.85 88.928L154.096 89.656C153.406 90.6733 152.384 91.182 151.03 91.182C149.892 91.182 148.972 90.8367 148.272 90.146C147.572 89.446 147.222 88.564 147.222 87.5C147.222 86.4547 147.568 85.582 148.258 84.882C148.949 84.1727 149.836 83.818 150.918 83.818C151.945 83.818 152.785 84.1773 153.438 84.896C154.101 85.6147 154.432 86.4873 154.432 87.514C154.432 87.6727 154.414 87.8827 154.376 88.144H148.804ZM148.79 86.912H152.906C152.804 86.3427 152.566 85.9133 152.192 85.624C151.828 85.3347 151.399 85.19 150.904 85.19C150.344 85.19 149.878 85.344 149.504 85.652C149.131 85.96 148.893 86.38 148.79 86.912ZM159.445 83.818C160.248 83.818 160.896 84.0747 161.391 84.588C161.886 85.1013 162.133 85.806 162.133 86.702V91H160.621V86.856C160.621 86.3333 160.481 85.932 160.201 85.652C159.921 85.372 159.538 85.232 159.053 85.232C158.521 85.232 158.092 85.4 157.765 85.736C157.438 86.0627 157.275 86.5667 157.275 87.248V91H155.763V84H157.275V84.896C157.732 84.1773 158.456 83.818 159.445 83.818ZM171.223 83.818C172.184 83.818 173.006 84.1773 173.687 84.896C174.368 85.6053 174.709 86.4733 174.709 87.5C174.709 88.536 174.368 89.4087 173.687 90.118C173.006 90.8273 172.184 91.182 171.223 91.182C170.159 91.182 169.342 90.79 168.773 90.006V93.8H167.261V84H168.773V85.008C169.342 84.2147 170.159 83.818 171.223 83.818ZM169.403 89.11C169.823 89.53 170.35 89.74 170.985 89.74C171.62 89.74 172.147 89.53 172.567 89.11C172.987 88.6807 173.197 88.144 173.197 87.5C173.197 86.856 172.987 86.324 172.567 85.904C172.147 85.4747 171.62 85.26 170.985 85.26C170.35 85.26 169.823 85.4747 169.403 85.904C168.983 86.324 168.773 86.856 168.773 87.5C168.773 88.144 168.983 88.6807 169.403 89.11ZM181.623 84H183.135V91H181.623V89.992C181.054 90.7853 180.237 91.182 179.173 91.182C178.212 91.182 177.391 90.8273 176.709 90.118C176.028 89.3993 175.687 88.5267 175.687 87.5C175.687 86.464 176.028 85.5913 176.709 84.882C177.391 84.1727 178.212 83.818 179.173 83.818C180.237 83.818 181.054 84.21 181.623 84.994V84ZM177.829 89.11C178.249 89.53 178.777 89.74 179.411 89.74C180.046 89.74 180.573 89.53 180.993 89.11C181.413 88.6807 181.623 88.144 181.623 87.5C181.623 86.856 181.413 86.324 180.993 85.904C180.573 85.4747 180.046 85.26 179.411 85.26C178.777 85.26 178.249 85.4747 177.829 85.904C177.409 86.324 177.199 86.856 177.199 87.5C177.199 88.144 177.409 88.6807 177.829 89.11ZM186.41 85.176C186.792 84.308 187.511 83.874 188.566 83.874V85.512C187.987 85.4747 187.483 85.6147 187.054 85.932C186.624 86.24 186.41 86.7533 186.41 87.472V91H184.898V84H186.41V85.176ZM193.767 85.456H192.031V88.816C192.031 89.1053 192.096 89.3153 192.227 89.446C192.357 89.5673 192.549 89.6373 192.801 89.656C193.062 89.6653 193.384 89.6607 193.767 89.642V91C192.609 91.14 191.779 91.042 191.275 90.706C190.771 90.3607 190.519 89.7307 190.519 88.816V85.456H189.231V84H190.519V82.488L192.031 82.04V84H193.767V85.456ZM206.77 84H208.366L206.168 91H204.684L203.228 86.282L201.758 91H200.274L198.076 84H199.672L201.03 88.83L202.5 84H203.942L205.398 88.83L206.77 84ZM213.162 83.818C213.964 83.818 214.613 84.0747 215.108 84.588C215.602 85.1013 215.85 85.806 215.85 86.702V91H214.338V86.856C214.338 86.3333 214.198 85.932 213.918 85.652C213.638 85.372 213.255 85.232 212.77 85.232C212.238 85.232 211.808 85.4 211.482 85.736C211.155 86.0627 210.992 86.5667 210.992 87.248V91H209.48V81.2H210.992V84.896C211.449 84.1773 212.172 83.818 213.162 83.818ZM223.022 84H224.534V91H223.022V89.992C222.452 90.7853 221.636 91.182 220.572 91.182C219.61 91.182 218.789 90.8273 218.108 90.118C217.426 89.3993 217.086 88.5267 217.086 87.5C217.086 86.464 217.426 85.5913 218.108 84.882C218.789 84.1727 219.61 83.818 220.572 83.818C221.636 83.818 222.452 84.21 223.022 84.994V84ZM219.228 89.11C219.648 89.53 220.175 89.74 220.81 89.74C221.444 89.74 221.972 89.53 222.392 89.11C222.812 88.6807 223.022 88.144 223.022 87.5C223.022 86.856 222.812 86.324 222.392 85.904C221.972 85.4747 221.444 85.26 220.81 85.26C220.175 85.26 219.648 85.4747 219.228 85.904C218.808 86.324 218.598 86.856 218.598 87.5C218.598 88.144 218.808 88.6807 219.228 89.11ZM230.202 85.456H228.466V88.816C228.466 89.1053 228.531 89.3153 228.662 89.446C228.793 89.5673 228.984 89.6373 229.236 89.656C229.497 89.6653 229.819 89.6607 230.202 89.642V91C229.045 91.14 228.214 91.042 227.71 90.706C227.206 90.3607 226.954 89.7307 226.954 88.816V85.456H225.666V84H226.954V82.488L228.466 82.04V84H230.202V85.456ZM233.294 90.86C233.088 91.0653 232.841 91.168 232.552 91.168C232.262 91.168 232.015 91.0653 231.81 90.86C231.604 90.6547 231.502 90.4073 231.502 90.118C231.502 89.8287 231.6 89.5813 231.796 89.376C232.001 89.1707 232.253 89.068 232.552 89.068C232.841 89.068 233.088 89.1707 233.294 89.376C233.499 89.5813 233.602 89.8287 233.602 90.118C233.602 90.4073 233.499 90.6547 233.294 90.86Z" fill="#8476AA"/>
<path opacity="0.3" fill-rule="evenodd" clip-rule="evenodd" d="M14 11.4722C14.8262 12.2116 15.8584 12.7255 17 12.917V20.5C17 21.3284 16.3284 22 15.5 22C14.6716 22 14 21.3284 14 20.5V11.4722Z" fill="#99EFD0"/>
<path opacity="0.3" fill-rule="evenodd" clip-rule="evenodd" d="M7 12.917C8.14157 12.7255 9.17384 12.2116 10 11.4722V20.5C10 21.3284 9.32843 22 8.5 22C7.67157 22 7 21.3284 7 20.5V12.917Z" fill="#99EFD0"/>
<path fill-rule="evenodd" clip-rule="evenodd" d="M18 12C20.7614 12 23 9.76142 23 7C23 4.23858 20.7614 2 18 2C15.2386 2 13 4.23858 13 7C13 9.76142 15.2386 12 18 12ZM14 7.25C14 6.83579 14.3358 6.5 14.75 6.5H15.25C15.6642 6.5 16 6.83579 16 7.25C16 7.66421 15.6642 8 15.25 8H14.75C14.3358 8 14 7.66421 14 7.25ZM21 5C20.4477 5 20 5.44772 20 6V8C20 8.55228 20.4477 9 21 9C21.5523 9 22 8.55228 22 8V6C22 5.44772 21.5523 5 21 5Z" fill="#99EFD0"/>
<path fill-rule="evenodd" clip-rule="evenodd" d="M6 12C8.76142 12 11 9.76142 11 7C11 4.23858 8.76142 2 6 2C3.23858 2 1 4.23858 1 7C1 9.76142 3.23858 12 6 12ZM8 7.25C8 6.83579 8.33579 6.5 8.75 6.5H9.25C9.66421 6.5 10 6.83579 10 7.25C10 7.66421 9.66421 8 9.25 8H8.75C8.33579 8 8 7.66421 8 7.25ZM3 5C2.44772 5 2 5.44772 2 6V8C2 8.55228 2.44772 9 3 9C3.55228 9 4 8.55228 4 8V6C4 5.44772 3.55228 5 3 5Z" fill="#99EFD0"/>
</svg>
